0
SECTION
2
HEADER
9
$ACADVER
1
AC1014
9
$DWGCODEPAGE
3
ANSI_1252
9
$HANDSEED
5
23642
9
$INSBASE
10
0.0
20
0.0
30
0.0
9
$EXTMIN
10
-266.197183
20
-186.85446
30
0.0
9
$EXTMAX
10
266.197183
20
213.14554
30
0.2
9
$LIMMIN
10
0.0
20
0.0
9
$LIMMAX
10
12.0
20
9.0
9
$ANGBASE
50
0.0
9
$ANGDIR
70
0
9
$ATTMODE
70
1
9
$AUNITS
70
0
9
$AUPREC
70
0
9
$CECOLOR
62
256
9
$CELTSCALE
40
1.0
9
$CELTYPE
6
BYLAYER
9
$CLAYER
8
0
9
$CMLJUST
70
0
9
$CMLSCALE
40
1.0
9
$CMLSTYLE
2
STANDARD
9
$DIMSTYLE
2
STANDARD
9
$TEXTSIZE
40
0.2
9
$TEXTSTYLE
7
ROMANS
9
$LUNITS
70
2
9
$LUPREC
70
4
9
$LTSCALE
40
1.0
9
$PDMODE
70
0
9
$PDSIZE
40
0.0
9
$PLINEGEN
70
0
9
$PSLTSCALE
70
1
9
$TDCREATE
40
2449678.74747487
9
$TDUPDATE
40
2461103.43376067
9
$TDINDWG
40
0.00330300263426
9
$THICKNESS
40
0.0
9
$ELEVATION
40
0.0
9
$TRACEWID
40
0.05
9
$PLINEWID
40
0.0
9
$PLIMMIN
10
0.0
20
0.0
9
$PLIMMAX
10
12.0
20
9.0
9
$PELEVATION
40
0.0
9
$PEXTMIN
10
100000000000000000000.0
20
100000000000000000000.0
30
100000000000000000000.0
9
$PEXTMAX
10
-100000000000000000000.0
20
-100000000000000000000.0
30
-100000000000000000000.0
9
$PINSBASE
10
0.0
20
0.0
30
0.0
9
$PLIMCHECK
70
0
9
$ORTHOMODE
70
0
9
$UCSNAME
2

9
$UCSORG
10
0.0
20
0.0
30
0.0
9
$UCSORGBACK
10
0.0
20
0.0
30
0.0
9
$UCSORGBOTTOM
10
0.0
20
0.0
30
0.0
9
$UCSORGFRONT
10
0.0
20
0.0
30
0.0
9
$UCSORGLEFT
10
0.0
20
0.0
30
0.0
9
$UCSORGRIGHT
10
0.0
20
0.0
30
0.0
9
$UCSORGTOP
10
0.0
20
0.0
30
0.0
9
$UCSORTHOREF
2

9
$UCSORTHOVIEW
70
0
9
$UCSXDIR
10
1.0
20
0.0
30
0.0
9
$UCSYDIR
10
0.0
20
1.0
30
0.0
9
$CHAMFERA
40
0.0
9
$CHAMFERB
40
0.0
9
$CHAMFERC
40
0.0
9
$CHAMFERD
40
0.0
9
$CEPSNTYPE
380
0
9
$FILLETRAD
40
0.0
9
$FINGERPRINTGUID
2
{E76004DE-6AB3-4742-B59D-EBBCC2320D9B}
9
$VERSIONGUID
2
{BFAD9222-15CB-4FE3-9315-B46D9B65A5BA}
9
$DIMAUNIT
70
0
9
$DIMASZ
40
0.18
9
$DIMSAH
70
0
9
$DIMBLK
1

9
$DIMCEN
40
0.09
9
$DIMCLRD
70
0
9
$DIMCLRE
70
0
9
$DIMCLRT
70
0
9
$DIMDEC
70
4
9
$DIMDLE
40
0.0
9
$DIMDLI
40
0.38
9
$DIMEXE
40
0.18
9
$DIMEXO
40
0.0625
9
$DIMGAP
40
0.09
9
$DIMJUST
70
0
9
$DIMLFAC
40
1.0
9
$DIMPOST
1
<>
9
$DIMRND
40
0.0
9
$DIMSCALE
40
1.0
9
$DIMSD1
70
0
9
$DIMSD2
70
0
9
$DIMSE1
70
0
9
$DIMSE2
70
0
9
$DIMTAD
70
0
9
$DIMTIH
70
1
9
$DIMTOH
70
1
9
$DIMTXT
40
0.18
9
$DIMZIN
70
0
0
ENDSEC
0
SECTION
2
CLASSES
0
CLASS
1
RASTERVARIABLES
2
AcDbRasterVariables
3
ISM
90
0
280
0
281
0
0
ENDSEC
0
SECTION
2
TABLES
0
TABLE
2
APPID
5
9
100
AcDbSymbolTable
70
4
0
APPID
5
11
100
AcDbSymbolTableRecord
100
AcDbRegAppTableRecord
2
ACAD
70
0
0
APPID
5
72471
100
AcDbSymbolTableRecord
100
AcDbRegAppTableRecord
2
AcCmTransparency
70
0
0
APPID
5
72472
100
AcDbSymbolTableRecord
100
AcDbRegAppTableRecord
2
GradientColor1ACI
70
0
0
APPID
5
72473
100
AcDbSymbolTableRecord
100
AcDbRegAppTableRecord
2
GradientColor2ACI
70
0
0
ENDTAB
0
TABLE
2
VIEW
5
6
100
AcDbSymbolTable
70
0
0
ENDTAB
0
TABLE
2
VPORT
5
8
100
AcDbSymbolTable
70
1
0
VPORT
5
2B0
100
AcDbSymbolTableRecord
100
AcDbViewportTableRecord
2
*Active
70
0
10
0.0
20
0.0
11
1.0
21
1.0
12
0.0
22
11.2613550439453
13
0.0
23
0.0
14
1.0
24
1.0
15
0.0
25
0.0
16
0.0
26
0.0
36
1.0
17
0.0
27
0.0
37
0.0
40
408.0
41
2.12145256996155
42
50.0
43
0.0
44
0.0
50
0.0
51
0.0
71
0
72
1000
73
0
74
0
75
0
76
0
77
0
78
0
0
ENDTAB
0
TABLE
2
LTYPE
5
5
100
AcDbSymbolTable
70
3
0
LTYPE
5
14
100
AcDbSymbolTableRecord
100
AcDbLinetypeTableRecord
70
0
2
ByBlock
3

72
65
73
0
40
0.0
46
1.0
0
LTYPE
5
15
100
AcDbSymbolTableRecord
100
AcDbLinetypeTableRecord
70
0
2
ByLayer
3

72
65
73
0
40
0.0
46
1.0
0
LTYPE
5
16
100
AcDbSymbolTableRecord
100
AcDbLinetypeTableRecord
70
0
2
CONTINUOUS
3
Solid line
72
65
73
0
40
0.0
46
1.0
0
ENDTAB
0
TABLE
2
LAYER
5
2
100
AcDbSymbolTable
70
4
0
LAYER
5
F
100
AcDbSymbolTableRecord
100
AcDbLayerTableRecord
2
0
70
0
62
7
6
CONTINUOUS
0
LAYER
5
1F
100
AcDbSymbolTableRecord
100
AcDbLayerTableRecord
2
LINES
70
0
62
7
6
CONTINUOUS
0
LAYER
5
20
100
AcDbSymbolTableRecord
100
AcDbLayerTableRecord
2
SHADES
70
0
62
10
6
CONTINUOUS
0
LAYER
5
21
100
AcDbSymbolTableRecord
100
AcDbLayerTableRecord
2
TEXT
70
0
62
7
6
CONTINUOUS
0
ENDTAB
0
TABLE
2
STYLE
5
3
100
AcDbSymbolTable
70
3
0
STYLE
5
10
100
AcDbSymbolTableRecord
100
AcDbTextStyleTableRecord
2
STANDARD
3
fonts2\txt.ttf
70
0
71
0
40
0.0
41
1.0
42
0.0
50
0.0
0
STYLE
5
22
100
AcDbSymbolTableRecord
100
AcDbTextStyleTableRecord
2
ROMAND
3
fonts2\romand.ttf
70
0
71
0
40
0.0
41
1.0
42
0.0
50
0.0
0
STYLE
5
23
100
AcDbSymbolTableRecord
100
AcDbTextStyleTableRecord
2
ROMANS
3
fonts2\romans.ttf
70
0
71
0
40
0.0
41
1.0
42
0.0
50
0.0
0
ENDTAB
0
TABLE
2
DIMSTYLE
5
A
100
AcDbSymbolTable
70
1
0
DIMSTYLE
105
1D
100
AcDbSymbolTableRecord
100
AcDbDimStyleTableRecord
2
STANDARD
70
0
3
<>
40
1.0
41
0.18
42
0.0625
43
0.38
44
0.18
45
0.0
46
0.0
47
0.0
48
0.0
71
0
72
0
73
1
74
1
75
0
76
0
77
0
78
0
79
3
140
0.18
141
0.09
142
0.0
143
0.0
144
1.0
145
0.0
146
0.0
147
0.09
170
0
171
0
172
0
174
0
175
0
176
0
177
0
178
0
179
0
271
4
275
0
276
0
277
2
278
46
280
0
281
0
282
0
340
10
173
0
0
ENDTAB
0
TABLE
2
UCS
5
7
100
AcDbSymbolTable
70
0
0
ENDTAB
0
TABLE
2
BLOCK_RECORD
5
1
100
AcDbSymbolTable
70
2
0
BLOCK_RECORD
5
1A
100
AcDbSymbolTableRecord
100
AcDbBlockTableRecord
2
*MODEL_SPACE
0
BLOCK_RECORD
5
17
100
AcDbSymbolTableRecord
100
AcDbBlockTableRecord
2
*PAPER_SPACE
0
ENDTAB
0
ENDSEC
0
SECTION
2
BLOCKS
0
BLOCK
5
1B
100
AcDbEntity
8
0
100
AcDbBlockBegin
2
*MODEL_SPACE
70
0
10
0.0
20
0.0
30
0.0
3
*MODEL_SPACE
0
ENDBLK
5
1C
100
AcDbEntity
8
0
100
AcDbBlockEnd
0
BLOCK
5
18
100
AcDbEntity
8
0
100
AcDbBlockBegin
2
*PAPER_SPACE
70
0
10
0.0
20
0.0
30
0.0
3
*PAPER_SPACE
0
ENDBLK
5
19
100
AcDbEntity
8
0
100
AcDbBlockEnd
0
ENDSEC
0
SECTION
2
ENTITIES
0
TEXT
5
118C1
100
AcDbEntity
67
0
8
TEXT
62
256
6
ByLayer
370
-1
48
1.0
60
0
100
AcDbText
1
The AutoCAD Color Wheel
10
-150.357143
20
182.5
30
0.0
40
15.0
41
1.0
50
0.0
51
0.0
7
ROMAND
11
0.0
21
190.0
31
0.0
210
0.0
220
0.0
230
1.0
72
4
100
AcDbText
73
0
0
POLYLINE
5
118C2
100
AcDbEntity
67
0
8
TEXT
62
256
6
ByLayer
370
-1
48
1.0
60
0
100
AcDb2dPolyline
10
0.0
20
0.0
30
0.0
39
0.1
66
1
40
1.0
41
1.0
70
0
71
0
72
0
73
0
74
0
75
0
210
0.0
220
0.0
230
1.0
0
VERTEX
5
26
100
AcDbEntity
8
TEXT
62
256
100
AcDbVertex
100
AcDb2dVertex
10
-149.765258
20
174.647887
30
0.0
42
0.0
0
VERTEX
5
27
100
AcDbEntity
8
TEXT
62
256
100
AcDbVertex
100
AcDb2dVertex
10
151.643192
20
174.647887
30
0.0
42
0.0
0
SEQEND
5
28
100
AcDbEntity
8
TEXT
0
TEXT
5
118C3
100
AcDbEntity
67
0
8
TEXT
62
1
6
ByLayer
370
-1
48
1.0
60
0
100
AcDbText
1
1
10
-245.237041
20
66.551694
30
0.0
40
8.0
41
1.0
50
0.0
51
0.0
7
ROMANS
11
-241.998946
21
70.551694
31
0.0
210
0.0
220
0.0
230
1.0
72
4
100
AcDbText
73
0
0
TEXT
5
118C4
100
AcDbEntity
67
0
8
TEXT
62
2
6
ByLayer
370
-1
48
1.0
60
0
100
AcDbText
1
2
10
-245.80847
20
49.408837
30
0.0
40
8.0
41
1.0
50
0.0
51
0.0
7
ROMANS
11
-241.998946
21
53.408837
31
0.0
210
0.0
220
0.0
230
1.0
72
4
100
AcDbText
73
0
0
TEXT
5
118C5
100
AcDbEntity
67
0
8
TEXT
62
3
6
ByLayer
370
-1
48
1.0
60
0
100
AcDbText
1
3
10
-245.80847
20
32.26598
30
0.0
40
8.0
41
1.0
50
0.0
51
0.0
7
ROMANS
11
-241.998946
21
36.26598
31
0.0
210
0.0
220
0.0
230
1.0
72
4
100
AcDbText
73
0
0
TEXT
5
118C6
100
AcDbEntity
67
0
8
TEXT
62
4
6
ByLayer
370
-1
48
1.0
60
0
100
AcDbText
1
4
10
-245.998946
20
15.123123
30
0.0
40
8.0
41
1.0
50
0.0
51
0.0
7
ROMANS
11
-241.998946
21
19.123123
31
0.0
210
0.0
220
0.0
230
1.0
72
4
100
AcDbText
73
0
0
TEXT
5
118C7
100
AcDbEntity
67
0
8
TEXT
62
5
6
ByLayer
370
-1
48
1.0
60
0
100
AcDbText
1
5
10
-245.80847
20
-2.019735
30
0.0
40
8.0
41
1.0
50
0.0
51
0.0
7
ROMANS
11
-241.998946
21
1.980265
31
0.0
210
0.0
220
0.0
230
1.0
72
4
100
AcDbText
73
0
0
TEXT
5
118C8
100
AcDbEntity
67
0
8
TEXT
62
6
6
ByLayer
370
-1
48
1.0
60
0
100
AcDbText
1
6
10
-245.998946
20
-19.162592
30
0.0
40
8.0
41
1.0
50
0.0
51
0.0
7
ROMANS
11
-241.998946
21
-15.162592
31
0.0
210
0.0
220
0.0
230
1.0
72
4
100
AcDbText
73
0
0
TEXT
5
118C9
100
AcDbEntity
67
0
8
TEXT
62
7
6
ByLayer
370
-1
48
1.0
60
0
100
AcDbText
1
7
10
-245.80847
20
-36.305449
30
0.0
40
8.0
41
1.0
50
0.0
51
0.0
7
ROMANS
11
-241.998946
21
-32.305449
31
0.0
210
0.0
220
0.0
230
1.0
72
4
100
AcDbText
73
0
0
TEXT
5
118CA
100
AcDbEntity
67
0
8
TEXT
62
8
6
ByLayer
370
-1
48
1.0
60
0
100
AcDbText
1
8
10
-245.80847
20
-53.448306
30
0.0
40
8.0
41
1.0
50
0.0
51
0.0
7
ROMANS
11
-241.998946
21
-49.448306
31
0.0
210
0.0
220
0.0
230
1.0
72
4
100
AcDbText
73
0
0
TEXT
5
118CB
100
AcDbEntity
67
0
8
TEXT
62
9
6
ByLayer
370
-1
48
1.0
60
0
100
AcDbText
1
9
10
-245.617994
20
-70.591163
30
0.0
40
8.0
41
1.0
50
0.0
51
0.0
7
ROMANS
11
-241.998946
21
-66.591163
31
0.0
210
0.0
220
0.0
230
1.0
72
4
100
AcDbText
73
0
0
SOLID
5
118CC
100
AcDbEntity
67
0
8
SHADES
62
1
6
ByLayer
370
-1
48
1.0
60
0
100
AcDbTrace
10
-227.357758
20
63.368076
30
0.0
11
-193.072044
21
63.368076
31
0.0
12
-227.357758
22
74.796648
32
0.0
13
-193.072044
23
74.796648
33
0.0
39
0.1
210
0.0
220
0.0
230
1.0
0
SOLID
5
118CD
100
AcDbEntity
67
0
8
SHADES
62
2
6
ByLayer
370
-1
48
1.0
60
0
100
AcDbTrace
10
-227.357758
20
46.225219
30
0.0
11
-193.072044
21
46.225219
31
0.0
12
-227.357758
22
57.653791
32
0.0
13
-193.072044
23
57.653791
33
0.0
39
0.1
210
0.0
220
0.0
230
1.0
0
SOLID
5
118CE
100
AcDbEntity
67
0
8
SHADES
62
3
6
ByLayer
370
-1
48
1.0
60
0
100
AcDbTrace
10
-227.357758
20
29.082362
30
0.0
11
-193.072044
21
29.082362
31
0.0
12
-227.357758
22
40.510934
32
0.0
13
-193.072044
23
40.510934
33
0.0
39
0.1
210
0.0
220
0.0
230
1.0
0
SOLID
5
118CF
100
AcDbEntity
67
0
8
SHADES
62
4
6
ByLayer
370
-1
48
1.0
60
0
100
AcDbTrace
10
-227.357758
20
11.939505
30
0.0
11
-193.072044
21
11.939505
31
0.0
12
-227.357758
22
23.368076
32
0.0
13
-193.072044
23
23.368076
33
0.0
39
0.1
210
0.0
220
0.0
230
1.0
0
SOLID
5
118D0
100
AcDbEntity
67
0
8
SHADES
62
5
6
ByLayer
370
-1
48
1.0
60
0
100
AcDbTrace
10
-227.357758
20
-5.203352
30
0.0
11
-193.072044
21
-5.203352
31
0.0
12
-227.357758
22
6.225219
32
0.0
13
-193.072044
23
6.225219
33
0.0
39
0.1
210
0.0
220
0.0
230
1.0
0
SOLID
5
118D1
100
AcDbEntity
67
0
8
SHADES
62
6
6
ByLayer
370
-1
48
1.0
60
0
100
AcDbTrace
10
-227.357758
20
-22.346209
30
0.0
11
-193.072044
21
-22.346209
31
0.0
12
-227.357758
22
-10.917638
32
0.0
13
-193.072044
23
-10.917638
33
0.0
39
0.1
210
0.0
220
0.0
230
1.0
0
SOLID
5
118D2
100
AcDbEntity
67
0
8
SHADES
62
7
6
ByLayer
370
-1
48
1.0
60
0
100
AcDbTrace
10
-227.357758
20
-39.489066
30
0.0
11
-193.072044
21
-39.489066
31
0.0
12
-227.357758
22
-28.060495
32
0.0
13
-193.072044
23
-28.060495
33
0.0
39
0.1
210
0.0
220
0.0
230
1.0
0
SOLID
5
118D3
100
AcDbEntity
67
0
8
SHADES
62
8
6
ByLayer
370
-1
48
1.0
60
0
100
AcDbTrace
10
-227.357758
20
-56.631924
30
0.0
11
-193.072044
21
-56.631924
31
0.0
12
-227.357758
22
-45.203352
32
0.0
13
-193.072044
23
-45.203352
33
0.0
39
0.1
210
0.0
220
0.0
230
1.0
0
SOLID
5
118D4
100
AcDbEntity
67
0
8
SHADES
62
9
6
ByLayer
370
-1
48
1.0
60
0
100
AcDbTrace
10
-227.357758
20
-73.774781
30
0.0
11
-193.072044
21
-73.774781
31
0.0
12
-227.357758
22
-62.346209
32
0.0
13
-193.072044
23
-62.346209
33
0.0
39
0.1
210
0.0
220
0.0
230
1.0
0
SOLID
5
118D5
100
AcDbEntity
67
0
8
SHADES
62
18
6
ByLayer
370
-1
48
1.0
60
0
100
AcDbTrace
10
40.0
20
-0.000031
30
0.0
11
50.07948
21
-0.000038
31
0.0
12
38.743334
22
9.947566
32
0.0
13
48.50615
23
12.454223
33
0.0
39
0.1
210
0.0
220
0.0
230
1.0
0
SOLID
5
118D6
100
AcDbEntity
67
0
8
SHADES
62
16
6
ByLayer
370
-1
48
1.0
60
0
100
AcDbTrace
10
50.07948
20
-0.000038
30
0.0
11
60.158959
21
-0.000046
31
0.0
12
48.50615
22
12.454223
32
0.0
13
58.268967
23
14.96088
33
0.0
39
0.1
210
0.0
220
0.0
230
1.0
0
SOLID
5
118D7
100
AcDbEntity
67
0
8
SHADES
62
14
6
ByLayer
370
-1
48
1.0
60
0
100
AcDbTrace
10
60.158959
20
-0.000046
30
0.0
11
70.238439
21
-0.000054
31
0.0
12
58.268967
22
14.96088
32
0.0
13
68.031783
23
17.467537
33
0.0
39
0.1
210
0.0
220
0.0
230
1.0
0
SOLID
5
118D8
100
AcDbEntity
67
0
8
SHADES
62
12
6
ByLayer
370
-1
48
1.0
60
0
100
AcDbTrace
10
70.238439
20
-0.000054
30
0.0
11
80.317919
21
-0.000061
31
0.0
12
68.031783
22
17.467537
32
0.0
13
77.794599
23
19.974195
33
0.0
39
0.1
210
0.0
220
0.0
230
1.0
0
SOLID
5
118D9
100
AcDbEntity
67
0
8
SHADES
62
256
6
ByLayer
370
-1
48
1.0
60
0
100
AcDbTrace
10
80.317919
20
-0.000061
30
0.0
11
90.397399
21
-0.000069
31
0.0
12
77.794599
22
19.974195
32
0.0
13
87.557415
23
22.480852
33
0.0
39
0.1
210
0.0
220
0.0
230
1.0
0
SOLID
5
118DA
100
AcDbEntity
67
0
8
SHADES
62
11
6
ByLayer
370
-1
48
1.0
60
0
100
AcDbTrace
10
90.397399
20
-0.000069
30
0.0
11
100.476878
21
-0.000077
31
0.0
12
87.557415
22
22.480852
32
0.0
13
97.320231
23
24.987509
33
0.0
39
0.1
210
0.0
220
0.0
230
1.0
0
SOLID
5
118DB
100
AcDbEntity
67
0
8
SHADES
62
13
6
ByLayer
370
-1
48
1.0
60
0
100
AcDbTrace
10
100.476878
20
-0.000077
30
0.0
11
110.556358
21
-0.000085
31
0.0
12
97.320231
22
24.987509
32
0.0
13
107.083048
23
27.494166
33
0.0
39
0.1
210
0.0
220
0.0
230
1.0
0
SOLID
5
118DC
100
AcDbEntity
67
0
8
SHADES
62
15
6
ByLayer
370
-1
48
1.0
60
0
100
AcDbTrace
10
110.556358
20
-0.000085
30
0.0
11
120.635838
21
-0.000092
31
0.0
12
107.083048
22
27.494166
32
0.0
13
116.845864
23
30.000823
33
0.0
39
0.1
210
0.0
220
0.0
230
1.0
0
SOLID
5
118DD
100
AcDbEntity
67
0
8
SHADES
62
17
6
ByLayer
370
-1
48
1.0
60
0
100
AcDbTrace
10
120.635838
20
-0.000092
30
0.0
11
130.715317
21
-0.0001
31
0.0
12
116.845864
22
30.000823
32
0.0
13
126.60868
23
32.507481
33
0.0
39
0.1
210
0.0
220
0.0
230
1.0
0
SOLID
5
118DE
100
AcDbEntity
67
0
8
SHADES
62
19
6
ByLayer
370
-1
48
1.0
60
0
100
AcDbTrace
10
130.715317
20
-0.0001
30
0.0
11
140.794797
21
-0.000108
31
0.0
12
126.60868
22
32.507481
32
0.0
13
136.371496
23
35.014138
33
0.0
39
0.1
210
0.0
220
0.0
230
1.0
0
SOLID
5
118DF
100
AcDbEntity
67
0
8
SHADES
62
28
6
ByLayer
370
-1
48
1.0
60
0
100
AcDbTrace
10
38.743334
20
9.947566
30
0.0
11
48.50615
21
12.454223
31
0.0
12
35.052282
22
19.27012
32
0.0
13
43.885001
23
24.12594
33
0.0
39
0.1
210
0.0
220
0.0
230
1.0
0
SOLID
5
118E0
100
AcDbEntity
67
0
8
SHADES
62
26
6
ByLayer
370
-1
48
1.0
60
0
100
AcDbTrace
10
48.50615
20
12.454223
30
0.0
11
58.268967
21
14.96088
31
0.0
12
43.885001
22
24.12594
32
0.0
13
52.71772
23
28.981759
33
0.0
39
0.1
210
0.0
220
0.0
230
1.0
0
SOLID
5
118E1
100
AcDbEntity
67
0
8
SHADES
62
24
6
ByLayer
370
-1
48
1.0
60
0
100
AcDbTrace
10
58.268967
20
14.96088
30
0.0
11
68.031783
21
17.467537
31
0.0
12
52.71772
22
28.981759
32
0.0
13
61.550439
23
33.837579
33
0.0
39
0.1
210
0.0
220
0.0
230
1.0
0
SOLID
5
118E2
100
AcDbEntity
67
0
8
SHADES
62
22
6
ByLayer
370
-1
48
1.0
60
0
100
AcDbTrace
10
68.031783
20
17.467537
30
0.0
11
77.794599
21
19.974195
31
0.0
12
61.550439
22
33.837579
32
0.0
13
70.383158
23
38.693399
33
0.0
39
0.1
210
0.0
220
0.0
230
1.0
0
SOLID
5
118E3
100
AcDbEntity
67
0
8
SHADES
62
20
6
ByLayer
370
-1
48
1.0
60
0
100
AcDbTrace
10
77.794599
20
19.974195
30
0.0
11
87.557415
21
22.480852
31
0.0
12
70.383158
22
38.693399
32
0.0
13
79.215878
23
43.549218
33
0.0
39
0.1
210
0.0
220
0.0
230
1.0
0
SOLID
5
118E4
100
AcDbEntity
67
0
8
SHADES
62
21
6
ByLayer
370
-1
48
1.0
60
0
100
AcDbTrace
10
87.557415
20
22.480852
30
0.0
11
97.320231
21
24.987509
31
0.0
12
79.215878
22
43.549218
32
0.0
13
88.048597
23
48.405038
33
0.0
39
0.1
210
0.0
220
0.0
230
1.0
0
SOLID
5
118E5
100
AcDbEntity
67
0
8
SHADES
62
23
6
ByLayer
370
-1
48
1.0
60
0
100
AcDbTrace
10
97.320231
20
24.987509
30
0.0
11
107.083048
21
27.494166
31
0.0
12
88.048597
22
48.405038
32
0.0
13
96.881316
23
53.260858
33
0.0
39
0.1
210
0.0
220
0.0
230
1.0
0
SOLID
5
118E6
100
AcDbEntity
67
0
8
SHADES
62
25
6
ByLayer
370
-1
48
1.0
60
0
100
AcDbTrace
10
107.083048
20
27.494166
30
0.0
11
116.845864
21
30.000823
31
0.0
12
96.881316
22
53.260858
32
0.0
13
105.714035
23
58.116677
33
0.0
39
0.1
210
0.0
220
0.0
230
1.0
0
SOLID
5
118E7
100
AcDbEntity
67
0
8
SHADES
62
27
6
ByLayer
370
-1
48
1.0
60
0
100
AcDbTrace
10
116.845864
20
30.000823
30
0.0
11
126.60868
21
32.507481
31
0.0
12
105.714035
22
58.116677
32
0.0
13
114.546754
23
62.972497
33
0.0
39
0.1
210
0.0
220
0.0
230
1.0
0
SOLID
5
118E8
100
AcDbEntity
67
0
8
SHADES
62
29
6
ByLayer
370
-1
48
1.0
60
0
100
AcDbTrace
10
126.60868
20
32.507481
30
0.0
11
136.371496
21
35.014138
31
0.0
12
114.546754
22
62.972497
32
0.0
13
123.379473
23
67.828316
33
0.0
39
0.1
210
0.0
220
0.0
230
1.0
0
SOLID
5
118E9
100
AcDbEntity
67
0
8
SHADES
62
38
6
ByLayer
370
-1
48
1.0
60
0
100
AcDbTrace
10
35.052282
20
19.27012
30
0.0
11
43.885001
21
24.12594
31
0.0
12
29.158766
22
27.381862
32
0.0
13
36.506396
23
34.281735
33
0.0
39
0.1
210
0.0
220
0.0
230
1.0
0
SOLID
5
118EA
100
AcDbEntity
67
0
8
SHADES
62
36
6
ByLayer
370
-1
48
1.0
60
0
100
AcDbTrace
10
43.885001
20
24.12594
30
0.0
11
52.71772
21
28.981759
31
0.0
12
36.506396
22
34.281735
32
0.0
13
43.854026
23
41.181608
33
0.0
39
0.1
210
0.0
220
0.0
230
1.0
0
SOLID
5
118EB
100
AcDbEntity
67
0
8
SHADES
62
34
6
ByLayer
370
-1
48
1.0
60
0
100
AcDbTrace
10
52.71772
20
28.981759
30
0.0
11
61.550439
21
33.837579
31
0.0
12
43.854026
22
41.181608
32
0.0
13
51.201655
23
48.081481
33
0.0
39
0.1
210
0.0
220
0.0
230
1.0
0
SOLID
5
118EC
100
AcDbEntity
67
0
8
SHADES
62
32
6
ByLayer
370
-1
48
1.0
60
0
100
AcDbTrace
10
61.550439
20
33.837579
30
0.0
11
70.383158
21
38.693399
31
0.0
12
51.201655
22
48.081481
32
0.0
13
58.549285
23
54.981354
33
0.0
39
0.1
210
0.0
220
0.0
230
1.0
0
SOLID
5
118ED
100
AcDbEntity
67
0
8
SHADES
62
30
6
ByLayer
370
-1
48
1.0
60
0
100
AcDbTrace
10
70.383158
20
38.693399
30
0.0
11
79.215878
21
43.549218
31
0.0
12
58.549285
22
54.981354
32
0.0
13
65.896915
23
61.881227
33
0.0
39
0.1
210
0.0
220
0.0
230
1.0
0
SOLID
5
118EE
100
AcDbEntity
67
0
8
SHADES
62
31
6
ByLayer
370
-1
48
1.0
60
0
100
AcDbTrace
10
79.215878
20
43.549218
30
0.0
11
88.048597
21
48.405038
31
0.0
12
65.896915
22
61.881227
32
0.0
13
73.244545
23
68.7811
33
0.0
39
0.1
210
0.0
220
0.0
230
1.0
0
SOLID
5
118EF
100
AcDbEntity
67
0
8
SHADES
62
33
6
ByLayer
370
-1
48
1.0
60
0
100
AcDbTrace
10
88.048597
20
48.405038
30
0.0
11
96.881316
21
53.260858
31
0.0
12
73.244545
22
68.7811
32
0.0
13
80.592174
23
75.680973
33
0.0
39
0.1
210
0.0
220
0.0
230
1.0
0
SOLID
5
118F0
100
AcDbEntity
67
0
8
SHADES
62
35
6
ByLayer
370
-1
48
1.0
60
0
100
AcDbTrace
10
96.881316
20
53.260858
30
0.0
11
105.714035
21
58.116677
31
0.0
12
80.592174
22
75.680973
32
0.0
13
87.939804
23
82.580846
33
0.0
39
0.1
210
0.0
220
0.0
230
1.0
0
SOLID
5
118F1
100
AcDbEntity
67
0
8
SHADES
62
37
6
ByLayer
370
-1
48
1.0
60
0
100
AcDbTrace
10
105.714035
20
58.116677
30
0.0
11
114.546754
21
62.972497
31
0.0
12
87.939804
22
82.580846
32
0.0
13
95.287434
23
89.480719
33
0.0
39
0.1
210
0.0
220
0.0
230
1.0
0
SOLID
5
118F2
100
AcDbEntity
67
0
8
SHADES
62
39
6
ByLayer
370
-1
48
1.0
60
0
100
AcDbTrace
10
114.546754
20
62.972497
30
0.0
11
123.379473
21
67.828316
31
0.0
12
95.287434
22
89.480719
32
0.0
13
102.635064
23
96.380592
33
0.0
39
0.1
210
0.0
220
0.0
230
1.0
0
SOLID
5
118F3
100
AcDbEntity
67
0
8
SHADES
62
48
6
ByLayer
370
-1
48
1.0
60
0
100
AcDbTrace
10
29.158766
20
27.381862
30
0.0
11
36.506396
21
34.281735
31
0.0
12
21.433098
22
33.773101
32
0.0
13
26.833959
23
42.283483
33
0.0
39
0.1
210
0.0
220
0.0
230
1.0
0
SOLID
5
118F4
100
AcDbEntity
67
0
8
SHADES
62
46
6
ByLayer
370
-1
48
1.0
60
0
100
AcDbTrace
10
36.506396
20
34.281735
30
0.0
11
43.854026
21
41.181608
31
0.0
12
26.833959
22
42.283483
32
0.0
13
32.234821
23
50.793865
33
0.0
39
0.1
210
0.0
220
0.0
230
1.0
0
SOLID
5
118F5
100
AcDbEntity
67
0
8
SHADES
62
44
6
ByLayer
370
-1
48
1.0
60
0
100
AcDbTrace
10
43.854026
20
41.181608
30
0.0
11
51.201655
21
48.081481
31
0.0
12
32.234821
22
50.793865
32
0.0
13
37.635683
23
59.304247
33
0.0
39
0.1
210
0.0
220
0.0
230
1.0
0
SOLID
5
118F6
100
AcDbEntity
67
0
8
SHADES
62
42
6
ByLayer
370
-1
48
1.0
60
0
100
AcDbTrace
10
51.201655
20
48.081481
30
0.0
11
58.549285
21
54.981354
31
0.0
12
37.635683
22
59.304247
32
0.0
13
43.036545
23
67.814629
33
0.0
39
0.1
210
0.0
220
0.0
230
1.0
0
SOLID
5
118F7
100
AcDbEntity
67
0
8
SHADES
62
40
6
ByLayer
370
-1
48
1.0
60
0
100
AcDbTrace
10
58.549285
20
54.981354
30
0.0
11
65.896915
21
61.881227
31
0.0
12
43.036545
22
67.814629
32
0.0
13
48.437407
23
76.325011
33
0.0
39
0.1
210
0.0
220
0.0
230
1.0
0
SOLID
5
118F8
100
AcDbEntity
67
0
8
SHADES
62
41
6
ByLayer
370
-1
48
1.0
60
0
100
AcDbTrace
10
65.896915
20
61.881227
30
0.0
11
73.244545
21
68.7811
31
0.0
12
48.437407
22
76.325011
32
0.0
13
53.838269
23
84.835393
33
0.0
39
0.1
210
0.0
220
0.0
230
1.0
0
SOLID
5
118F9
100
AcDbEntity
67
0
8
SHADES
62
43
6
ByLayer
370
-1
48
1.0
60
0
100
AcDbTrace
10
73.244545
20
68.7811
30
0.0
11
80.592174
21
75.680973
31
0.0
12
53.838269
22
84.835393
32
0.0
13
59.23913
23
93.345775
33
0.0
39
0.1
210
0.0
220
0.0
230
1.0
0
SOLID
5
118FA
100
AcDbEntity
67
0
8
SHADES
62
45
6
ByLayer
370
-1
48
1.0
60
0
100
AcDbTrace
10
80.592174
20
75.680973
30
0.0
11
87.939804
21
82.580846
31
0.0
12
59.23913
22
93.345775
32
0.0
13
64.639992
23
101.856157
33
0.0
39
0.1
210
0.0
220
0.0
230
1.0
0
SOLID
5
118FB
100
AcDbEntity
67
0
8
SHADES
62
47
6
ByLayer
370
-1
48
1.0
60
0
100
AcDbTrace
10
87.939804
20
82.580846
30
0.0
11
95.287434
21
89.480719
31
0.0
12
64.639992
22
101.856157
32
0.0
13
70.040854
23
110.366539
33
0.0
39
0.1
210
0.0
220
0.0
230
1.0
0
SOLID
5
118FC
100
AcDbEntity
67
0
8
SHADES
62
49
6
ByLayer
370
-1
48
1.0
60
0
100
AcDbTrace
10
95.287434
20
89.480719
30
0.0
11
102.635064
21
96.380592
31
0.0
12
70.040854
22
110.366539
32
0.0
13
75.441716
23
118.876921
33
0.0
39
0.1
210
0.0
220
0.0
230
1.0
0
SOLID
5
118FD
100
AcDbEntity
67
0
8
SHADES
62
58
6
ByLayer
370
-1
48
1.0
60
0
100
AcDbTrace
10
21.433098
20
33.773101
30
0.0
11
26.833959
21
42.283483
31
0.0
12
12.360709
22
38.042251
32
0.0
13
15.475447
23
47.628404
33
0.0
39
0.1
210
0.0
220
0.0
230
1.0
0
SOLID
5
118FE
100
AcDbEntity
67
0
8
SHADES
62
56
6
ByLayer
370
-1
48
1.0
60
0
100
AcDbTrace
10
26.833959
20
42.283483
30
0.0
11
32.234821
21
50.793865
31
0.0
12
15.475447
22
47.628404
32
0.0
13
18.590185
23
57.214556
33
0.0
39
0.1
210
0.0
220
0.0
230
1.0
0
SOLID
5
118FF
100
AcDbEntity
67
0
8
SHADES
62
54
6
ByLayer
370
-1
48
1.0
60
0
100
AcDbTrace
10
32.234821
20
50.793865
30
0.0
11
37.635683
21
59.304247
31
0.0
12
18.590185
22
57.214556
32
0.0
13
21.704922
23
66.800709
33
0.0
39
0.1
210
0.0
220
0.0
230
1.0
0
SOLID
5
11900
100
AcDbEntity
67
0
8
SHADES
62
52
6
ByLayer
370
-1
48
1.0
60
0
100
AcDbTrace
10
37.635683
20
59.304247
30
0.0
11
43.036545
21
67.814629
31
0.0
12
21.704922
22
66.800709
32
0.0
13
24.81966
23
76.386861
33
0.0
39
0.1
210
0.0
220
0.0
230
1.0
0
SOLID
5
11901
100
AcDbEntity
67
0
8
SHADES
62
50
6
ByLayer
370
-1
48
1.0
60
0
100
AcDbTrace
10
43.036545
20
67.814629
30
0.0
11
48.437407
21
76.325011
31
0.0
12
24.81966
22
76.386861
32
0.0
13
27.934398
23
85.973014
33
0.0
39
0.1
210
0.0
220
0.0
230
1.0
0
SOLID
5
11902
100
AcDbEntity
67
0
8
SHADES
62
51
6
ByLayer
370
-1
48
1.0
60
0
100
AcDbTrace
10
48.437407
20
76.325011
30
0.0
11
53.838269
21
84.835393
31
0.0
12
27.934398
22
85.973014
32
0.0
13
31.049136
23
95.559166
33
0.0
39
0.1
210
0.0
220
0.0
230
1.0
0
SOLID
5
11903
100
AcDbEntity
67
0
8
SHADES
62
53
6
ByLayer
370
-1
48
1.0
60
0
100
AcDbTrace
10
53.838269
20
84.835393
30
0.0
11
59.23913
21
93.345775
31
0.0
12
31.049136
22
95.559166
32
0.0
13
34.163874
23
105.145319
33
0.0
39
0.1
210
0.0
220
0.0
230
1.0
0
SOLID
5
11904
100
AcDbEntity
67
0
8
SHADES
62
55
6
ByLayer
370
-1
48
1.0
60
0
100
AcDbTrace
10
59.23913
20
93.345775
30
0.0
11
64.639992
21
101.856157
31
0.0
12
34.163874
22
105.145319
32
0.0
13
37.278612
23
114.731471
33
0.0
39
0.1
210
0.0
220
0.0
230
1.0
0
SOLID
5
11905
100
AcDbEntity
67
0
8
SHADES
62
57
6
ByLayer
370
-1
48
1.0
60
0
100
AcDbTrace
10
64.639992
20
101.856157
30
0.0
11
70.040854
21
110.366539
31
0.0
12
37.278612
22
114.731471
32
0.0
13
40.39335
23
124.317623
33
0.0
39
0.1
210
0.0
220
0.0
230
1.0
0
SOLID
5
11906
100
AcDbEntity
67
0
8
SHADES
62
59
6
ByLayer
370
-1
48
1.0
60
0
100
AcDbTrace
10
70.040854
20
110.366539
30
0.0
11
75.441716
21
118.876921
31
0.0
12
40.39335
22
124.317623
32
0.0
13
43.508087
23
133.903776
33
0.0
39
0.1
210
0.0
220
0.0
230
1.0
0
SOLID
5
11907
100
AcDbEntity
67
0
8
SHADES
62
68
6
ByLayer
370
-1
48
1.0
60
0
100
AcDbTrace
10
12.360709
20
38.042251
30
0.0
11
15.475447
21
47.628404
31
0.0
12
2.511651
22
39.921067
32
0.0
13
3.144555
23
49.980657
33
0.0
39
0.1
210
0.0
220
0.0
230
1.0
0
SOLID
5
11908
100
AcDbEntity
67
0
8
SHADES
62
66
6
ByLayer
370
-1
48
1.0
60
0
100
AcDbTrace
10
15.475447
20
47.628404
30
0.0
11
18.590185
21
57.214556
31
0.0
12
3.144555
22
49.980657
32
0.0
13
3.777458
23
60.040247
33
0.0
39
0.1
210
0.0
220
0.0
230
1.0
0
SOLID
5
11909
100
AcDbEntity
67
0
8
SHADES
62
64
6
ByLayer
370
-1
48
1.0
60
0
100
AcDbTrace
10
18.590185
20
57.214556
30
0.0
11
21.704922
21
66.800709
31
0.0
12
3.777458
22
60.040247
32
0.0
13
4.410362
23
70.099836
33
0.0
39
0.1
210
0.0
220
0.0
230
1.0
0
SOLID
5
1190A
100
AcDbEntity
67
0
8
SHADES
62
62
6
ByLayer
370
-1
48
1.0
60
0
100
AcDbTrace
10
21.704922
20
66.800709
30
0.0
11
24.81966
21
76.386861
31
0.0
12
4.410362
22
70.099836
32
0.0
13
5.043265
23
80.159426
33
0.0
39
0.1
210
0.0
220
0.0
230
1.0
0
SOLID
5
1190B
100
AcDbEntity
67
0
8
SHADES
62
60
6
ByLayer
370
-1
48
1.0
60
0
100
AcDbTrace
10
24.81966
20
76.386861
30
0.0
11
27.934398
21
85.973014
31
0.0
12
5.043265
22
80.159426
32
0.0
13
5.676169
23
90.219016
33
0.0
39
0.1
210
0.0
220
0.0
230
1.0
0
SOLID
5
1190C
100
AcDbEntity
67
0
8
SHADES
62
61
6
ByLayer
370
-1
48
1.0
60
0
100
AcDbTrace
10
27.934398
20
85.973014
30
0.0
11
31.049136
21
95.559166
31
0.0
12
5.676169
22
90.219016
32
0.0
13
6.309072
23
100.278605
33
0.0
39
0.1
210
0.0
220
0.0
230
1.0
0
SOLID
5
1190D
100
AcDbEntity
67
0
8
SHADES
62
63
6
ByLayer
370
-1
48
1.0
60
0
100
AcDbTrace
10
31.049136
20
95.559166
30
0.0
11
34.163874
21
105.145319
31
0.0
12
6.309072
22
100.278605
32
0.0
13
6.941976
23
110.338195
33
0.0
39
0.1
210
0.0
220
0.0
230
1.0
0
SOLID
5
1190E
100
AcDbEntity
67
0
8
SHADES
62
65
6
ByLayer
370
-1
48
1.0
60
0
100
AcDbTrace
10
34.163874
20
105.145319
30
0.0
11
37.278612
21
114.731471
31
0.0
12
6.941976
22
110.338195
32
0.0
13
7.574879
23
120.397785
33
0.0
39
0.1
210
0.0
220
0.0
230
1.0
0
SOLID
5
1190F
100
AcDbEntity
67
0
8
SHADES
62
67
6
ByLayer
370
-1
48
1.0
60
0
100
AcDbTrace
10
37.278612
20
114.731471
30
0.0
11
40.39335
21
124.317623
31
0.0
12
7.574879
22
120.397785
32
0.0
13
8.207782
23
130.457374
33
0.0
39
0.1
210
0.0
220
0.0
230
1.0
0
SOLID
5
11910
100
AcDbEntity
67
0
8
SHADES
62
69
6
ByLayer
370
-1
48
1.0
60
0
100
AcDbTrace
10
40.39335
20
124.317623
30
0.0
11
43.508087
21
133.903776
31
0.0
12
8.207782
22
130.457374
32
0.0
13
8.840686
23
140.516964
33
0.0
39
0.1
210
0.0
220
0.0
230
1.0
0
SOLID
5
11911
100
AcDbEntity
67
0
8
SHADES
62
78
6
ByLayer
370
-1
48
1.0
60
0
100
AcDbTrace
10
2.511651
20
39.921067
30
0.0
11
3.144555
21
49.980657
31
0.0
12
-7.495223
22
39.291496
32
0.0
13
-9.383921
23
49.192442
33
0.0
39
0.1
210
0.0
220
0.0
230
1.0
0
SOLID
5
11912
100
AcDbEntity
67
0
8
SHADES
62
76
6
ByLayer
370
-1
48
1.0
60
0
100
AcDbTrace
10
3.144555
20
49.980657
30
0.0
11
3.777458
21
60.040247
31
0.0
12
-9.383921
22
49.192442
32
0.0
13
-11.27262
23
59.093387
33
0.0
39
0.1
210
0.0
220
0.0
230
1.0
0
SOLID
5
11913
100
AcDbEntity
67
0
8
SHADES
62
74
6
ByLayer
370
-1
48
1.0
60
0
100
AcDbTrace
10
3.777458
20
60.040247
30
0.0
11
4.410362
21
70.099836
31
0.0
12
-11.27262
22
59.093387
32
0.0
13
-13.161318
23
68.994333
33
0.0
39
0.1
210
0.0
220
0.0
230
1.0
0
SOLID
5
11914
100
AcDbEntity
67
0
8
SHADES
62
72
6
ByLayer
370
-1
48
1.0
60
0
100
AcDbTrace
10
4.410362
20
70.099836
30
0.0
11
5.043265
21
80.159426
31
0.0
12
-13.161318
22
68.994333
32
0.0
13
-15.050017
23
78.895279
33
0.0
39
0.1
210
0.0
220
0.0
230
1.0
0
SOLID
5
11915
100
AcDbEntity
67
0
8
SHADES
62
70
6
ByLayer
370
-1
48
1.0
60
0
100
AcDbTrace
10
5.043265
20
80.159426
30
0.0
11
5.676169
21
90.219016
31
0.0
12
-15.050017
22
78.895279
32
0.0
13
-16.938715
23
88.796225
33
0.0
39
0.1
210
0.0
220
0.0
230
1.0
0
SOLID
5
11916
100
AcDbEntity
67
0
8
SHADES
62
71
6
ByLayer
370
-1
48
1.0
60
0
100
AcDbTrace
10
5.676169
20
90.219016
30
0.0
11
6.309072
21
100.278605
31
0.0
12
-16.938715
22
88.796225
32
0.0
13
-18.827414
23
98.697171
33
0.0
39
0.1
210
0.0
220
0.0
230
1.0
0
SOLID
5
11917
100
AcDbEntity
67
0
8
SHADES
62
73
6
ByLayer
370
-1
48
1.0
60
0
100
AcDbTrace
10
6.309072
20
100.278605
30
0.0
11
6.941976
21
110.338195
31
0.0
12
-18.827414
22
98.697171
32
0.0
13
-20.716113
23
108.598117
33
0.0
39
0.1
210
0.0
220
0.0
230
1.0
0
SOLID
5
11918
100
AcDbEntity
67
0
8
SHADES
62
75
6
ByLayer
370
-1
48
1.0
60
0
100
AcDbTrace
10
6.941976
20
110.338195
30
0.0
11
7.574879
21
120.397785
31
0.0
12
-20.716113
22
108.598117
32
0.0
13
-22.604811
23
118.499063
33
0.0
39
0.1
210
0.0
220
0.0
230
1.0
0
SOLID
5
11919
100
AcDbEntity
67
0
8
SHADES
62
77
6
ByLayer
370
-1
48
1.0
60
0
100
AcDbTrace
10
7.574879
20
120.397785
30
0.0
11
8.207782
21
130.457374
31
0.0
12
-22.604811
22
118.499063
32
0.0
13
-24.49351
23
128.400008
33
0.0
39
0.1
210
0.0
220
0.0
230
1.0
0
SOLID
5
1191A
100
AcDbEntity
67
0
8
SHADES
62
79
6
ByLayer
370
-1
48
1.0
60
0
100
AcDbTrace
10
8.207782
20
130.457374
30
0.0
11
8.840686
21
140.516964
31
0.0
12
-24.49351
22
128.400008
32
0.0
13
-26.382208
23
138.300954
33
0.0
39
0.1
210
0.0
220
0.0
230
1.0
0
SOLID
5
1191B
100
AcDbEntity
67
0
8
SHADES
62
88
6
ByLayer
370
-1
48
1.0
60
0
100
AcDbTrace
10
-7.495223
20
39.291496
30
0.0
11
-9.383921
21
49.192442
31
0.0
12
-17.031144
22
36.193095
32
0.0
13
-21.322771
23
45.313284
33
0.0
39
0.1
210
0.0
220
0.0
230
1.0
0
SOLID
5
1191C
100
AcDbEntity
67
0
8
SHADES
62
86
6
ByLayer
370
-1
48
1.0
60
0
100
AcDbTrace
10
-9.383921
20
49.192442
30
0.0
11
-11.27262
21
59.093387
31
0.0
12
-21.322771
22
45.313284
32
0.0
13
-25.614397
23
54.433474
33
0.0
39
0.1
210
0.0
220
0.0
230
1.0
0
SOLID
5
1191D
100
AcDbEntity
67
0
8
SHADES
62
84
6
ByLayer
370
-1
48
1.0
60
0
100
AcDbTrace
10
-11.27262
20
59.093387
30
0.0
11
-13.161318
21
68.994333
31
0.0
12
-25.614397
22
54.433474
32
0.0
13
-29.906024
23
63.553663
33
0.0
39
0.1
210
0.0
220
0.0
230
1.0
0
SOLID
5
1191E
100
AcDbEntity
67
0
8
SHADES
62
82
6
ByLayer
370
-1
48
1.0
60
0
100
AcDbTrace
10
-13.161318
20
68.994333
30
0.0
11
-15.050017
21
78.895279
31
0.0
12
-29.906024
22
63.553663
32
0.0
13
-34.197651
23
72.673852
33
0.0
39
0.1
210
0.0
220
0.0
230
1.0
0
SOLID
5
1191F
100
AcDbEntity
67
0
8
SHADES
62
80
6
ByLayer
370
-1
48
1.0
60
0
100
AcDbTrace
10
-15.050017
20
78.895279
30
0.0
11
-16.938715
21
88.796225
31
0.0
12
-34.197651
22
72.673852
32
0.0
13
-38.489278
23
81.794041
33
0.0
39
0.1
210
0.0
220
0.0
230
1.0
0
SOLID
5
11920
100
AcDbEntity
67
0
8
SHADES
62
81
6
ByLayer
370
-1
48
1.0
60
0
100
AcDbTrace
10
-16.938715
20
88.796225
30
0.0
11
-18.827414
21
98.697171
31
0.0
12
-38.489278
22
81.794041
32
0.0
13
-42.780905
23
90.91423
33
0.0
39
0.1
210
0.0
220
0.0
230
1.0
0
SOLID
5
11921
100
AcDbEntity
67
0
8
SHADES
62
83
6
ByLayer
370
-1
48
1.0
60
0
100
AcDbTrace
10
-18.827414
20
98.697171
30
0.0
11
-20.716113
21
108.598117
31
0.0
12
-42.780905
22
90.91423
32
0.0
13
-47.072531
23
100.03442
33
0.0
39
0.1
210
0.0
220
0.0
230
1.0
0
SOLID
5
11922
100
AcDbEntity
67
0
8
SHADES
62
85
6
ByLayer
370
-1
48
1.0
60
0
100
AcDbTrace
10
-20.716113
20
108.598117
30
0.0
11
-22.604811
21
118.499063
31
0.0
12
-47.072531
22
100.03442
32
0.0
13
-51.364158
23
109.154609
33
0.0
39
0.1
210
0.0
220
0.0
230
1.0
0
SOLID
5
11923
100
AcDbEntity
67
0
8
SHADES
62
87
6
ByLayer
370
-1
48
1.0
60
0
100
AcDbTrace
10
-22.604811
20
118.499063
30
0.0
11
-24.49351
21
128.400008
31
0.0
12
-51.364158
22
109.154609
32
0.0
13
-55.655785
23
118.274798
33
0.0
39
0.1
210
0.0
220
0.0
230
1.0
0
SOLID
5
11924
100
AcDbEntity
67
0
8
SHADES
62
89
6
ByLayer
370
-1
48
1.0
60
0
100
AcDbTrace
10
-24.49351
20
128.400008
30
0.0
11
-26.382208
21
138.300954
31
0.0
12
-55.655785
22
118.274798
32
0.0
13
-59.947412
23
127.394987
33
0.0
39
0.1
210
0.0
220
0.0
230
1.0
0
SOLID
5
11925
100
AcDbEntity
67
0
8
SHADES
62
98
6
ByLayer
370
-1
48
1.0
60
0
100
AcDbTrace
10
-17.031144
20
36.193095
30
0.0
11
-21.322771
21
45.313284
31
0.0
12
-25.496936
22
30.820549
32
0.0
13
-31.921832
23
38.586927
33
0.0
39
0.1
210
0.0
220
0.0
230
1.0
0
SOLID
5
11926
100
AcDbEntity
67
0
8
SHADES
62
96
6
ByLayer
370
-1
48
1.0
60
0
100
AcDbTrace
10
-21.322771
20
45.313284
30
0.0
11
-25.614397
21
54.433474
31
0.0
12
-31.921832
22
38.586927
32
0.0
13
-38.346728
23
46.353304
33
0.0
39
0.1
210
0.0
220
0.0
230
1.0
0
SOLID
5
11927
100
AcDbEntity
67
0
8
SHADES
62
94
6
ByLayer
370
-1
48
1.0
60
0
100
AcDbTrace
10
-25.614397
20
54.433474
30
0.0
11
-29.906024
21
63.553663
31
0.0
12
-38.346728
22
46.353304
32
0.0
13
-44.771625
23
54.119682
33
0.0
39
0.1
210
0.0
220
0.0
230
1.0
0
SOLID
5
11928
100
AcDbEntity
67
0
8
SHADES
62
92
6
ByLayer
370
-1
48
1.0
60
0
100
AcDbTrace
10
-29.906024
20
63.553663
30
0.0
11
-34.197651
21
72.673852
31
0.0
12
-44.771625
22
54.119682
32
0.0
13
-51.196521
23
61.886059
33
0.0
39
0.1
210
0.0
220
0.0
230
1.0
0
SOLID
5
11929
100
AcDbEntity
67
0
8
SHADES
62
90
6
ByLayer
370
-1
48
1.0
60
0
100
AcDbTrace
10
-34.197651
20
72.673852
30
0.0
11
-38.489278
21
81.794041
31
0.0
12
-51.196521
22
61.886059
32
0.0
13
-57.621417
23
69.652437
33
0.0
39
0.1
210
0.0
220
0.0
230
1.0
0
SOLID
5
1192A
100
AcDbEntity
67
0
8
SHADES
62
91
6
ByLayer
370
-1
48
1.0
60
0
100
AcDbTrace
10
-38.489278
20
81.794041
30
0.0
11
-42.780905
21
90.91423
31
0.0
12
-57.621417
22
69.652437
32
0.0
13
-64.046313
23
77.418814
33
0.0
39
0.1
210
0.0
220
0.0
230
1.0
0
SOLID
5
1192B
100
AcDbEntity
67
0
8
SHADES
62
93
6
ByLayer
370
-1
48
1.0
60
0
100
AcDbTrace
10
-42.780905
20
90.91423
30
0.0
11
-47.072531
21
100.03442
31
0.0
12
-64.046313
22
77.418814
32
0.0
13
-70.47121
23
85.185192
33
0.0
39
0.1
210
0.0
220
0.0
230
1.0
0
SOLID
5
1192C
100
AcDbEntity
67
0
8
SHADES
62
95
6
ByLayer
370
-1
48
1.0
60
0
100
AcDbTrace
10
-47.072531
20
100.03442
30
0.0
11
-51.364158
21
109.154609
31
0.0
12
-70.47121
22
85.185192
32
0.0
13
-76.896106
23
92.951569
33
0.0
39
0.1
210
0.0
220
0.0
230
1.0
0
SOLID
5
1192D
100
AcDbEntity
67
0
8
SHADES
62
97
6
ByLayer
370
-1
48
1.0
60
0
100
AcDbTrace
10
-51.364158
20
109.154609
30
0.0
11
-55.655785
21
118.274798
31
0.0
12
-76.896106
22
92.951569
32
0.0
13
-83.321002
23
100.717947
33
0.0
39
0.1
210
0.0
220
0.0
230
1.0
0
SOLID
5
1192E
100
AcDbEntity
67
0
8
SHADES
62
99
6
ByLayer
370
-1
48
1.0
60
0
100
AcDbTrace
10
-55.655785
20
118.274798
30
0.0
11
-59.947412
21
127.394987
31
0.0
12
-83.321002
22
100.717947
32
0.0
13
-89.745898
23
108.484324
33
0.0
39
0.1
210
0.0
220
0.0
230
1.0
0
SOLID
5
1192F
100
AcDbEntity
67
0
8
SHADES
62
108
6
ByLayer
370
-1
48
1.0
60
0
100
AcDbTrace
10
-25.496936
20
30.820549
30
0.0
11
-31.921832
21
38.586927
31
0.0
12
-32.360662
22
23.511435
32
0.0
13
-40.515128
23
29.436011
33
0.0
39
0.1
210
0.0
220
0.0
230
1.0
0
SOLID
5
11930
100
AcDbEntity
67
0
8
SHADES
62
106
6
ByLayer
370
-1
48
1.0
60
0
100
AcDbTrace
10
-31.921832
20
38.586927
30
0.0
11
-38.346728
21
46.353304
31
0.0
12
-40.515128
22
29.436011
32
0.0
13
-48.669593
23
35.360586
33
0.0
39
0.1
210
0.0
220
0.0
230
1.0
0
SOLID
5
11931
100
AcDbEntity
67
0
8
SHADES
62
104
6
ByLayer
370
-1
48
1.0
60
0
100
AcDbTrace
10
-38.346728
20
46.353304
30
0.0
11
-44.771625
21
54.119682
31
0.0
12
-48.669593
22
35.360586
32
0.0
13
-56.824059
23
41.285162
33
0.0
39
0.1
210
0.0
220
0.0
230
1.0
0
SOLID
5
11932
100
AcDbEntity
67
0
8
SHADES
62
102
6
ByLayer
370
-1
48
1.0
60
0
100
AcDbTrace
10
-44.771625
20
54.119682
30
0.0
11
-51.196521
21
61.886059
31
0.0
12
-56.824059
22
41.285162
32
0.0
13
-64.978525
23
47.209738
33
0.0
39
0.1
210
0.0
220
0.0
230
1.0
0
SOLID
5
11933
100
AcDbEntity
67
0
8
SHADES
62
100
6
ByLayer
370
-1
48
1.0
60
0
100
AcDbTrace
10
-51.196521
20
61.886059
30
0.0
11
-57.621417
21
69.652437
31
0.0
12
-64.978525
22
47.209738
32
0.0
13
-73.132991
23
53.134314
33
0.0
39
0.1
210
0.0
220
0.0
230
1.0
0
SOLID
5
11934
100
AcDbEntity
67
0
8
SHADES
62
101
6
ByLayer
370
-1
48
1.0
60
0
100
AcDbTrace
10
-57.621417
20
69.652437
30
0.0
11
-64.046313
21
77.418814
31
0.0
12
-73.132991
22
53.134314
32
0.0
13
-81.287457
23
59.058889
33
0.0
39
0.1
210
0.0
220
0.0
230
1.0
0
SOLID
5
11935
100
AcDbEntity
67
0
8
SHADES
62
103
6
ByLayer
370
-1
48
1.0
60
0
100
AcDbTrace
10
-64.046313
20
77.418814
30
0.0
11
-70.47121
21
85.185192
31
0.0
12
-81.287457
22
59.058889
32
0.0
13
-89.441923
23
64.983465
33
0.0
39
0.1
210
0.0
220
0.0
230
1.0
0
SOLID
5
11936
100
AcDbEntity
67
0
8
SHADES
62
105
6
ByLayer
370
-1
48
1.0
60
0
100
AcDbTrace
10
-70.47121
20
85.185192
30
0.0
11
-76.896106
21
92.951569
31
0.0
12
-89.441923
22
64.983465
32
0.0
13
-97.596389
23
70.908041
33
0.0
39
0.1
210
0.0
220
0.0
230
1.0
0
SOLID
5
11937
100
AcDbEntity
67
0
8
SHADES
62
107
6
ByLayer
370
-1
48
1.0
60
0
100
AcDbTrace
10
-76.896106
20
92.951569
30
0.0
11
-83.321002
21
100.717947
31
0.0
12
-97.596389
22
70.908041
32
0.0
13
-105.750854
23
76.832617
33
0.0
39
0.1
210
0.0
220
0.0
230
1.0
0
SOLID
5
11938
100
AcDbEntity
67
0
8
SHADES
62
109
6
ByLayer
370
-1
48
1.0
60
0
100
AcDbTrace
10
-83.321002
20
100.717947
30
0.0
11
-89.745898
21
108.484324
31
0.0
12
-105.750854
22
76.832617
32
0.0
13
-113.90532
23
82.757192
33
0.0
39
0.1
210
0.0
220
0.0
230
1.0
0
SOLID
5
11939
100
AcDbEntity
67
0
8
SHADES
62
118
6
ByLayer
370
-1
48
1.0
60
0
100
AcDbTrace
10
-32.360662
20
23.511435
30
0.0
11
-40.515128
21
29.436011
31
0.0
12
-37.191048
22
14.725011
32
0.0
13
-46.562709
23
18.435522
33
0.0
39
0.1
210
0.0
220
0.0
230
1.0
0
SOLID
5
1193A
100
AcDbEntity
67
0
8
SHADES
62
116
6
ByLayer
370
-1
48
1.0
60
0
100
AcDbTrace
10
-40.515128
20
29.436011
30
0.0
11
-48.669593
21
35.360586
31
0.0
12
-46.562709
22
18.435522
32
0.0
13
-55.934369
23
22.146033
33
0.0
39
0.1
210
0.0
220
0.0
230
1.0
0
SOLID
5
1193B
100
AcDbEntity
67
0
8
SHADES
62
114
6
ByLayer
370
-1
48
1.0
60
0
100
AcDbTrace
10
-48.669593
20
35.360586
30
0.0
11
-56.824059
21
41.285162
31
0.0
12
-55.934369
22
22.146033
32
0.0
13
-65.306029
23
25.856544
33
0.0
39
0.1
210
0.0
220
0.0
230
1.0
0
SOLID
5
1193C
100
AcDbEntity
67
0
8
SHADES
62
112
6
ByLayer
370
-1
48
1.0
60
0
100
AcDbTrace
10
-56.824059
20
41.285162
30
0.0
11
-64.978525
21
47.209738
31
0.0
12
-65.306029
22
25.856544
32
0.0
13
-74.67769
23
29.567055
33
0.0
39
0.1
210
0.0
220
0.0
230
1.0
0
SOLID
5
1193D
100
AcDbEntity
67
0
8
SHADES
62
110
6
ByLayer
370
-1
48
1.0
60
0
100
AcDbTrace
10
-64.978525
20
47.209738
30
0.0
11
-73.132991
21
53.134314
31
0.0
12
-74.67769
22
29.567055
32
0.0
13
-84.04935
23
33.277566
33
0.0
39
0.1
210
0.0
220
0.0
230
1.0
0
SOLID
5
1193E
100
AcDbEntity
67
0
8
SHADES
62
111
6
ByLayer
370
-1
48
1.0
60
0
100
AcDbTrace
10
-73.132991
20
53.134314
30
0.0
11
-81.287457
21
59.058889
31
0.0
12
-84.04935
22
33.277566
32
0.0
13
-93.42101
23
36.988077
33
0.0
39
0.1
210
0.0
220
0.0
230
1.0
0
SOLID
5
1193F
100
AcDbEntity
67
0
8
SHADES
62
113
6
ByLayer
370
-1
48
1.0
60
0
100
AcDbTrace
10
-81.287457
20
59.058889
30
0.0
11
-89.441923
21
64.983465
31
0.0
12
-93.42101
22
36.988077
32
0.0
13
-102.792671
23
40.698588
33
0.0
39
0.1
210
0.0
220
0.0
230
1.0
0
SOLID
5
11940
100
AcDbEntity
67
0
8
SHADES
62
115
6
ByLayer
370
-1
48
1.0
60
0
100
AcDbTrace
10
-89.441923
20
64.983465
30
0.0
11
-97.596389
21
70.908041
31
0.0
12
-102.792671
22
40.698588
32
0.0
13
-112.164331
23
44.4091
33
0.0
39
0.1
210
0.0
220
0.0
230
1.0
0
SOLID
5
11941
100
AcDbEntity
67
0
8
SHADES
62
117
6
ByLayer
370
-1
48
1.0
60
0
100
AcDbTrace
10
-97.596389
20
70.908041
30
0.0
11
-105.750854
21
76.832617
31
0.0
12
-112.164331
22
44.4091
32
0.0
13
-121.535992
23
48.119611
33
0.0
39
0.1
210
0.0
220
0.0
230
1.0
0
SOLID
5
11942
100
AcDbEntity
67
0
8
SHADES
62
119
6
ByLayer
370
-1
48
1.0
60
0
100
AcDbTrace
10
-105.750854
20
76.832617
30
0.0
11
-113.90532
21
82.757192
31
0.0
12
-121.535992
22
48.119611
32
0.0
13
-130.907652
23
51.830122
33
0.0
39
0.1
210
0.0
220
0.0
230
1.0
0
SOLID
5
11943
100
AcDbEntity
67
0
8
SHADES
62
128
6
ByLayer
370
-1
48
1.0
60
0
100
AcDbTrace
10
-37.191048
20
14.725011
30
0.0
11
-46.562709
21
18.435522
31
0.0
12
-39.684584
22
5.01336
32
0.0
13
-49.684583
23
6.276661
33
0.0
39
0.1
210
0.0
220
0.0
230
1.0
0
SOLID
5
11944
100
AcDbEntity
67
0
8
SHADES
62
126
6
ByLayer
370
-1
48
1.0
60
0
100
AcDbTrace
10
-46.562709
20
18.435522
30
0.0
11
-55.934369
21
22.146033
31
0.0
12
-49.684583
22
6.276661
32
0.0
13
-59.684582
23
7.539963
33
0.0
39
0.1
210
0.0
220
0.0
230
1.0
0
SOLID
5
11945
100
AcDbEntity
67
0
8
SHADES
62
124
6
ByLayer
370
-1
48
1.0
60
0
100
AcDbTrace
10
-55.934369
20
22.146033
30
0.0
11
-65.306029
21
25.856544
31
0.0
12
-59.684582
22
7.539963
32
0.0
13
-69.684581
23
8.803264
33
0.0
39
0.1
210
0.0
220
0.0
230
1.0
0
SOLID
5
11946
100
AcDbEntity
67
0
8
SHADES
62
122
6
ByLayer
370
-1
48
1.0
60
0
100
AcDbTrace
10
-65.306029
20
25.856544
30
0.0
11
-74.67769
21
29.567055
31
0.0
12
-69.684581
22
8.803264
32
0.0
13
-79.68458
23
10.066565
33
0.0
39
0.1
210
0.0
220
0.0
230
1.0
0
SOLID
5
11947
100
AcDbEntity
67
0
8
SHADES
62
120
6
ByLayer
370
-1
48
1.0
60
0
100
AcDbTrace
10
-74.67769
20
29.567055
30
0.0
11
-84.04935
21
33.277566
31
0.0
12
-79.68458
22
10.066565
32
0.0
13
-89.684579
23
11.329867
33
0.0
39
0.1
210
0.0
220
0.0
230
1.0
0
SOLID
5
11948
100
AcDbEntity
67
0
8
SHADES
62
121
6
ByLayer
370
-1
48
1.0
60
0
100
AcDbTrace
10
-84.04935
20
33.277566
30
0.0
11
-93.42101
21
36.988077
31
0.0
12
-89.684579
22
11.329867
32
0.0
13
-99.684578
23
12.593168
33
0.0
39
0.1
210
0.0
220
0.0
230
1.0
0
SOLID
5
11949
100
AcDbEntity
67
0
8
SHADES
62
123
6
ByLayer
370
-1
48
1.0
60
0
100
AcDbTrace
10
-93.42101
20
36.988077
30
0.0
11
-102.792671
21
40.698588
31
0.0
12
-99.684578
22
12.593168
32
0.0
13
-109.684577
23
13.85647
33
0.0
39
0.1
210
0.0
220
0.0
230
1.0
0
SOLID
5
1194A
100
AcDbEntity
67
0
8
SHADES
62
125
6
ByLayer
370
-1
48
1.0
60
0
100
AcDbTrace
10
-102.792671
20
40.698588
30
0.0
11
-112.164331
21
44.4091
31
0.0
12
-109.684577
22
13.85647
32
0.0
13
-119.684576
23
15.119771
33
0.0
39
0.1
210
0.0
220
0.0
230
1.0
0
SOLID
5
1194B
100
AcDbEntity
67
0
8
SHADES
62
127
6
ByLayer
370
-1
48
1.0
60
0
100
AcDbTrace
10
-112.164331
20
44.4091
30
0.0
11
-121.535992
21
48.119611
31
0.0
12
-119.684576
22
15.119771
32
0.0
13
-129.684576
23
16.383073
33
0.0
39
0.1
210
0.0
220
0.0
230
1.0
0
SOLID
5
1194C
100
AcDbEntity
67
0
8
SHADES
62
129
6
ByLayer
370
-1
48
1.0
60
0
100
AcDbTrace
10
-121.535992
20
48.119611
30
0.0
11
-130.907652
21
51.830122
31
0.0
12
-129.684576
22
16.383073
32
0.0
13
-139.684575
23
17.646374
33
0.0
39
0.1
210
0.0
220
0.0
230
1.0
0
SOLID
5
1194D
100
AcDbEntity
67
0
8
SHADES
62
138
6
ByLayer
370
-1
48
1.0
60
0
100
AcDbTrace
10
-39.684584
20
5.01336
30
0.0
11
-49.684583
21
6.276661
31
0.0
12
-39.684592
22
-5.013299
32
0.0
13
-49.684593
23
-6.276585
33
0.0
39
0.1
210
0.0
220
0.0
230
1.0
0
SOLID
5
1194E
100
AcDbEntity
67
0
8
SHADES
62
136
6
ByLayer
370
-1
48
1.0
60
0
100
AcDbTrace
10
-49.684583
20
6.276661
30
0.0
11
-59.684582
21
7.539963
31
0.0
12
-49.684593
22
-6.276585
32
0.0
13
-59.684594
23
-7.539871
33
0.0
39
0.1
210
0.0
220
0.0
230
1.0
0
SOLID
5
1194F
100
AcDbEntity
67
0
8
SHADES
62
134
6
ByLayer
370
-1
48
1.0
60
0
100
AcDbTrace
10
-59.684582
20
7.539963
30
0.0
11
-69.684581
21
8.803264
31
0.0
12
-59.684594
22
-7.539871
32
0.0
13
-69.684595
23
-8.803157
33
0.0
39
0.1
210
0.0
220
0.0
230
1.0
0
SOLID
5
11950
100
AcDbEntity
67
0
8
SHADES
62
132
6
ByLayer
370
-1
48
1.0
60
0
100
AcDbTrace
10
-69.684581
20
8.803264
30
0.0
11
-79.68458
21
10.066565
31
0.0
12
-69.684595
22
-8.803157
32
0.0
13
-79.684596
23
-10.066444
33
0.0
39
0.1
210
0.0
220
0.0
230
1.0
0
SOLID
5
11951
100
AcDbEntity
67
0
8
SHADES
62
130
6
ByLayer
370
-1
48
1.0
60
0
100
AcDbTrace
10
-79.68458
20
10.066565
30
0.0
11
-89.684579
21
11.329867
31
0.0
12
-79.684596
22
-10.066444
32
0.0
13
-89.684597
23
-11.32973
33
0.0
39
0.1
210
0.0
220
0.0
230
1.0
0
SOLID
5
11952
100
AcDbEntity
67
0
8
SHADES
62
131
6
ByLayer
370
-1
48
1.0
60
0
100
AcDbTrace
10
-89.684579
20
11.329867
30
0.0
11
-99.684578
21
12.593168
31
0.0
12
-89.684597
22
-11.32973
32
0.0
13
-99.684598
23
-12.593016
33
0.0
39
0.1
210
0.0
220
0.0
230
1.0
0
SOLID
5
11953
100
AcDbEntity
67
0
8
SHADES
62
133
6
ByLayer
370
-1
48
1.0
60
0
100
AcDbTrace
10
-99.684578
20
12.593168
30
0.0
11
-109.684577
21
13.85647
31
0.0
12
-99.684598
22
-12.593016
32
0.0
13
-109.684599
23
-13.856302
33
0.0
39
0.1
210
0.0
220
0.0
230
1.0
0
SOLID
5
11954
100
AcDbEntity
67
0
8
SHADES
62
135
6
ByLayer
370
-1
48
1.0
60
0
100
AcDbTrace
10
-109.684577
20
13.85647
30
0.0
11
-119.684576
21
15.119771
31
0.0
12
-109.684599
22
-13.856302
32
0.0
13
-119.6846
23
-15.119588
33
0.0
39
0.1
210
0.0
220
0.0
230
1.0
0
SOLID
5
11955
100
AcDbEntity
67
0
8
SHADES
62
137
6
ByLayer
370
-1
48
1.0
60
0
100
AcDbTrace
10
-119.684576
20
15.119771
30
0.0
11
-129.684576
21
16.383073
31
0.0
12
-119.6846
22
-15.119588
32
0.0
13
-129.684601
23
-16.382874
33
0.0
39
0.1
210
0.0
220
0.0
230
1.0
0
SOLID
5
11956
100
AcDbEntity
67
0
8
SHADES
62
139
6
ByLayer
370
-1
48
1.0
60
0
100
AcDbTrace
10
-129.684576
20
16.383073
30
0.0
11
-139.684575
21
17.646374
31
0.0
12
-129.684601
22
-16.382874
32
0.0
13
-139.684602
23
-17.64616
33
0.0
39
0.1
210
0.0
220
0.0
230
1.0
0
SOLID
5
11957
100
AcDbEntity
67
0
8
SHADES
62
148
6
ByLayer
370
-1
48
1.0
60
0
100
AcDbTrace
10
-39.684592
20
-5.013299
30
0.0
11
-49.684593
21
-6.276585
31
0.0
12
-37.191071
22
-14.724954
32
0.0
13
-46.562737
23
-18.43545
33
0.0
39
0.1
210
0.0
220
0.0
230
1.0
0
SOLID
5
11958
100
AcDbEntity
67
0
8
SHADES
62
146
6
ByLayer
370
-1
48
1.0
60
0
100
AcDbTrace
10
-49.684593
20
-6.276585
30
0.0
11
-59.684594
21
-7.539871
31
0.0
12
-46.562737
22
-18.43545
32
0.0
13
-55.934403
23
-22.145947
33
0.0
39
0.1
210
0.0
220
0.0
230
1.0
0
SOLID
5
11959
100
AcDbEntity
67
0
8
SHADES
62
144
6
ByLayer
370
-1
48
1.0
60
0
100
AcDbTrace
10
-59.684594
20
-7.539871
30
0.0
11
-69.684595
21
-8.803157
31
0.0
12
-55.934403
22
-22.145947
32
0.0
13
-65.306069
23
-25.856444
33
0.0
39
0.1
210
0.0
220
0.0
230
1.0
0
SOLID
5
1195A
100
AcDbEntity
67
0
8
SHADES
62
142
6
ByLayer
370
-1
48
1.0
60
0
100
AcDbTrace
10
-69.684595
20
-8.803157
30
0.0
11
-79.684596
21
-10.066444
31
0.0
12
-65.306069
22
-25.856444
32
0.0
13
-74.677735
23
-29.566941
33
0.0
39
0.1
210
0.0
220
0.0
230
1.0
0
SOLID
5
1195B
100
AcDbEntity
67
0
8
SHADES
62
140
6
ByLayer
370
-1
48
1.0
60
0
100
AcDbTrace
10
-79.684596
20
-10.066444
30
0.0
11
-89.684597
21
-11.32973
31
0.0
12
-74.677735
22
-29.566941
32
0.0
13
-84.049401
23
-33.277438
33
0.0
39
0.1
210
0.0
220
0.0
230
1.0
0
SOLID
5
1195C
100
AcDbEntity
67
0
8
SHADES
62
141
6
ByLayer
370
-1
48
1.0
60
0
100
AcDbTrace
10
-89.684597
20
-11.32973
30
0.0
11
-99.684598
21
-12.593016
31
0.0
12
-84.049401
22
-33.277438
32
0.0
13
-93.421067
23
-36.987934
33
0.0
39
0.1
210
0.0
220
0.0
230
1.0
0
SOLID
5
1195D
100
AcDbEntity
67
0
8
SHADES
62
143
6
ByLayer
370
-1
48
1.0
60
0
100
AcDbTrace
10
-99.684598
20
-12.593016
30
0.0
11
-109.684599
21
-13.856302
31
0.0
12
-93.421067
22
-36.987934
32
0.0
13
-102.792733
23
-40.698431
33
0.0
39
0.1
210
0.0
220
0.0
230
1.0
0
SOLID
5
1195E
100
AcDbEntity
67
0
8
SHADES
62
145
6
ByLayer
370
-1
48
1.0
60
0
100
AcDbTrace
10
-109.684599
20
-13.856302
30
0.0
11
-119.6846
21
-15.119588
31
0.0
12
-102.792733
22
-40.698431
32
0.0
13
-112.164399
23
-44.408928
33
0.0
39
0.1
210
0.0
220
0.0
230
1.0
0
SOLID
5
1195F
100
AcDbEntity
67
0
8
SHADES
62
147
6
ByLayer
370
-1
48
1.0
60
0
100
AcDbTrace
10
-119.6846
20
-15.119588
30
0.0
11
-129.684601
21
-16.382874
31
0.0
12
-112.164399
22
-44.408928
32
0.0
13
-121.536065
23
-48.119425
33
0.0
39
0.1
210
0.0
220
0.0
230
1.0
0
SOLID
5
11960
100
AcDbEntity
67
0
8
SHADES
62
149
6
ByLayer
370
-1
48
1.0
60
0
100
AcDbTrace
10
-129.684601
20
-16.382874
30
0.0
11
-139.684602
21
-17.64616
31
0.0
12
-121.536065
22
-48.119425
32
0.0
13
-130.907731
23
-51.829922
33
0.0
39
0.1
210
0.0
220
0.0
230
1.0
0
SOLID
5
11961
100
AcDbEntity
67
0
8
SHADES
62
158
6
ByLayer
370
-1
48
1.0
60
0
100
AcDbTrace
10
-37.191071
20
-14.724954
30
0.0
11
-46.562737
21
-18.43545
31
0.0
12
-32.360698
22
-23.511385
32
0.0
13
-40.515173
23
-29.435949
33
0.0
39
0.1
210
0.0
220
0.0
230
1.0
0
SOLID
5
11962
100
AcDbEntity
67
0
8
SHADES
62
156
6
ByLayer
370
-1
48
1.0
60
0
100
AcDbTrace
10
-46.562737
20
-18.43545
30
0.0
11
-55.934403
21
-22.145947
31
0.0
12
-40.515173
22
-29.435949
32
0.0
13
-48.669648
23
-35.360512
33
0.0
39
0.1
210
0.0
220
0.0
230
1.0
0
SOLID
5
11963
100
AcDbEntity
67
0
8
SHADES
62
154
6
ByLayer
370
-1
48
1.0
60
0
100
AcDbTrace
10
-55.934403
20
-22.145947
30
0.0
11
-65.306069
21
-25.856444
31
0.0
12
-48.669648
22
-35.360512
32
0.0
13
-56.824122
23
-41.285075
33
0.0
39
0.1
210
0.0
220
0.0
230
1.0
0
SOLID
5
11964
100
AcDbEntity
67
0
8
SHADES
62
152
6
ByLayer
370
-1
48
1.0
60
0
100
AcDbTrace
10
-65.306069
20
-25.856444
30
0.0
11
-74.677735
21
-29.566941
31
0.0
12
-56.824122
22
-41.285075
32
0.0
13
-64.978597
23
-47.209638
33
0.0
39
0.1
210
0.0
220
0.0
230
1.0
0
SOLID
5
11965
100
AcDbEntity
67
0
8
SHADES
62
150
6
ByLayer
370
-1
48
1.0
60
0
100
AcDbTrace
10
-74.677735
20
-29.566941
30
0.0
11
-84.049401
21
-33.277438
31
0.0
12
-64.978597
22
-47.209638
32
0.0
13
-73.133072
23
-53.134202
33
0.0
39
0.1
210
0.0
220
0.0
230
1.0
0
SOLID
5
11966
100
AcDbEntity
67
0
8
SHADES
62
151
6
ByLayer
370
-1
48
1.0
60
0
100
AcDbTrace
10
-84.049401
20
-33.277438
30
0.0
11
-93.421067
21
-36.987934
31
0.0
12
-73.133072
22
-53.134202
32
0.0
13
-81.287547
23
-59.058765
33
0.0
39
0.1
210
0.0
220
0.0
230
1.0
0
SOLID
5
11967
100
AcDbEntity
67
0
8
SHADES
62
153
6
ByLayer
370
-1
48
1.0
60
0
100
AcDbTrace
10
-93.421067
20
-36.987934
30
0.0
11
-102.792733
21
-40.698431
31
0.0
12
-81.287547
22
-59.058765
32
0.0
13
-89.442022
23
-64.983328
33
0.0
39
0.1
210
0.0
220
0.0
230
1.0
0
SOLID
5
11968
100
AcDbEntity
67
0
8
SHADES
62
155
6
ByLayer
370
-1
48
1.0
60
0
100
AcDbTrace
10
-102.792733
20
-40.698431
30
0.0
11
-112.164399
21
-44.408928
31
0.0
12
-89.442022
22
-64.983328
32
0.0
13
-97.596497
23
-70.907892
33
0.0
39
0.1
210
0.0
220
0.0
230
1.0
0
SOLID
5
11969
100
AcDbEntity
67
0
8
SHADES
62
157
6
ByLayer
370
-1
48
1.0
60
0
100
AcDbTrace
10
-112.164399
20
-44.408928
30
0.0
11
-121.536065
21
-48.119425
31
0.0
12
-97.596497
22
-70.907892
32
0.0
13
-105.750972
23
-76.832455
33
0.0
39
0.1
210
0.0
220
0.0
230
1.0
0
SOLID
5
1196A
100
AcDbEntity
67
0
8
SHADES
62
159
6
ByLayer
370
-1
48
1.0
60
0
100
AcDbTrace
10
-121.536065
20
-48.119425
30
0.0
11
-130.907731
21
-51.829922
31
0.0
12
-105.750972
22
-76.832455
32
0.0
13
-113.905447
23
-82.757018
33
0.0
39
0.1
210
0.0
220
0.0
230
1.0
0
SOLID
5
1196B
100
AcDbEntity
67
0
8
SHADES
62
168
6
ByLayer
370
-1
48
1.0
60
0
100
AcDbTrace
10
-32.360698
20
-23.511385
30
0.0
11
-40.515173
21
-29.435949
31
0.0
12
-25.496983
22
-30.82051
32
0.0
13
-31.921891
23
-38.586878
33
0.0
39
0.1
210
0.0
220
0.0
230
1.0
0
SOLID
5
1196C
100
AcDbEntity
67
0
8
SHADES
62
166
6
ByLayer
370
-1
48
1.0
60
0
100
AcDbTrace
10
-40.515173
20
-29.435949
30
0.0
11
-48.669648
21
-35.360512
31
0.0
12
-31.921891
22
-38.586878
32
0.0
13
-38.346799
23
-46.353246
33
0.0
39
0.1
210
0.0
220
0.0
230
1.0
0
SOLID
5
1196D
100
AcDbEntity
67
0
8
SHADES
62
164
6
ByLayer
370
-1
48
1.0
60
0
100
AcDbTrace
10
-48.669648
20
-35.360512
30
0.0
11
-56.824122
21
-41.285075
31
0.0
12
-38.346799
22
-46.353246
32
0.0
13
-44.771707
23
-54.119613
33
0.0
39
0.1
210
0.0
220
0.0
230
1.0
0
SOLID
5
1196E
100
AcDbEntity
67
0
8
SHADES
62
162
6
ByLayer
370
-1
48
1.0
60
0
100
AcDbTrace
10
-56.824122
20
-41.285075
30
0.0
11
-64.978597
21
-47.209638
31
0.0
12
-44.771707
22
-54.119613
32
0.0
13
-51.196616
23
-61.885981
33
0.0
39
0.1
210
0.0
220
0.0
230
1.0
0
SOLID
5
1196F
100
AcDbEntity
67
0
8
SHADES
62
160
6
ByLayer
370
-1
48
1.0
60
0
100
AcDbTrace
10
-64.978597
20
-47.209638
30
0.0
11
-73.133072
21
-53.134202
31
0.0
12
-51.196616
22
-61.885981
32
0.0
13
-57.621524
23
-69.652349
33
0.0
39
0.1
210
0.0
220
0.0
230
1.0
0
SOLID
5
11970
100
AcDbEntity
67
0
8
SHADES
62
161
6
ByLayer
370
-1
48
1.0
60
0
100
AcDbTrace
10
-73.133072
20
-53.134202
30
0.0
11
-81.287547
21
-59.058765
31
0.0
12
-57.621524
22
-69.652349
32
0.0
13
-64.046432
23
-77.418716
33
0.0
39
0.1
210
0.0
220
0.0
230
1.0
0
SOLID
5
11971
100
AcDbEntity
67
0
8
SHADES
62
163
6
ByLayer
370
-1
48
1.0
60
0
100
AcDbTrace
10
-81.287547
20
-59.058765
30
0.0
11
-89.442022
21
-64.983328
31
0.0
12
-64.046432
22
-77.418716
32
0.0
13
-70.47134
23
-85.185084
33
0.0
39
0.1
210
0.0
220
0.0
230
1.0
0
SOLID
5
11972
100
AcDbEntity
67
0
8
SHADES
62
165
6
ByLayer
370
-1
48
1.0
60
0
100
AcDbTrace
10
-89.442022
20
-64.983328
30
0.0
11
-97.596497
21
-70.907892
31
0.0
12
-70.47134
22
-85.185084
32
0.0
13
-76.896248
23
-92.951452
33
0.0
39
0.1
210
0.0
220
0.0
230
1.0
0
SOLID
5
11973
100
AcDbEntity
67
0
8
SHADES
62
167
6
ByLayer
370
-1
48
1.0
60
0
100
AcDbTrace
10
-97.596497
20
-70.907892
30
0.0
11
-105.750972
21
-76.832455
31
0.0
12
-76.896248
22
-92.951452
32
0.0
13
-83.321156
23
-100.717819
33
0.0
39
0.1
210
0.0
220
0.0
230
1.0
0
SOLID
5
11974
100
AcDbEntity
67
0
8
SHADES
62
169
6
ByLayer
370
-1
48
1.0
60
0
100
AcDbTrace
10
-105.750972
20
-76.832455
30
0.0
11
-113.905447
21
-82.757018
31
0.0
12
-83.321156
22
-100.717819
32
0.0
13
-89.746064
23
-108.484187
33
0.0
39
0.1
210
0.0
220
0.0
230
1.0
0
SOLID
5
11975
100
AcDbEntity
67
0
8
SHADES
62
178
6
ByLayer
370
-1
48
1.0
60
0
100
AcDbTrace
10
-25.496983
20
-30.82051
30
0.0
11
-31.921891
21
-38.586878
31
0.0
12
-17.031199
22
-36.193069
32
0.0
13
-21.32284
23
-45.313252
33
0.0
39
0.1
210
0.0
220
0.0
230
1.0
0
SOLID
5
11976
100
AcDbEntity
67
0
8
SHADES
62
176
6
ByLayer
370
-1
48
1.0
60
0
100
AcDbTrace
10
-31.921891
20
-38.586878
30
0.0
11
-38.346799
21
-46.353246
31
0.0
12
-21.32284
22
-45.313252
32
0.0
13
-25.614481
23
-54.433434
33
0.0
39
0.1
210
0.0
220
0.0
230
1.0
0
SOLID
5
11977
100
AcDbEntity
67
0
8
SHADES
62
174
6
ByLayer
370
-1
48
1.0
60
0
100
AcDbTrace
10
-38.346799
20
-46.353246
30
0.0
11
-44.771707
21
-54.119613
31
0.0
12
-25.614481
22
-54.433434
32
0.0
13
-29.906121
23
-63.553617
33
0.0
39
0.1
210
0.0
220
0.0
230
1.0
0
SOLID
5
11978
100
AcDbEntity
67
0
8
SHADES
62
172
6
ByLayer
370
-1
48
1.0
60
0
100
AcDbTrace
10
-44.771707
20
-54.119613
30
0.0
11
-51.196616
21
-61.885981
31
0.0
12
-29.906121
22
-63.553617
32
0.0
13
-34.197762
23
-72.6738
33
0.0
39
0.1
210
0.0
220
0.0
230
1.0
0
SOLID
5
11979
100
AcDbEntity
67
0
8
SHADES
62
170
6
ByLayer
370
-1
48
1.0
60
0
100
AcDbTrace
10
-51.196616
20
-61.885981
30
0.0
11
-57.621524
21
-69.652349
31
0.0
12
-34.197762
22
-72.6738
32
0.0
13
-38.489403
23
-81.793982
33
0.0
39
0.1
210
0.0
220
0.0
230
1.0
0
SOLID
5
1197A
100
AcDbEntity
67
0
8
SHADES
62
171
6
ByLayer
370
-1
48
1.0
60
0
100
AcDbTrace
10
-57.621524
20
-69.652349
30
0.0
11
-64.046432
21
-77.418716
31
0.0
12
-38.489403
22
-81.793982
32
0.0
13
-42.781044
23
-90.914165
33
0.0
39
0.1
210
0.0
220
0.0
230
1.0
0
SOLID
5
1197B
100
AcDbEntity
67
0
8
SHADES
62
173
6
ByLayer
370
-1
48
1.0
60
0
100
AcDbTrace
10
-64.046432
20
-77.418716
30
0.0
11
-70.47134
21
-85.185084
31
0.0
12
-42.781044
22
-90.914165
32
0.0
13
-47.072684
23
-100.034347
33
0.0
39
0.1
210
0.0
220
0.0
230
1.0
0
SOLID
5
1197C
100
AcDbEntity
67
0
8
SHADES
62
175
6
ByLayer
370
-1
48
1.0
60
0
100
AcDbTrace
10
-70.47134
20
-85.185084
30
0.0
11
-76.896248
21
-92.951452
31
0.0
12
-47.072684
22
-100.034347
32
0.0
13
-51.364325
23
-109.15453
33
0.0
39
0.1
210
0.0
220
0.0
230
1.0
0
SOLID
5
1197D
100
AcDbEntity
67
0
8
SHADES
62
177
6
ByLayer
370
-1
48
1.0
60
0
100
AcDbTrace
10
-76.896248
20
-92.951452
30
0.0
11
-83.321156
21
-100.717819
31
0.0
12
-51.364325
22
-109.15453
32
0.0
13
-55.655966
23
-118.274713
33
0.0
39
0.1
210
0.0
220
0.0
230
1.0
0
SOLID
5
1197E
100
AcDbEntity
67
0
8
SHADES
62
179
6
ByLayer
370
-1
48
1.0
60
0
100
AcDbTrace
10
-83.321156
20
-100.717819
30
0.0
11
-89.746064
21
-108.484187
31
0.0
12
-55.655966
22
-118.274713
32
0.0
13
-59.947606
23
-127.394895
33
0.0
39
0.1
210
0.0
220
0.0
230
1.0
0
SOLID
5
1197F
100
AcDbEntity
67
0
8
SHADES
62
188
6
ByLayer
370
-1
48
1.0
60
0
100
AcDbTrace
10
-17.031199
20
-36.193069
30
0.0
11
-21.32284
21
-45.313252
31
0.0
12
-7.495283
22
-39.291484
32
0.0
13
-9.383996
23
-49.192427
33
0.0
39
0.1
210
0.0
220
0.0
230
1.0
0
SOLID
5
11980
100
AcDbEntity
67
0
8
SHADES
62
186
6
ByLayer
370
-1
48
1.0
60
0
100
AcDbTrace
10
-21.32284
20
-45.313252
30
0.0
11
-25.614481
21
-54.433434
31
0.0
12
-9.383996
22
-49.192427
32
0.0
13
-11.27271
23
-59.09337
33
0.0
39
0.1
210
0.0
220
0.0
230
1.0
0
SOLID
5
11981
100
AcDbEntity
67
0
8
SHADES
62
184
6
ByLayer
370
-1
48
1.0
60
0
100
AcDbTrace
10
-25.614481
20
-54.433434
30
0.0
11
-29.906121
21
-63.553617
31
0.0
12
-11.27271
22
-59.09337
32
0.0
13
-13.161424
23
-68.994313
33
0.0
39
0.1
210
0.0
220
0.0
230
1.0
0
SOLID
5
11982
100
AcDbEntity
67
0
8
SHADES
62
182
6
ByLayer
370
-1
48
1.0
60
0
100
AcDbTrace
10
-29.906121
20
-63.553617
30
0.0
11
-34.197762
21
-72.6738
31
0.0
12
-13.161424
22
-68.994313
32
0.0
13
-15.050138
23
-78.895256
33
0.0
39
0.1
210
0.0
220
0.0
230
1.0
0
SOLID
5
11983
100
AcDbEntity
67
0
8
SHADES
62
180
6
ByLayer
370
-1
48
1.0
60
0
100
AcDbTrace
10
-34.197762
20
-72.6738
30
0.0
11
-38.489403
21
-81.793982
31
0.0
12
-15.050138
22
-78.895256
32
0.0
13
-16.938851
23
-88.796199
33
0.0
39
0.1
210
0.0
220
0.0
230
1.0
0
SOLID
5
11984
100
AcDbEntity
67
0
8
SHADES
62
181
6
ByLayer
370
-1
48
1.0
60
0
100
AcDbTrace
10
-38.489403
20
-81.793982
30
0.0
11
-42.781044
21
-90.914165
31
0.0
12
-16.938851
22
-88.796199
32
0.0
13
-18.827565
23
-98.697142
33
0.0
39
0.1
210
0.0
220
0.0
230
1.0
0
SOLID
5
11985
100
AcDbEntity
67
0
8
SHADES
62
183
6
ByLayer
370
-1
48
1.0
60
0
100
AcDbTrace
10
-42.781044
20
-90.914165
30
0.0
11
-47.072684
21
-100.034347
31
0.0
12
-18.827565
22
-98.697142
32
0.0
13
-20.716279
23
-108.598085
33
0.0
39
0.1
210
0.0
220
0.0
230
1.0
0
SOLID
5
11986
100
AcDbEntity
67
0
8
SHADES
62
185
6
ByLayer
370
-1
48
1.0
60
0
100
AcDbTrace
10
-47.072684
20
-100.034347
30
0.0
11
-51.364325
21
-109.15453
31
0.0
12
-20.716279
22
-108.598085
32
0.0
13
-22.604992
23
-118.499028
33
0.0
39
0.1
210
0.0
220
0.0
230
1.0
0
SOLID
5
11987
100
AcDbEntity
67
0
8
SHADES
62
187
6
ByLayer
370
-1
48
1.0
60
0
100
AcDbTrace
10
-51.364325
20
-109.15453
30
0.0
11
-55.655966
21
-118.274713
31
0.0
12
-22.604992
22
-118.499028
32
0.0
13
-24.493706
23
-128.399971
33
0.0
39
0.1
210
0.0
220
0.0
230
1.0
0
SOLID
5
11988
100
AcDbEntity
67
0
8
SHADES
62
189
6
ByLayer
370
-1
48
1.0
60
0
100
AcDbTrace
10
-55.655966
20
-118.274713
30
0.0
11
-59.947606
21
-127.394895
31
0.0
12
-24.493706
22
-128.399971
32
0.0
13
-26.38242
23
-138.300914
33
0.0
39
0.1
210
0.0
220
0.0
230
1.0
0
SOLID
5
11989
100
AcDbEntity
67
0
8
SHADES
62
198
6
ByLayer
370
-1
48
1.0
60
0
100
AcDbTrace
10
-7.495283
20
-39.291484
30
0.0
11
-9.383996
21
-49.192427
31
0.0
12
2.51159
22
-39.921071
32
0.0
13
3.144478
23
-49.980662
33
0.0
39
0.1
210
0.0
220
0.0
230
1.0
0
SOLID
5
1198A
100
AcDbEntity
67
0
8
SHADES
62
196
6
ByLayer
370
-1
48
1.0
60
0
100
AcDbTrace
10
-9.383996
20
-49.192427
30
0.0
11
-11.27271
21
-59.09337
31
0.0
12
3.144478
22
-49.980662
32
0.0
13
3.777366
23
-60.040252
33
0.0
39
0.1
210
0.0
220
0.0
230
1.0
0
SOLID
5
1198B
100
AcDbEntity
67
0
8
SHADES
62
194
6
ByLayer
370
-1
48
1.0
60
0
100
AcDbTrace
10
-11.27271
20
-59.09337
30
0.0
11
-13.161424
21
-68.994313
31
0.0
12
3.777366
22
-60.040252
32
0.0
13
4.410254
23
-70.099843
33
0.0
39
0.1
210
0.0
220
0.0
230
1.0
0
SOLID
5
1198C
100
AcDbEntity
67
0
8
SHADES
62
192
6
ByLayer
370
-1
48
1.0
60
0
100
AcDbTrace
10
-13.161424
20
-68.994313
30
0.0
11
-15.050138
21
-78.895256
31
0.0
12
4.410254
22
-70.099843
32
0.0
13
5.043143
23
-80.159434
33
0.0
39
0.1
210
0.0
220
0.0
230
1.0
0
SOLID
5
1198D
100
AcDbEntity
67
0
8
SHADES
62
190
6
ByLayer
370
-1
48
1.0
60
0
100
AcDbTrace
10
-15.050138
20
-78.895256
30
0.0
11
-16.938851
21
-88.796199
31
0.0
12
5.043143
22
-80.159434
32
0.0
13
5.676031
23
-90.219024
33
0.0
39
0.1
210
0.0
220
0.0
230
1.0
0
SOLID
5
1198E
100
AcDbEntity
67
0
8
SHADES
62
191
6
ByLayer
370
-1
48
1.0
60
0
100
AcDbTrace
10
-16.938851
20
-88.796199
30
0.0
11
-18.827565
21
-98.697142
31
0.0
12
5.676031
22
-90.219024
32
0.0
13
6.308919
23
-100.278615
33
0.0
39
0.1
210
0.0
220
0.0
230
1.0
0
SOLID
5
1198F
100
AcDbEntity
67
0
8
SHADES
62
193
6
ByLayer
370
-1
48
1.0
60
0
100
AcDbTrace
10
-18.827565
20
-98.697142
30
0.0
11
-20.716279
21
-108.598085
31
0.0
12
6.308919
22
-100.278615
32
0.0
13
6.941807
23
-110.338206
33
0.0
39
0.1
210
0.0
220
0.0
230
1.0
0
SOLID
5
11990
100
AcDbEntity
67
0
8
SHADES
62
195
6
ByLayer
370
-1
48
1.0
60
0
100
AcDbTrace
10
-20.716279
20
-108.598085
30
0.0
11
-22.604992
21
-118.499028
31
0.0
12
6.941807
22
-110.338206
32
0.0
13
7.574695
23
-120.397796
33
0.0
39
0.1
210
0.0
220
0.0
230
1.0
0
SOLID
5
11991
100
AcDbEntity
67
0
8
SHADES
62
197
6
ByLayer
370
-1
48
1.0
60
0
100
AcDbTrace
10
-22.604992
20
-118.499028
30
0.0
11
-24.493706
21
-128.399971
31
0.0
12
7.574695
22
-120.397796
32
0.0
13
8.207583
23
-130.457387
33
0.0
39
0.1
210
0.0
220
0.0
230
1.0
0
SOLID
5
11992
100
AcDbEntity
67
0
8
SHADES
62
199
6
ByLayer
370
-1
48
1.0
60
0
100
AcDbTrace
10
-24.493706
20
-128.399971
30
0.0
11
-26.38242
21
-138.300914
31
0.0
12
8.207583
22
-130.457387
32
0.0
13
8.840471
23
-140.516977
33
0.0
39
0.1
210
0.0
220
0.0
230
1.0
0
SOLID
5
11993
100
AcDbEntity
67
0
8
SHADES
62
208
6
ByLayer
370
-1
48
1.0
60
0
100
AcDbTrace
10
2.51159
20
-39.921071
30
0.0
11
3.144478
21
-49.980662
31
0.0
12
12.360651
22
-38.04227
32
0.0
13
15.475374
23
-47.628427
33
0.0
39
0.1
210
0.0
220
0.0
230
1.0
0
SOLID
5
11994
100
AcDbEntity
67
0
8
SHADES
62
206
6
ByLayer
370
-1
48
1.0
60
0
100
AcDbTrace
10
3.144478
20
-49.980662
30
0.0
11
3.777366
21
-60.040252
31
0.0
12
15.475374
22
-47.628427
32
0.0
13
18.590097
23
-57.214585
33
0.0
39
0.1
210
0.0
220
0.0
230
1.0
0
SOLID
5
11995
100
AcDbEntity
67
0
8
SHADES
62
204
6
ByLayer
370
-1
48
1.0
60
0
100
AcDbTrace
10
3.777366
20
-60.040252
30
0.0
11
4.410254
21
-70.099843
31
0.0
12
18.590097
22
-57.214585
32
0.0
13
21.70482
23
-66.800742
33
0.0
39
0.1
210
0.0
220
0.0
230
1.0
0
SOLID
5
11996
100
AcDbEntity
67
0
8
SHADES
62
202
6
ByLayer
370
-1
48
1.0
60
0
100
AcDbTrace
10
4.410254
20
-70.099843
30
0.0
11
5.043143
21
-80.159434
31
0.0
12
21.70482
22
-66.800742
32
0.0
13
24.819543
23
-76.386899
33
0.0
39
0.1
210
0.0
220
0.0
230
1.0
0
SOLID
5
11997
100
AcDbEntity
67
0
8
SHADES
62
200
6
ByLayer
370
-1
48
1.0
60
0
100
AcDbTrace
10
5.043143
20
-80.159434
30
0.0
11
5.676031
21
-90.219024
31
0.0
12
24.819543
22
-76.386899
32
0.0
13
27.934267
23
-85.973056
33
0.0
39
0.1
210
0.0
220
0.0
230
1.0
0
SOLID
5
11998
100
AcDbEntity
67
0
8
SHADES
62
201
6
ByLayer
370
-1
48
1.0
60
0
100
AcDbTrace
10
5.676031
20
-90.219024
30
0.0
11
6.308919
21
-100.278615
31
0.0
12
27.934267
22
-85.973056
32
0.0
13
31.04899
23
-95.559214
33
0.0
39
0.1
210
0.0
220
0.0
230
1.0
0
SOLID
5
11999
100
AcDbEntity
67
0
8
SHADES
62
203
6
ByLayer
370
-1
48
1.0
60
0
100
AcDbTrace
10
6.308919
20
-100.278615
30
0.0
11
6.941807
21
-110.338206
31
0.0
12
31.04899
22
-95.559214
32
0.0
13
34.163713
23
-105.145371
33
0.0
39
0.1
210
0.0
220
0.0
230
1.0
0
SOLID
5
1199A
100
AcDbEntity
67
0
8
SHADES
62
205
6
ByLayer
370
-1
48
1.0
60
0
100
AcDbTrace
10
6.941807
20
-110.338206
30
0.0
11
7.574695
21
-120.397796
31
0.0
12
34.163713
22
-105.145371
32
0.0
13
37.278436
23
-114.731528
33
0.0
39
0.1
210
0.0
220
0.0
230
1.0
0
SOLID
5
1199B
100
AcDbEntity
67
0
8
SHADES
62
207
6
ByLayer
370
-1
48
1.0
60
0
100
AcDbTrace
10
7.574695
20
-120.397796
30
0.0
11
8.207583
21
-130.457387
31
0.0
12
37.278436
22
-114.731528
32
0.0
13
40.393159
23
-124.317685
33
0.0
39
0.1
210
0.0
220
0.0
230
1.0
0
SOLID
5
1199C
100
AcDbEntity
67
0
8
SHADES
62
209
6
ByLayer
370
-1
48
1.0
60
0
100
AcDbTrace
10
8.207583
20
-130.457387
30
0.0
11
8.840471
21
-140.516977
31
0.0
12
40.393159
22
-124.317685
32
0.0
13
43.507883
23
-133.903843
33
0.0
39
0.1
210
0.0
220
0.0
230
1.0
0
SOLID
5
1199D
100
AcDbEntity
67
0
8
SHADES
62
218
6
ByLayer
370
-1
48
1.0
60
0
100
AcDbTrace
10
12.360651
20
-38.04227
30
0.0
11
15.475374
21
-47.628427
31
0.0
12
21.433046
22
-33.773133
32
0.0
13
26.833895
23
-42.283524
33
0.0
39
0.1
210
0.0
220
0.0
230
1.0
0
SOLID
5
1199E
100
AcDbEntity
67
0
8
SHADES
62
216
6
ByLayer
370
-1
48
1.0
60
0
100
AcDbTrace
10
15.475374
20
-47.628427
30
0.0
11
18.590097
21
-57.214585
31
0.0
12
26.833895
22
-42.283524
32
0.0
13
32.234744
23
-50.793914
33
0.0
39
0.1
210
0.0
220
0.0
230
1.0
0
SOLID
5
1199F
100
AcDbEntity
67
0
8
SHADES
62
214
6
ByLayer
370
-1
48
1.0
60
0
100
AcDbTrace
10
18.590097
20
-57.214585
30
0.0
11
21.70482
21
-66.800742
31
0.0
12
32.234744
22
-50.793914
32
0.0
13
37.635592
23
-59.304304
33
0.0
39
0.1
210
0.0
220
0.0
230
1.0
0
SOLID
5
119A0
100
AcDbEntity
67
0
8
SHADES
62
212
6
ByLayer
370
-1
48
1.0
60
0
100
AcDbTrace
10
21.70482
20
-66.800742
30
0.0
11
24.819543
21
-76.386899
31
0.0
12
37.635592
22
-59.304304
32
0.0
13
43.036441
23
-67.814695
33
0.0
39
0.1
210
0.0
220
0.0
230
1.0
0
SOLID
5
119A1
100
AcDbEntity
67
0
8
SHADES
62
210
6
ByLayer
370
-1
48
1.0
60
0
100
AcDbTrace
10
24.819543
20
-76.386899
30
0.0
11
27.934267
21
-85.973056
31
0.0
12
43.036441
22
-67.814695
32
0.0
13
48.43729
23
-76.325085
33
0.0
39
0.1
210
0.0
220
0.0
230
1.0
0
SOLID
5
119A2
100
AcDbEntity
67
0
8
SHADES
62
211
6
ByLayer
370
-1
48
1.0
60
0
100
AcDbTrace
10
27.934267
20
-85.973056
30
0.0
11
31.04899
21
-95.559214
31
0.0
12
48.43729
22
-76.325085
32
0.0
13
53.838139
23
-84.835475
33
0.0
39
0.1
210
0.0
220
0.0
230
1.0
0
SOLID
5
119A3
100
AcDbEntity
67
0
8
SHADES
62
213
6
ByLayer
370
-1
48
1.0
60
0
100
AcDbTrace
10
31.04899
20
-95.559214
30
0.0
11
34.163713
21
-105.145371
31
0.0
12
53.838139
22
-84.835475
32
0.0
13
59.238988
23
-93.345866
33
0.0
39
0.1
210
0.0
220
0.0
230
1.0
0
SOLID
5
119A4
100
AcDbEntity
67
0
8
SHADES
62
215
6
ByLayer
370
-1
48
1.0
60
0
100
AcDbTrace
10
34.163713
20
-105.145371
30
0.0
11
37.278436
21
-114.731528
31
0.0
12
59.238988
22
-93.345866
32
0.0
13
64.639836
23
-101.856256
33
0.0
39
0.1
210
0.0
220
0.0
230
1.0
0
SOLID
5
119A5
100
AcDbEntity
67
0
8
SHADES
62
217
6
ByLayer
370
-1
48
1.0
60
0
100
AcDbTrace
10
37.278436
20
-114.731528
30
0.0
11
40.393159
21
-124.317685
31
0.0
12
64.639836
22
-101.856256
32
0.0
13
70.040685
23
-110.366646
33
0.0
39
0.1
210
0.0
220
0.0
230
1.0
0
SOLID
5
119A6
100
AcDbEntity
67
0
8
SHADES
62
219
6
ByLayer
370
-1
48
1.0
60
0
100
AcDbTrace
10
40.393159
20
-124.317685
30
0.0
11
43.507883
21
-133.903843
31
0.0
12
70.040685
22
-110.366646
32
0.0
13
75.441534
23
-118.877037
33
0.0
39
0.1
210
0.0
220
0.0
230
1.0
0
SOLID
5
119A7
100
AcDbEntity
67
0
8
SHADES
62
228
6
ByLayer
370
-1
48
1.0
60
0
100
AcDbTrace
10
21.433046
20
-33.773133
30
0.0
11
26.833895
21
-42.283524
31
0.0
12
29.158724
22
-27.381907
32
0.0
13
36.506343
23
-34.281791
33
0.0
39
0.1
210
0.0
220
0.0
230
1.0
0
SOLID
5
119A8
100
AcDbEntity
67
0
8
SHADES
62
226
6
ByLayer
370
-1
48
1.0
60
0
100
AcDbTrace
10
26.833895
20
-42.283524
30
0.0
11
32.234744
21
-50.793914
31
0.0
12
36.506343
22
-34.281791
32
0.0
13
43.853963
23
-41.181675
33
0.0
39
0.1
210
0.0
220
0.0
230
1.0
0
SOLID
5
119A9
100
AcDbEntity
67
0
8
SHADES
62
224
6
ByLayer
370
-1
48
1.0
60
0
100
AcDbTrace
10
32.234744
20
-50.793914
30
0.0
11
37.635592
21
-59.304304
31
0.0
12
43.853963
22
-41.181675
32
0.0
13
51.201582
23
-48.081559
33
0.0
39
0.1
210
0.0
220
0.0
230
1.0
0
SOLID
5
119AA
100
AcDbEntity
67
0
8
SHADES
62
222
6
ByLayer
370
-1
48
1.0
60
0
100
AcDbTrace
10
37.635592
20
-59.304304
30
0.0
11
43.036441
21
-67.814695
31
0.0
12
51.201582
22
-48.081559
32
0.0
13
58.549201
23
-54.981444
33
0.0
39
0.1
210
0.0
220
0.0
230
1.0
0
SOLID
5
119AB
100
AcDbEntity
67
0
8
SHADES
62
220
6
ByLayer
370
-1
48
1.0
60
0
100
AcDbTrace
10
43.036441
20
-67.814695
30
0.0
11
48.43729
21
-76.325085
31
0.0
12
58.549201
22
-54.981444
32
0.0
13
65.89682
23
-61.881328
33
0.0
39
0.1
210
0.0
220
0.0
230
1.0
0
SOLID
5
119AC
100
AcDbEntity
67
0
8
SHADES
62
221
6
ByLayer
370
-1
48
1.0
60
0
100
AcDbTrace
10
48.43729
20
-76.325085
30
0.0
11
53.838139
21
-84.835475
31
0.0
12
65.89682
22
-61.881328
32
0.0
13
73.244439
23
-68.781212
33
0.0
39
0.1
210
0.0
220
0.0
230
1.0
0
SOLID
5
119AD
100
AcDbEntity
67
0
8
SHADES
62
223
6
ByLayer
370
-1
48
1.0
60
0
100
AcDbTrace
10
53.838139
20
-84.835475
30
0.0
11
59.238988
21
-93.345866
31
0.0
12
73.244439
22
-68.781212
32
0.0
13
80.592059
23
-75.681097
33
0.0
39
0.1
210
0.0
220
0.0
230
1.0
0
SOLID
5
119AE
100
AcDbEntity
67
0
8
SHADES
62
225
6
ByLayer
370
-1
48
1.0
60
0
100
AcDbTrace
10
59.238988
20
-93.345866
30
0.0
11
64.639836
21
-101.856256
31
0.0
12
80.592059
22
-75.681097
32
0.0
13
87.939678
23
-82.580981
33
0.0
39
0.1
210
0.0
220
0.0
230
1.0
0
SOLID
5
119AF
100
AcDbEntity
67
0
8
SHADES
62
227
6
ByLayer
370
-1
48
1.0
60
0
100
AcDbTrace
10
64.639836
20
-101.856256
30
0.0
11
70.040685
21
-110.366646
31
0.0
12
87.939678
22
-82.580981
32
0.0
13
95.287297
23
-89.480865
33
0.0
39
0.1
210
0.0
220
0.0
230
1.0
0
SOLID
5
119B0
100
AcDbEntity
67
0
8
SHADES
62
229
6
ByLayer
370
-1
48
1.0
60
0
100
AcDbTrace
10
70.040685
20
-110.366646
30
0.0
11
75.441534
21
-118.877037
31
0.0
12
95.287297
22
-89.480865
32
0.0
13
102.634916
23
-96.380749
33
0.0
39
0.1
210
0.0
220
0.0
230
1.0
0
SOLID
5
119B1
100
AcDbEntity
67
0
8
SHADES
62
238
6
ByLayer
370
-1
48
1.0
60
0
100
AcDbTrace
10
29.158724
20
-27.381907
30
0.0
11
36.506343
21
-34.281791
31
0.0
12
35.052252
22
-19.270174
32
0.0
13
43.884964
23
-24.126007
33
0.0
39
0.1
210
0.0
220
0.0
230
1.0
0
SOLID
5
119B2
100
AcDbEntity
67
0
8
SHADES
62
236
6
ByLayer
370
-1
48
1.0
60
0
100
AcDbTrace
10
36.506343
20
-34.281791
30
0.0
11
43.853963
21
-41.181675
31
0.0
12
43.884964
22
-24.126007
32
0.0
13
52.717676
23
-28.98184
33
0.0
39
0.1
210
0.0
220
0.0
230
1.0
0
SOLID
5
119B3
100
AcDbEntity
67
0
8
SHADES
62
234
6
ByLayer
370
-1
48
1.0
60
0
100
AcDbTrace
10
43.853963
20
-41.181675
30
0.0
11
51.201582
21
-48.081559
31
0.0
12
52.717676
22
-28.98184
32
0.0
13
61.550388
23
-33.837673
33
0.0
39
0.1
210
0.0
220
0.0
230
1.0
0
SOLID
5
119B4
100
AcDbEntity
67
0
8
SHADES
62
232
6
ByLayer
370
-1
48
1.0
60
0
100
AcDbTrace
10
51.201582
20
-48.081559
30
0.0
11
58.549201
21
-54.981444
31
0.0
12
61.550388
22
-33.837673
32
0.0
13
70.383099
23
-38.693506
33
0.0
39
0.1
210
0.0
220
0.0
230
1.0
0
SOLID
5
119B5
100
AcDbEntity
67
0
8
SHADES
62
230
6
ByLayer
370
-1
48
1.0
60
0
100
AcDbTrace
10
58.549201
20
-54.981444
30
0.0
11
65.89682
21
-61.881328
31
0.0
12
70.383099
22
-38.693506
32
0.0
13
79.215811
23
-43.549339
33
0.0
39
0.1
210
0.0
220
0.0
230
1.0
0
SOLID
5
119B6
100
AcDbEntity
67
0
8
SHADES
62
231
6
ByLayer
370
-1
48
1.0
60
0
100
AcDbTrace
10
65.89682
20
-61.881328
30
0.0
11
73.244439
21
-68.781212
31
0.0
12
79.215811
22
-43.549339
32
0.0
13
88.048523
23
-48.405173
33
0.0
39
0.1
210
0.0
220
0.0
230
1.0
0
SOLID
5
119B7
100
AcDbEntity
67
0
8
SHADES
62
233
6
ByLayer
370
-1
48
1.0
60
0
100
AcDbTrace
10
73.244439
20
-68.781212
30
0.0
11
80.592059
21
-75.681097
31
0.0
12
88.048523
22
-48.405173
32
0.0
13
96.881234
23
-53.261006
33
0.0
39
0.1
210
0.0
220
0.0
230
1.0
0
SOLID
5
119B8
100
AcDbEntity
67
0
8
SHADES
62
235
6
ByLayer
370
-1
48
1.0
60
0
100
AcDbTrace
10
80.592059
20
-75.681097
30
0.0
11
87.939678
21
-82.580981
31
0.0
12
96.881234
22
-53.261006
32
0.0
13
105.713946
23
-58.116839
33
0.0
39
0.1
210
0.0
220
0.0
230
1.0
0
SOLID
5
119B9
100
AcDbEntity
67
0
8
SHADES
62
237
6
ByLayer
370
-1
48
1.0
60
0
100
AcDbTrace
10
87.939678
20
-82.580981
30
0.0
11
95.287297
21
-89.480865
31
0.0
12
105.713946
22
-58.116839
32
0.0
13
114.546658
23
-62.972672
33
0.0
39
0.1
210
0.0
220
0.0
230
1.0
0
SOLID
5
119BA
100
AcDbEntity
67
0
8
SHADES
62
239
6
ByLayer
370
-1
48
1.0
60
0
100
AcDbTrace
10
95.287297
20
-89.480865
30
0.0
11
102.634916
21
-96.380749
31
0.0
12
114.546658
22
-62.972672
32
0.0
13
123.379369
23
-67.828505
33
0.0
39
0.1
210
0.0
220
0.0
230
1.0
0
SOLID
5
119BB
100
AcDbEntity
67
0
8
SHADES
62
248
6
ByLayer
370
-1
48
1.0
60
0
100
AcDbTrace
10
35.052252
20
-19.270174
30
0.0
11
43.884964
21
-24.126007
31
0.0
12
38.743319
22
-9.947625
32
0.0
13
48.506131
23
-12.454297
33
0.0
39
0.1
210
0.0
220
0.0
230
1.0
0
SOLID
5
119BC
100
AcDbEntity
67
0
8
SHADES
62
246
6
ByLayer
370
-1
48
1.0
60
0
100
AcDbTrace
10
43.884964
20
-24.126007
30
0.0
11
52.717676
21
-28.98184
31
0.0
12
48.506131
22
-12.454297
32
0.0
13
58.268944
23
-14.960969
33
0.0
39
0.1
210
0.0
220
0.0
230
1.0
0
SOLID
5
119BD
100
AcDbEntity
67
0
8
SHADES
62
244
6
ByLayer
370
-1
48
1.0
60
0
100
AcDbTrace
10
52.717676
20
-28.98184
30
0.0
11
61.550388
21
-33.837673
31
0.0
12
58.268944
22
-14.960969
32
0.0
13
68.031756
23
-17.467642
33
0.0
39
0.1
210
0.0
220
0.0
230
1.0
0
SOLID
5
119BE
100
AcDbEntity
67
0
8
SHADES
62
242
6
ByLayer
370
-1
48
1.0
60
0
100
AcDbTrace
10
61.550388
20
-33.837673
30
0.0
11
70.383099
21
-38.693506
31
0.0
12
68.031756
22
-17.467642
32
0.0
13
77.794568
23
-19.974314
33
0.0
39
0.1
210
0.0
220
0.0
230
1.0
0
SOLID
5
119BF
100
AcDbEntity
67
0
8
SHADES
62
240
6
ByLayer
370
-1
48
1.0
60
0
100
AcDbTrace
10
70.383099
20
-38.693506
30
0.0
11
79.215811
21
-43.549339
31
0.0
12
77.794568
22
-19.974314
32
0.0
13
87.557381
23
-22.480986
33
0.0
39
0.1
210
0.0
220
0.0
230
1.0
0
SOLID
5
119C0
100
AcDbEntity
67
0
8
SHADES
62
241
6
ByLayer
370
-1
48
1.0
60
0
100
AcDbTrace
10
79.215811
20
-43.549339
30
0.0
11
88.048523
21
-48.405173
31
0.0
12
87.557381
22
-22.480986
32
0.0
13
97.320193
23
-24.987658
33
0.0
39
0.1
210
0.0
220
0.0
230
1.0
0
SOLID
5
119C1
100
AcDbEntity
67
0
8
SHADES
62
243
6
ByLayer
370
-1
48
1.0
60
0
100
AcDbTrace
10
88.048523
20
-48.405173
30
0.0
11
96.881234
21
-53.261006
31
0.0
12
97.320193
22
-24.987658
32
0.0
13
107.083006
23
-27.49433
33
0.0
39
0.1
210
0.0
220
0.0
230
1.0
0
SOLID
5
119C2
100
AcDbEntity
67
0
8
SHADES
62
245
6
ByLayer
370
-1
48
1.0
60
0
100
AcDbTrace
10
96.881234
20
-53.261006
30
0.0
11
105.713946
21
-58.116839
31
0.0
12
107.083006
22
-27.49433
32
0.0
13
116.845818
23
-30.001002
33
0.0
39
0.1
210
0.0
220
0.0
230
1.0
0
SOLID
5
119C3
100
AcDbEntity
67
0
8
SHADES
62
247
6
ByLayer
370
-1
48
1.0
60
0
100
AcDbTrace
10
105.713946
20
-58.116839
30
0.0
11
114.546658
21
-62.972672
31
0.0
12
116.845818
22
-30.001002
32
0.0
13
126.60863
23
-32.507674
33
0.0
39
0.1
210
0.0
220
0.0
230
1.0
0
SOLID
5
119C4
100
AcDbEntity
67
0
8
SHADES
62
249
6
ByLayer
370
-1
48
1.0
60
0
100
AcDbTrace
10
114.546658
20
-62.972672
30
0.0
11
123.379369
21
-67.828505
31
0.0
12
126.60863
22
-32.507674
32
0.0
13
136.371443
23
-35.014347
33
0.0
39
0.1
210
0.0
220
0.0
230
1.0
0
LINE
5
119C5
100
AcDbEntity
67
0
8
LINES
62
1
6
ByLayer
370
-1
48
1.0
60
0
100
AcDbLine
10
38.743334
20
9.947566
30
0.0
11
135.832617
21
34.875778
31
0.0
39
0.0
210
0.0
220
0.0
230
1.0
0
LINE
5
119C6
100
AcDbEntity
67
0
8
LINES
62
1
6
ByLayer
370
-1
48
1.0
60
0
100
AcDbLine
10
35.052282
20
19.27012
30
0.0
11
122.891933
21
67.560289
31
0.0
39
0.0
210
0.0
220
0.0
230
1.0
0
LINE
5
119C7
100
AcDbEntity
67
0
8
LINES
62
2
6
ByLayer
370
-1
48
1.0
60
0
100
AcDbLine
10
29.158766
20
27.381862
30
0.0
11
102.229496
21
95.999739
31
0.0
39
0.0
210
0.0
220
0.0
230
1.0
0
LINE
5
119C8
100
AcDbEntity
67
0
8
LINES
62
2
6
ByLayer
370
-1
48
1.0
60
0
100
AcDbLine
10
21.433098
20
33.773101
30
0.0
11
75.143604
21
118.407173
31
0.0
39
0.0
210
0.0
220
0.0
230
1.0
0
LINE
5
119C9
100
AcDbEntity
67
0
8
LINES
62
2
6
ByLayer
370
-1
48
1.0
60
0
100
AcDbLine
10
12.360709
20
38.042251
30
0.0
11
43.336163
21
133.374648
31
0.0
39
0.0
210
0.0
220
0.0
230
1.0
0
LINE
5
119CA
100
AcDbEntity
67
0
8
LINES
62
3
6
ByLayer
370
-1
48
1.0
60
0
100
AcDbLine
10
2.511651
20
39.921067
30
0.0
11
8.805752
21
139.961704
31
0.0
39
0.0
210
0.0
220
0.0
230
1.0
0
LINE
5
119CB
100
AcDbEntity
67
0
8
LINES
62
3
6
ByLayer
370
-1
48
1.0
60
0
100
AcDbLine
10
-7.495223
20
39.291496
30
0.0
11
-26.277958
21
137.754451
31
0.0
39
0.0
210
0.0
220
0.0
230
1.0
0
LINE
5
119CC
100
AcDbEntity
67
0
8
LINES
62
3
6
ByLayer
370
-1
48
1.0
60
0
100
AcDbLine
10
-17.031144
20
36.193095
30
0.0
11
-59.710526
21
126.891579
31
0.0
39
0.0
210
0.0
220
0.0
230
1.0
0
LINE
5
119CD
100
AcDbEntity
67
0
8
LINES
62
3
6
ByLayer
370
-1
48
1.0
60
0
100
AcDbLine
10
-25.496936
20
30.820549
30
0.0
11
-89.391263
21
108.055643
31
0.0
39
0.0
210
0.0
220
0.0
230
1.0
0
LINE
5
119CE
100
AcDbEntity
67
0
8
LINES
62
3
6
ByLayer
370
-1
48
1.0
60
0
100
AcDbLine
10
-32.360662
20
23.511435
30
0.0
11
-113.455217
21
82.430173
31
0.0
39
0.0
210
0.0
220
0.0
230
1.0
0
LINE
5
119CF
100
AcDbEntity
67
0
8
LINES
62
4
6
ByLayer
370
-1
48
1.0
60
0
100
AcDbLine
10
-37.191048
20
14.725011
30
0.0
11
-130.390364
21
51.625312
31
0.0
39
0.0
210
0.0
220
0.0
230
1.0
0
LINE
5
119D0
100
AcDbEntity
67
0
8
LINES
62
4
6
ByLayer
370
-1
48
1.0
60
0
100
AcDbLine
10
-39.684584
20
5.01336
30
0.0
11
-139.132604
21
17.576643
31
0.0
39
0.0
210
0.0
220
0.0
230
1.0
0
LINE
5
119D1
100
AcDbEntity
67
0
8
LINES
62
4
6
ByLayer
370
-1
48
1.0
60
0
100
AcDbLine
10
-39.684592
20
-5.013299
30
0.0
11
-139.132631
21
-17.576431
31
0.0
39
0.0
210
0.0
220
0.0
230
1.0
0
LINE
5
119D2
100
AcDbEntity
67
0
8
LINES
62
5
6
ByLayer
370
-1
48
1.0
60
0
100
AcDbLine
10
-37.191071
20
-14.724954
30
0.0
11
-130.390443
21
-51.625113
31
0.0
39
0.0
210
0.0
220
0.0
230
1.0
0
LINE
5
119D3
100
AcDbEntity
67
0
8
LINES
62
5
6
ByLayer
370
-1
48
1.0
60
0
100
AcDbLine
10
-32.360698
20
-23.511385
30
0.0
11
-113.455344
21
-82.43
31
0.0
39
0.0
210
0.0
220
0.0
230
1.0
0
LINE
5
119D4
100
AcDbEntity
67
0
8
LINES
62
5
6
ByLayer
370
-1
48
1.0
60
0
100
AcDbLine
10
-25.496983
20
-30.82051
30
0.0
11
-89.391428
21
-108.055506
31
0.0
39
0.0
210
0.0
220
0.0
230
1.0
0
LINE
5
119D5
100
AcDbEntity
67
0
8
LINES
62
5
6
ByLayer
370
-1
48
1.0
60
0
100
AcDbLine
10
-17.031199
20
-36.193069
30
0.0
11
-59.71072
21
-126.891488
31
0.0
39
0.0
210
0.0
220
0.0
230
1.0
0
LINE
5
119D6
100
AcDbEntity
67
0
8
LINES
62
5
6
ByLayer
370
-1
48
1.0
60
0
100
AcDbLine
10
-7.495283
20
-39.291484
30
0.0
11
-26.278168
21
-137.754411
31
0.0
39
0.0
210
0.0
220
0.0
230
1.0
0
LINE
5
119D7
100
AcDbEntity
67
0
8
LINES
62
6
6
ByLayer
370
-1
48
1.0
60
0
100
AcDbLine
10
2.51159
20
-39.921071
30
0.0
11
8.805537
21
-139.961717
31
0.0
39
0.0
210
0.0
220
0.0
230
1.0
0
LINE
5
119D8
100
AcDbEntity
67
0
8
LINES
62
6
6
ByLayer
370
-1
48
1.0
60
0
100
AcDbLine
10
12.360651
20
-38.04227
30
0.0
11
43.335959
21
-133.374715
31
0.0
39
0.0
210
0.0
220
0.0
230
1.0
0
LINE
5
119D9
100
AcDbEntity
67
0
8
LINES
62
6
6
ByLayer
370
-1
48
1.0
60
0
100
AcDbLine
10
21.433046
20
-33.773133
30
0.0
11
75.143423
21
-118.407288
31
0.0
39
0.0
210
0.0
220
0.0
230
1.0
0
LINE
5
119DA
100
AcDbEntity
67
0
8
LINES
62
6
6
ByLayer
370
-1
48
1.0
60
0
100
AcDbLine
10
29.158724
20
-27.381907
30
0.0
11
102.229349
21
-95.999896
31
0.0
39
0.0
210
0.0
220
0.0
230
1.0
0
LINE
5
119DB
100
AcDbEntity
67
0
8
LINES
62
6
6
ByLayer
370
-1
48
1.0
60
0
100
AcDbLine
10
35.052252
20
-19.270174
30
0.0
11
122.891829
21
-67.560477
31
0.0
39
0.0
210
0.0
220
0.0
230
1.0
0
LINE
5
119DC
100
AcDbEntity
67
0
8
LINES
62
6
6
ByLayer
370
-1
48
1.0
60
0
100
AcDbLine
10
38.743319
20
-9.947625
30
0.0
11
136.371443
21
-35.014347
31
0.0
39
0.0
210
0.0
220
0.0
230
1.0
0
LINE
5
119DD
100
AcDbEntity
67
0
8
LINES
62
1
6
ByLayer
370
-1
48
1.0
60
0
100
AcDbLine
10
40.0
20
-0.000031
30
0.0
11
140.794797
21
-0.000108
31
0.0
39
0.0
210
0.0
220
0.0
230
1.0
0
POLYLINE
5
119DE
100
AcDbEntity
67
0
8
LINES
62
1
6
ByLayer
370
-1
48
1.0
60
0
100
AcDb2dPolyline
10
0.0
20
0.0
30
0.0
39
0.0
66
1
40
0.0
41
0.0
70
0
71
0
72
0
73
0
74
0
75
0
210
0.0
220
0.0
230
1.0
0
VERTEX
5
145
100
AcDbEntity
8
LINES
62
1
100
AcDbVertex
100
AcDb2dVertex
10
29.158766
20
27.381862
30
0.0
42
0.0
0
VERTEX
5
146
100
AcDbEntity
8
LINES
62
1
100
AcDbVertex
100
AcDb2dVertex
10
35.052282
20
19.27012
30
0.0
42
0.0
0
VERTEX
5
147
100
AcDbEntity
8
LINES
62
1
100
AcDbVertex
100
AcDb2dVertex
10
38.743334
20
9.947566
30
0.0
42
0.0
0
VERTEX
5
148
100
AcDbEntity
8
LINES
62
1
100
AcDbVertex
100
AcDb2dVertex
10
40.0
20
-0.000031
30
0.0
42
0.0
0
SEQEND
5
149
100
AcDbEntity
8
LINES
0
POLYLINE
5
119DF
100
AcDbEntity
67
0
8
LINES
62
2
6
ByLayer
370
-1
48
1.0
60
0
100
AcDb2dPolyline
10
0.0
20
0.0
30
0.0
39
0.0
66
1
40
0.0
41
0.0
70
0
71
0
72
0
73
0
74
0
75
0
210
0.0
220
0.0
230
1.0
0
VERTEX
5
14B
100
AcDbEntity
8
LINES
62
2
100
AcDbVertex
100
AcDb2dVertex
10
2.511651
20
39.921067
30
0.0
42
0.0
0
VERTEX
5
14C
100
AcDbEntity
8
LINES
62
2
100
AcDbVertex
100
AcDb2dVertex
10
12.360709
20
38.042251
30
0.0
42
0.0
0
VERTEX
5
14D
100
AcDbEntity
8
LINES
62
2
100
AcDbVertex
100
AcDb2dVertex
10
21.433098
20
33.773101
30
0.0
42
0.0
0
VERTEX
5
14E
100
AcDbEntity
8
LINES
62
2
100
AcDbVertex
100
AcDb2dVertex
10
29.158766
20
27.381862
30
0.0
42
0.0
0
SEQEND
5
14F
100
AcDbEntity
8
LINES
0
POLYLINE
5
119E0
100
AcDbEntity
67
0
8
LINES
62
3
6
ByLayer
370
-1
48
1.0
60
0
100
AcDb2dPolyline
10
0.0
20
0.0
30
0.0
39
0.0
66
1
40
0.0
41
0.0
70
0
71
0
72
0
73
0
74
0
75
0
210
0.0
220
0.0
230
1.0
0
VERTEX
5
151
100
AcDbEntity
8
LINES
62
3
100
AcDbVertex
100
AcDb2dVertex
10
-37.191048
20
14.725011
30
0.0
42
0.0
0
VERTEX
5
152
100
AcDbEntity
8
LINES
62
3
100
AcDbVertex
100
AcDb2dVertex
10
-32.360662
20
23.511435
30
0.0
42
0.0
0
VERTEX
5
153
100
AcDbEntity
8
LINES
62
3
100
AcDbVertex
100
AcDb2dVertex
10
-25.496936
20
30.820549
30
0.0
42
0.0
0
VERTEX
5
154
100
AcDbEntity
8
LINES
62
3
100
AcDbVertex
100
AcDb2dVertex
10
-17.031144
20
36.193095
30
0.0
42
0.0
0
VERTEX
5
155
100
AcDbEntity
8
LINES
62
3
100
AcDbVertex
100
AcDb2dVertex
10
-7.495223
20
39.291496
30
0.0
42
0.0
0
VERTEX
5
156
100
AcDbEntity
8
LINES
62
3
100
AcDbVertex
100
AcDb2dVertex
10
2.511651
20
39.921067
30
0.0
42
0.0
0
SEQEND
5
157
100
AcDbEntity
8
LINES
0
POLYLINE
5
119E1
100
AcDbEntity
67
0
8
LINES
62
4
6
ByLayer
370
-1
48
1.0
60
0
100
AcDb2dPolyline
10
0.0
20
0.0
30
0.0
39
0.0
66
1
40
0.0
41
0.0
70
0
71
0
72
0
73
0
74
0
75
0
210
0.0
220
0.0
230
1.0
0
VERTEX
5
159
100
AcDbEntity
8
LINES
62
4
100
AcDbVertex
100
AcDb2dVertex
10
-37.191071
20
-14.724954
30
0.0
42
0.0
0
VERTEX
5
15A
100
AcDbEntity
8
LINES
62
4
100
AcDbVertex
100
AcDb2dVertex
10
-39.684592
20
-5.013299
30
0.0
42
0.0
0
VERTEX
5
15B
100
AcDbEntity
8
LINES
62
4
100
AcDbVertex
100
AcDb2dVertex
10
-39.684584
20
5.01336
30
0.0
42
0.0
0
VERTEX
5
15C
100
AcDbEntity
8
LINES
62
4
100
AcDbVertex
100
AcDb2dVertex
10
-37.191048
20
14.725011
30
0.0
42
0.0
0
SEQEND
5
15D
100
AcDbEntity
8
LINES
0
POLYLINE
5
119E2
100
AcDbEntity
67
0
8
LINES
62
5
6
ByLayer
370
-1
48
1.0
60
0
100
AcDb2dPolyline
10
0.0
20
0.0
30
0.0
39
0.0
66
1
40
0.0
41
0.0
70
0
71
0
72
0
73
0
74
0
75
0
210
0.0
220
0.0
230
1.0
0
VERTEX
5
15F
100
AcDbEntity
8
LINES
62
5
100
AcDbVertex
100
AcDb2dVertex
10
2.51159
20
-39.921071
30
0.0
42
0.0
0
VERTEX
5
160
100
AcDbEntity
8
LINES
62
5
100
AcDbVertex
100
AcDb2dVertex
10
-7.495283
20
-39.291484
30
0.0
42
0.0
0
VERTEX
5
161
100
AcDbEntity
8
LINES
62
5
100
AcDbVertex
100
AcDb2dVertex
10
-17.031199
20
-36.193069
30
0.0
42
0.0
0
VERTEX
5
162
100
AcDbEntity
8
LINES
62
5
100
AcDbVertex
100
AcDb2dVertex
10
-25.496983
20
-30.82051
30
0.0
42
0.0
0
VERTEX
5
163
100
AcDbEntity
8
LINES
62
5
100
AcDbVertex
100
AcDb2dVertex
10
-32.360698
20
-23.511385
30
0.0
42
0.0
0
VERTEX
5
164
100
AcDbEntity
8
LINES
62
5
100
AcDbVertex
100
AcDb2dVertex
10
-37.191071
20
-14.724954
30
0.0
42
0.0
0
SEQEND
5
165
100
AcDbEntity
8
LINES
0
POLYLINE
5
119E3
100
AcDbEntity
67
0
8
LINES
62
6
6
ByLayer
370
-1
48
1.0
60
0
100
AcDb2dPolyline
10
0.0
20
0.0
30
0.0
39
0.0
66
1
40
0.0
41
0.0
70
0
71
0
72
0
73
0
74
0
75
0
210
0.0
220
0.0
230
1.0
0
VERTEX
5
167
100
AcDbEntity
8
LINES
62
6
100
AcDbVertex
100
AcDb2dVertex
10
38.743319
20
-9.947625
30
0.0
42
0.0
0
VERTEX
5
168
100
AcDbEntity
8
LINES
62
6
100
AcDbVertex
100
AcDb2dVertex
10
35.052252
20
-19.270174
30
0.0
42
0.0
0
VERTEX
5
169
100
AcDbEntity
8
LINES
62
6
100
AcDbVertex
100
AcDb2dVertex
10
29.158724
20
-27.381907
30
0.0
42
0.0
0
VERTEX
5
16A
100
AcDbEntity
8
LINES
62
6
100
AcDbVertex
100
AcDb2dVertex
10
21.433046
20
-33.773133
30
0.0
42
0.0
0
VERTEX
5
16B
100
AcDbEntity
8
LINES
62
6
100
AcDbVertex
100
AcDb2dVertex
10
12.360651
20
-38.04227
30
0.0
42
0.0
0
VERTEX
5
16C
100
AcDbEntity
8
LINES
62
6
100
AcDbVertex
100
AcDb2dVertex
10
2.51159
20
-39.921071
30
0.0
42
0.0
0
SEQEND
5
16D
100
AcDbEntity
8
LINES
0
LINE
5
119E4
100
AcDbEntity
67
0
8
LINES
62
1
6
ByLayer
370
-1
48
1.0
60
0
100
AcDbLine
10
36.506396
20
34.281735
30
0.0
11
43.885001
21
24.12594
31
0.0
39
0.0
210
0.0
220
0.0
230
1.0
0
LINE
5
119E5
100
AcDbEntity
67
0
8
LINES
62
1
6
ByLayer
370
-1
48
1.0
60
0
100
AcDbLine
10
43.885001
20
24.12594
30
0.0
11
48.50615
21
12.454223
31
0.0
39
0.0
210
0.0
220
0.0
230
1.0
0
LINE
5
119E6
100
AcDbEntity
67
0
8
LINES
62
1
6
ByLayer
370
-1
48
1.0
60
0
100
AcDbLine
10
48.50615
20
12.454223
30
0.0
11
50.07948
21
-0.000038
31
0.0
39
0.0
210
0.0
220
0.0
230
1.0
0
LINE
5
119E7
100
AcDbEntity
67
0
8
LINES
62
2
6
ByLayer
370
-1
48
1.0
60
0
100
AcDbLine
10
3.144555
20
49.980657
30
0.0
11
15.475447
21
47.628404
31
0.0
39
0.0
210
0.0
220
0.0
230
1.0
0
LINE
5
119E8
100
AcDbEntity
67
0
8
LINES
62
2
6
ByLayer
370
-1
48
1.0
60
0
100
AcDbLine
10
15.475447
20
47.628404
30
0.0
11
26.833959
21
42.283483
31
0.0
39
0.0
210
0.0
220
0.0
230
1.0
0
LINE
5
119E9
100
AcDbEntity
67
0
8
LINES
62
2
6
ByLayer
370
-1
48
1.0
60
0
100
AcDbLine
10
26.833959
20
42.283483
30
0.0
11
36.506396
21
34.281735
31
0.0
39
0.0
210
0.0
220
0.0
230
1.0
0
LINE
5
119EA
100
AcDbEntity
67
0
8
LINES
62
3
6
ByLayer
370
-1
48
1.0
60
0
100
AcDbLine
10
-46.562709
20
18.435522
30
0.0
11
-40.515128
21
29.436011
31
0.0
39
0.0
210
0.0
220
0.0
230
1.0
0
LINE
5
119EB
100
AcDbEntity
67
0
8
LINES
62
3
6
ByLayer
370
-1
48
1.0
60
0
100
AcDbLine
10
-40.515128
20
29.436011
30
0.0
11
-31.921832
21
38.586927
31
0.0
39
0.0
210
0.0
220
0.0
230
1.0
0
LINE
5
119EC
100
AcDbEntity
67
0
8
LINES
62
3
6
ByLayer
370
-1
48
1.0
60
0
100
AcDbLine
10
-31.921832
20
38.586927
30
0.0
11
-21.322771
21
45.313284
31
0.0
39
0.0
210
0.0
220
0.0
230
1.0
0
LINE
5
119ED
100
AcDbEntity
67
0
8
LINES
62
3
6
ByLayer
370
-1
48
1.0
60
0
100
AcDbLine
10
-21.322771
20
45.313284
30
0.0
11
-9.383921
21
49.192442
31
0.0
39
0.0
210
0.0
220
0.0
230
1.0
0
LINE
5
119EE
100
AcDbEntity
67
0
8
LINES
62
3
6
ByLayer
370
-1
48
1.0
60
0
100
AcDbLine
10
-9.383921
20
49.192442
30
0.0
11
3.144555
21
49.980657
31
0.0
39
0.0
210
0.0
220
0.0
230
1.0
0
LINE
5
119EF
100
AcDbEntity
67
0
8
LINES
62
4
6
ByLayer
370
-1
48
1.0
60
0
100
AcDbLine
10
-46.562737
20
-18.43545
30
0.0
11
-49.684593
21
-6.276585
31
0.0
39
0.0
210
0.0
220
0.0
230
1.0
0
LINE
5
119F0
100
AcDbEntity
67
0
8
LINES
62
4
6
ByLayer
370
-1
48
1.0
60
0
100
AcDbLine
10
-49.684593
20
-6.276585
30
0.0
11
-49.684583
21
6.276661
31
0.0
39
0.0
210
0.0
220
0.0
230
1.0
0
LINE
5
119F1
100
AcDbEntity
67
0
8
LINES
62
4
6
ByLayer
370
-1
48
1.0
60
0
100
AcDbLine
10
-49.684583
20
6.276661
30
0.0
11
-46.562709
21
18.435522
31
0.0
39
0.0
210
0.0
220
0.0
230
1.0
0
LINE
5
119F2
100
AcDbEntity
67
0
8
LINES
62
5
6
ByLayer
370
-1
48
1.0
60
0
100
AcDbLine
10
3.144478
20
-49.980662
30
0.0
11
-9.383996
21
-49.192427
31
0.0
39
0.0
210
0.0
220
0.0
230
1.0
0
LINE
5
119F3
100
AcDbEntity
67
0
8
LINES
62
5
6
ByLayer
370
-1
48
1.0
60
0
100
AcDbLine
10
-9.383996
20
-49.192427
30
0.0
11
-21.32284
21
-45.313252
31
0.0
39
0.0
210
0.0
220
0.0
230
1.0
0
LINE
5
119F4
100
AcDbEntity
67
0
8
LINES
62
5
6
ByLayer
370
-1
48
1.0
60
0
100
AcDbLine
10
-21.32284
20
-45.313252
30
0.0
11
-31.921891
21
-38.586878
31
0.0
39
0.0
210
0.0
220
0.0
230
1.0
0
LINE
5
119F5
100
AcDbEntity
67
0
8
LINES
62
5
6
ByLayer
370
-1
48
1.0
60
0
100
AcDbLine
10
-31.921891
20
-38.586878
30
0.0
11
-40.515173
21
-29.435949
31
0.0
39
0.0
210
0.0
220
0.0
230
1.0
0
LINE
5
119F6
100
AcDbEntity
67
0
8
LINES
62
5
6
ByLayer
370
-1
48
1.0
60
0
100
AcDbLine
10
-40.515173
20
-29.435949
30
0.0
11
-46.562737
21
-18.43545
31
0.0
39
0.0
210
0.0
220
0.0
230
1.0
0
LINE
5
119F7
100
AcDbEntity
67
0
8
LINES
62
6
6
ByLayer
370
-1
48
1.0
60
0
100
AcDbLine
10
48.506131
20
-12.454297
30
0.0
11
43.884964
21
-24.126007
31
0.0
39
0.0
210
0.0
220
0.0
230
1.0
0
LINE
5
119F8
100
AcDbEntity
67
0
8
LINES
62
6
6
ByLayer
370
-1
48
1.0
60
0
100
AcDbLine
10
43.884964
20
-24.126007
30
0.0
11
36.506343
21
-34.281791
31
0.0
39
0.0
210
0.0
220
0.0
230
1.0
0
LINE
5
119F9
100
AcDbEntity
67
0
8
LINES
62
6
6
ByLayer
370
-1
48
1.0
60
0
100
AcDbLine
10
36.506343
20
-34.281791
30
0.0
11
26.833895
21
-42.283524
31
0.0
39
0.0
210
0.0
220
0.0
230
1.0
0
LINE
5
119FA
100
AcDbEntity
67
0
8
LINES
62
6
6
ByLayer
370
-1
48
1.0
60
0
100
AcDbLine
10
26.833895
20
-42.283524
30
0.0
11
15.475374
21
-47.628427
31
0.0
39
0.0
210
0.0
220
0.0
230
1.0
0
LINE
5
119FB
100
AcDbEntity
67
0
8
LINES
62
6
6
ByLayer
370
-1
48
1.0
60
0
100
AcDbLine
10
15.475374
20
-47.628427
30
0.0
11
3.144478
21
-49.980662
31
0.0
39
0.0
210
0.0
220
0.0
230
1.0
0
LINE
5
119FC
100
AcDbEntity
67
0
8
LINES
62
1
6
ByLayer
370
-1
48
1.0
60
0
100
AcDbLine
10
43.854026
20
41.181608
30
0.0
11
52.71772
21
28.981759
31
0.0
39
0.0
210
0.0
220
0.0
230
1.0
0
LINE
5
119FD
100
AcDbEntity
67
0
8
LINES
62
1
6
ByLayer
370
-1
48
1.0
60
0
100
AcDbLine
10
52.71772
20
28.981759
30
0.0
11
58.268967
21
14.96088
31
0.0
39
0.0
210
0.0
220
0.0
230
1.0
0
LINE
5
119FE
100
AcDbEntity
67
0
8
LINES
62
1
6
ByLayer
370
-1
48
1.0
60
0
100
AcDbLine
10
58.268967
20
14.96088
30
0.0
11
60.158959
21
-0.000046
31
0.0
39
0.0
210
0.0
220
0.0
230
1.0
0
LINE
5
119FF
100
AcDbEntity
67
0
8
LINES
62
2
6
ByLayer
370
-1
48
1.0
60
0
100
AcDbLine
10
3.777458
20
60.040247
30
0.0
11
18.590185
21
57.214556
31
0.0
39
0.0
210
0.0
220
0.0
230
1.0
0
LINE
5
11A00
100
AcDbEntity
67
0
8
LINES
62
2
6
ByLayer
370
-1
48
1.0
60
0
100
AcDbLine
10
18.590185
20
57.214556
30
0.0
11
32.234821
21
50.793865
31
0.0
39
0.0
210
0.0
220
0.0
230
1.0
0
LINE
5
11A01
100
AcDbEntity
67
0
8
LINES
62
2
6
ByLayer
370
-1
48
1.0
60
0
100
AcDbLine
10
32.234821
20
50.793865
30
0.0
11
43.854026
21
41.181608
31
0.0
39
0.0
210
0.0
220
0.0
230
1.0
0
LINE
5
11A02
100
AcDbEntity
67
0
8
LINES
62
3
6
ByLayer
370
-1
48
1.0
60
0
100
AcDbLine
10
-55.934369
20
22.146033
30
0.0
11
-48.669593
21
35.360586
31
0.0
39
0.0
210
0.0
220
0.0
230
1.0
0
LINE
5
11A03
100
AcDbEntity
67
0
8
LINES
62
3
6
ByLayer
370
-1
48
1.0
60
0
100
AcDbLine
10
-48.669593
20
35.360586
30
0.0
11
-38.346728
21
46.353304
31
0.0
39
0.0
210
0.0
220
0.0
230
1.0
0
LINE
5
11A04
100
AcDbEntity
67
0
8
LINES
62
3
6
ByLayer
370
-1
48
1.0
60
0
100
AcDbLine
10
-38.346728
20
46.353304
30
0.0
11
-25.614397
21
54.433474
31
0.0
39
0.0
210
0.0
220
0.0
230
1.0
0
LINE
5
11A05
100
AcDbEntity
67
0
8
LINES
62
3
6
ByLayer
370
-1
48
1.0
60
0
100
AcDbLine
10
-25.614397
20
54.433474
30
0.0
11
-11.27262
21
59.093387
31
0.0
39
0.0
210
0.0
220
0.0
230
1.0
0
LINE
5
11A06
100
AcDbEntity
67
0
8
LINES
62
3
6
ByLayer
370
-1
48
1.0
60
0
100
AcDbLine
10
-11.27262
20
59.093387
30
0.0
11
3.777458
21
60.040247
31
0.0
39
0.0
210
0.0
220
0.0
230
1.0
0
LINE
5
11A07
100
AcDbEntity
67
0
8
LINES
62
4
6
ByLayer
370
-1
48
1.0
60
0
100
AcDbLine
10
-55.934403
20
-22.145947
30
0.0
11
-59.684594
21
-7.539871
31
0.0
39
0.0
210
0.0
220
0.0
230
1.0
0
LINE
5
11A08
100
AcDbEntity
67
0
8
LINES
62
4
6
ByLayer
370
-1
48
1.0
60
0
100
AcDbLine
10
-59.684594
20
-7.539871
30
0.0
11
-59.684582
21
7.539963
31
0.0
39
0.0
210
0.0
220
0.0
230
1.0
0
LINE
5
11A09
100
AcDbEntity
67
0
8
LINES
62
4
6
ByLayer
370
-1
48
1.0
60
0
100
AcDbLine
10
-59.684582
20
7.539963
30
0.0
11
-55.934369
21
22.146033
31
0.0
39
0.0
210
0.0
220
0.0
230
1.0
0
LINE
5
11A0A
100
AcDbEntity
67
0
8
LINES
62
5
6
ByLayer
370
-1
48
1.0
60
0
100
AcDbLine
10
3.777366
20
-60.040252
30
0.0
11
-11.27271
21
-59.09337
31
0.0
39
0.0
210
0.0
220
0.0
230
1.0
0
LINE
5
11A0B
100
AcDbEntity
67
0
8
LINES
62
5
6
ByLayer
370
-1
48
1.0
60
0
100
AcDbLine
10
-11.27271
20
-59.09337
30
0.0
11
-25.614481
21
-54.433434
31
0.0
39
0.0
210
0.0
220
0.0
230
1.0
0
LINE
5
11A0C
100
AcDbEntity
67
0
8
LINES
62
5
6
ByLayer
370
-1
48
1.0
60
0
100
AcDbLine
10
-25.614481
20
-54.433434
30
0.0
11
-38.346799
21
-46.353246
31
0.0
39
0.0
210
0.0
220
0.0
230
1.0
0
LINE
5
11A0D
100
AcDbEntity
67
0
8
LINES
62
5
6
ByLayer
370
-1
48
1.0
60
0
100
AcDbLine
10
-38.346799
20
-46.353246
30
0.0
11
-48.669648
21
-35.360512
31
0.0
39
0.0
210
0.0
220
0.0
230
1.0
0
LINE
5
11A0E
100
AcDbEntity
67
0
8
LINES
62
5
6
ByLayer
370
-1
48
1.0
60
0
100
AcDbLine
10
-48.669648
20
-35.360512
30
0.0
11
-55.934403
21
-22.145947
31
0.0
39
0.0
210
0.0
220
0.0
230
1.0
0
LINE
5
11A0F
100
AcDbEntity
67
0
8
LINES
62
6
6
ByLayer
370
-1
48
1.0
60
0
100
AcDbLine
10
58.268944
20
-14.960969
30
0.0
11
52.717676
21
-28.98184
31
0.0
39
0.0
210
0.0
220
0.0
230
1.0
0
LINE
5
11A10
100
AcDbEntity
67
0
8
LINES
62
6
6
ByLayer
370
-1
48
1.0
60
0
100
AcDbLine
10
52.717676
20
-28.98184
30
0.0
11
43.853963
21
-41.181675
31
0.0
39
0.0
210
0.0
220
0.0
230
1.0
0
LINE
5
11A11
100
AcDbEntity
67
0
8
LINES
62
6
6
ByLayer
370
-1
48
1.0
60
0
100
AcDbLine
10
43.853963
20
-41.181675
30
0.0
11
32.234744
21
-50.793914
31
0.0
39
0.0
210
0.0
220
0.0
230
1.0
0
LINE
5
11A12
100
AcDbEntity
67
0
8
LINES
62
6
6
ByLayer
370
-1
48
1.0
60
0
100
AcDbLine
10
32.234744
20
-50.793914
30
0.0
11
18.590097
21
-57.214585
31
0.0
39
0.0
210
0.0
220
0.0
230
1.0
0
LINE
5
11A13
100
AcDbEntity
67
0
8
LINES
62
6
6
ByLayer
370
-1
48
1.0
60
0
100
AcDbLine
10
18.590097
20
-57.214585
30
0.0
11
3.777366
21
-60.040252
31
0.0
39
0.0
210
0.0
220
0.0
230
1.0
0
LINE
5
11A14
100
AcDbEntity
67
0
8
LINES
62
1
6
ByLayer
370
-1
48
1.0
60
0
100
AcDbLine
10
51.201655
20
48.081481
30
0.0
11
61.550439
21
33.837579
31
0.0
39
0.0
210
0.0
220
0.0
230
1.0
0
LINE
5
11A15
100
AcDbEntity
67
0
8
LINES
62
1
6
ByLayer
370
-1
48
1.0
60
0
100
AcDbLine
10
61.550439
20
33.837579
30
0.0
11
68.031783
21
17.467537
31
0.0
39
0.0
210
0.0
220
0.0
230
1.0
0
LINE
5
11A16
100
AcDbEntity
67
0
8
LINES
62
1
6
ByLayer
370
-1
48
1.0
60
0
100
AcDbLine
10
68.031783
20
17.467537
30
0.0
11
70.238439
21
-0.000054
31
0.0
39
0.0
210
0.0
220
0.0
230
1.0
0
LINE
5
11A17
100
AcDbEntity
67
0
8
LINES
62
3
6
ByLayer
370
-1
48
1.0
60
0
100
AcDbLine
10
-65.306029
20
25.856544
30
0.0
11
-56.824059
21
41.285162
31
0.0
39
0.0
210
0.0
220
0.0
230
1.0
0
LINE
5
11A18
100
AcDbEntity
67
0
8
LINES
62
3
6
ByLayer
370
-1
48
1.0
60
0
100
AcDbLine
10
-56.824059
20
41.285162
30
0.0
11
-44.771625
21
54.119682
31
0.0
39
0.0
210
0.0
220
0.0
230
1.0
0
LINE
5
11A19
100
AcDbEntity
67
0
8
LINES
62
3
6
ByLayer
370
-1
48
1.0
60
0
100
AcDbLine
10
-44.771625
20
54.119682
30
0.0
11
-29.906024
21
63.553663
31
0.0
39
0.0
210
0.0
220
0.0
230
1.0
0
LINE
5
11A1A
100
AcDbEntity
67
0
8
LINES
62
3
6
ByLayer
370
-1
48
1.0
60
0
100
AcDbLine
10
-29.906024
20
63.553663
30
0.0
11
-13.161318
21
68.994333
31
0.0
39
0.0
210
0.0
220
0.0
230
1.0
0
LINE
5
11A1B
100
AcDbEntity
67
0
8
LINES
62
3
6
ByLayer
370
-1
48
1.0
60
0
100
AcDbLine
10
-13.161318
20
68.994333
30
0.0
11
4.410362
21
70.099836
31
0.0
39
0.0
210
0.0
220
0.0
230
1.0
0
LINE
5
11A1C
100
AcDbEntity
67
0
8
LINES
62
2
6
ByLayer
370
-1
48
1.0
60
0
100
AcDbLine
10
4.410362
20
70.099836
30
0.0
11
21.704922
21
66.800709
31
0.0
39
0.0
210
0.0
220
0.0
230
1.0
0
LINE
5
11A1D
100
AcDbEntity
67
0
8
LINES
62
2
6
ByLayer
370
-1
48
1.0
60
0
100
AcDbLine
10
21.704922
20
66.800709
30
0.0
11
37.635683
21
59.304247
31
0.0
39
0.0
210
0.0
220
0.0
230
1.0
0
LINE
5
11A1E
100
AcDbEntity
67
0
8
LINES
62
2
6
ByLayer
370
-1
48
1.0
60
0
100
AcDbLine
10
37.635683
20
59.304247
30
0.0
11
51.201655
21
48.081481
31
0.0
39
0.0
210
0.0
220
0.0
230
1.0
0
LINE
5
11A1F
100
AcDbEntity
67
0
8
LINES
62
4
6
ByLayer
370
-1
48
1.0
60
0
100
AcDbLine
10
-65.306069
20
-25.856444
30
0.0
11
-69.684595
21
-8.803157
31
0.0
39
0.0
210
0.0
220
0.0
230
1.0
0
LINE
5
11A20
100
AcDbEntity
67
0
8
LINES
62
4
6
ByLayer
370
-1
48
1.0
60
0
100
AcDbLine
10
-69.684595
20
-8.803157
30
0.0
11
-69.684581
21
8.803264
31
0.0
39
0.0
210
0.0
220
0.0
230
1.0
0
LINE
5
11A21
100
AcDbEntity
67
0
8
LINES
62
4
6
ByLayer
370
-1
48
1.0
60
0
100
AcDbLine
10
-69.684581
20
8.803264
30
0.0
11
-65.306029
21
25.856544
31
0.0
39
0.0
210
0.0
220
0.0
230
1.0
0
LINE
5
11A22
100
AcDbEntity
67
0
8
LINES
62
5
6
ByLayer
370
-1
48
1.0
60
0
100
AcDbLine
10
4.410254
20
-70.099843
30
0.0
11
-13.161424
21
-68.994313
31
0.0
39
0.0
210
0.0
220
0.0
230
1.0
0
LINE
5
11A23
100
AcDbEntity
67
0
8
LINES
62
5
6
ByLayer
370
-1
48
1.0
60
0
100
AcDbLine
10
-13.161424
20
-68.994313
30
0.0
11
-29.906121
21
-63.553617
31
0.0
39
0.0
210
0.0
220
0.0
230
1.0
0
LINE
5
11A24
100
AcDbEntity
67
0
8
LINES
62
5
6
ByLayer
370
-1
48
1.0
60
0
100
AcDbLine
10
-29.906121
20
-63.553617
30
0.0
11
-44.771707
21
-54.119613
31
0.0
39
0.0
210
0.0
220
0.0
230
1.0
0
LINE
5
11A25
100
AcDbEntity
67
0
8
LINES
62
5
6
ByLayer
370
-1
48
1.0
60
0
100
AcDbLine
10
-44.771707
20
-54.119613
30
0.0
11
-56.824122
21
-41.285075
31
0.0
39
0.0
210
0.0
220
0.0
230
1.0
0
LINE
5
11A26
100
AcDbEntity
67
0
8
LINES
62
5
6
ByLayer
370
-1
48
1.0
60
0
100
AcDbLine
10
-56.824122
20
-41.285075
30
0.0
11
-65.306069
21
-25.856444
31
0.0
39
0.0
210
0.0
220
0.0
230
1.0
0
LINE
5
11A27
100
AcDbEntity
67
0
8
LINES
62
6
6
ByLayer
370
-1
48
1.0
60
0
100
AcDbLine
10
68.031756
20
-17.467642
30
0.0
11
61.550388
21
-33.837673
31
0.0
39
0.0
210
0.0
220
0.0
230
1.0
0
LINE
5
11A28
100
AcDbEntity
67
0
8
LINES
62
6
6
ByLayer
370
-1
48
1.0
60
0
100
AcDbLine
10
61.550388
20
-33.837673
30
0.0
11
51.201582
21
-48.081559
31
0.0
39
0.0
210
0.0
220
0.0
230
1.0
0
LINE
5
11A29
100
AcDbEntity
67
0
8
LINES
62
6
6
ByLayer
370
-1
48
1.0
60
0
100
AcDbLine
10
51.201582
20
-48.081559
30
0.0
11
37.635592
21
-59.304304
31
0.0
39
0.0
210
0.0
220
0.0
230
1.0
0
LINE
5
11A2A
100
AcDbEntity
67
0
8
LINES
62
6
6
ByLayer
370
-1
48
1.0
60
0
100
AcDbLine
10
37.635592
20
-59.304304
30
0.0
11
21.70482
21
-66.800742
31
0.0
39
0.0
210
0.0
220
0.0
230
1.0
0
LINE
5
11A2B
100
AcDbEntity
67
0
8
LINES
62
6
6
ByLayer
370
-1
48
1.0
60
0
100
AcDbLine
10
21.70482
20
-66.800742
30
0.0
11
4.410254
21
-70.099843
31
0.0
39
0.0
210
0.0
220
0.0
230
1.0
0
LINE
5
11A2C
100
AcDbEntity
67
0
8
LINES
62
1
6
ByLayer
370
-1
48
1.0
60
0
100
AcDbLine
10
58.549285
20
54.981354
30
0.0
11
70.383158
21
38.693399
31
0.0
39
0.0
210
0.0
220
0.0
230
1.0
0
LINE
5
11A2D
100
AcDbEntity
67
0
8
LINES
62
1
6
ByLayer
370
-1
48
1.0
60
0
100
AcDbLine
10
70.383158
20
38.693399
30
0.0
11
77.794599
21
19.974195
31
0.0
39
0.0
210
0.0
220
0.0
230
1.0
0
LINE
5
11A2E
100
AcDbEntity
67
0
8
LINES
62
1
6
ByLayer
370
-1
48
1.0
60
0
100
AcDbLine
10
77.794599
20
19.974195
30
0.0
11
80.317919
21
-0.000061
31
0.0
39
0.0
210
0.0
220
0.0
230
1.0
0
LINE
5
11A2F
100
AcDbEntity
67
0
8
LINES
62
2
6
ByLayer
370
-1
48
1.0
60
0
100
AcDbLine
10
5.043265
20
80.159426
30
0.0
11
24.81966
21
76.386861
31
0.0
39
0.0
210
0.0
220
0.0
230
1.0
0
LINE
5
11A30
100
AcDbEntity
67
0
8
LINES
62
2
6
ByLayer
370
-1
48
1.0
60
0
100
AcDbLine
10
24.81966
20
76.386861
30
0.0
11
43.036545
21
67.814629
31
0.0
39
0.0
210
0.0
220
0.0
230
1.0
0
LINE
5
11A31
100
AcDbEntity
67
0
8
LINES
62
2
6
ByLayer
370
-1
48
1.0
60
0
100
AcDbLine
10
43.036545
20
67.814629
30
0.0
11
58.549285
21
54.981354
31
0.0
39
0.0
210
0.0
220
0.0
230
1.0
0
LINE
5
11A32
100
AcDbEntity
67
0
8
LINES
62
3
6
ByLayer
370
-1
48
1.0
60
0
100
AcDbLine
10
-74.67769
20
29.567055
30
0.0
11
-64.978525
21
47.209738
31
0.0
39
0.0
210
0.0
220
0.0
230
1.0
0
LINE
5
11A33
100
AcDbEntity
67
0
8
LINES
62
3
6
ByLayer
370
-1
48
1.0
60
0
100
AcDbLine
10
-64.978525
20
47.209738
30
0.0
11
-51.196521
21
61.886059
31
0.0
39
0.0
210
0.0
220
0.0
230
1.0
0
LINE
5
11A34
100
AcDbEntity
67
0
8
LINES
62
3
6
ByLayer
370
-1
48
1.0
60
0
100
AcDbLine
10
-51.196521
20
61.886059
30
0.0
11
-34.197651
21
72.673852
31
0.0
39
0.0
210
0.0
220
0.0
230
1.0
0
LINE
5
11A35
100
AcDbEntity
67
0
8
LINES
62
3
6
ByLayer
370
-1
48
1.0
60
0
100
AcDbLine
10
-34.197651
20
72.673852
30
0.0
11
-15.050017
21
78.895279
31
0.0
39
0.0
210
0.0
220
0.0
230
1.0
0
LINE
5
11A36
100
AcDbEntity
67
0
8
LINES
62
3
6
ByLayer
370
-1
48
1.0
60
0
100
AcDbLine
10
-15.050017
20
78.895279
30
0.0
11
5.043265
21
80.159426
31
0.0
39
0.0
210
0.0
220
0.0
230
1.0
0
LINE
5
11A37
100
AcDbEntity
67
0
8
LINES
62
4
6
ByLayer
370
-1
48
1.0
60
0
100
AcDbLine
10
-74.677735
20
-29.566941
30
0.0
11
-79.684596
21
-10.066444
31
0.0
39
0.0
210
0.0
220
0.0
230
1.0
0
LINE
5
11A38
100
AcDbEntity
67
0
8
LINES
62
4
6
ByLayer
370
-1
48
1.0
60
0
100
AcDbLine
10
-79.684596
20
-10.066444
30
0.0
11
-79.68458
21
10.066565
31
0.0
39
0.0
210
0.0
220
0.0
230
1.0
0
LINE
5
11A39
100
AcDbEntity
67
0
8
LINES
62
4
6
ByLayer
370
-1
48
1.0
60
0
100
AcDbLine
10
-79.68458
20
10.066565
30
0.0
11
-74.67769
21
29.567055
31
0.0
39
0.0
210
0.0
220
0.0
230
1.0
0
LINE
5
11A3A
100
AcDbEntity
67
0
8
LINES
62
5
6
ByLayer
370
-1
48
1.0
60
0
100
AcDbLine
10
5.043143
20
-80.159434
30
0.0
11
-15.050138
21
-78.895256
31
0.0
39
0.0
210
0.0
220
0.0
230
1.0
0
LINE
5
11A3B
100
AcDbEntity
67
0
8
LINES
62
5
6
ByLayer
370
-1
48
1.0
60
0
100
AcDbLine
10
-15.050138
20
-78.895256
30
0.0
11
-34.197762
21
-72.6738
31
0.0
39
0.0
210
0.0
220
0.0
230
1.0
0
LINE
5
11A3C
100
AcDbEntity
67
0
8
LINES
62
5
6
ByLayer
370
-1
48
1.0
60
0
100
AcDbLine
10
-34.197762
20
-72.6738
30
0.0
11
-51.196616
21
-61.885981
31
0.0
39
0.0
210
0.0
220
0.0
230
1.0
0
LINE
5
11A3D
100
AcDbEntity
67
0
8
LINES
62
5
6
ByLayer
370
-1
48
1.0
60
0
100
AcDbLine
10
-51.196616
20
-61.885981
30
0.0
11
-64.978597
21
-47.209638
31
0.0
39
0.0
210
0.0
220
0.0
230
1.0
0
LINE
5
11A3E
100
AcDbEntity
67
0
8
LINES
62
5
6
ByLayer
370
-1
48
1.0
60
0
100
AcDbLine
10
-64.978597
20
-47.209638
30
0.0
11
-74.677735
21
-29.566941
31
0.0
39
0.0
210
0.0
220
0.0
230
1.0
0
LINE
5
11A3F
100
AcDbEntity
67
0
8
LINES
62
6
6
ByLayer
370
-1
48
1.0
60
0
100
AcDbLine
10
77.794568
20
-19.974314
30
0.0
11
70.383099
21
-38.693506
31
0.0
39
0.0
210
0.0
220
0.0
230
1.0
0
LINE
5
11A40
100
AcDbEntity
67
0
8
LINES
62
6
6
ByLayer
370
-1
48
1.0
60
0
100
AcDbLine
10
70.383099
20
-38.693506
30
0.0
11
58.549201
21
-54.981444
31
0.0
39
0.0
210
0.0
220
0.0
230
1.0
0
LINE
5
11A41
100
AcDbEntity
67
0
8
LINES
62
6
6
ByLayer
370
-1
48
1.0
60
0
100
AcDbLine
10
58.549201
20
-54.981444
30
0.0
11
43.036441
21
-67.814695
31
0.0
39
0.0
210
0.0
220
0.0
230
1.0
0
LINE
5
11A42
100
AcDbEntity
67
0
8
LINES
62
6
6
ByLayer
370
-1
48
1.0
60
0
100
AcDbLine
10
43.036441
20
-67.814695
30
0.0
11
24.819543
21
-76.386899
31
0.0
39
0.0
210
0.0
220
0.0
230
1.0
0
LINE
5
11A43
100
AcDbEntity
67
0
8
LINES
62
6
6
ByLayer
370
-1
48
1.0
60
0
100
AcDbLine
10
24.819543
20
-76.386899
30
0.0
11
5.043143
21
-80.159434
31
0.0
39
0.0
210
0.0
220
0.0
230
1.0
0
LINE
5
11A44
100
AcDbEntity
67
0
8
LINES
62
1
6
ByLayer
370
-1
48
1.0
60
0
100
AcDbLine
10
65.896915
20
61.881227
30
0.0
11
79.215878
21
43.549218
31
0.0
39
0.0
210
0.0
220
0.0
230
1.0
0
LINE
5
11A45
100
AcDbEntity
67
0
8
LINES
62
1
6
ByLayer
370
-1
48
1.0
60
0
100
AcDbLine
10
79.215878
20
43.549218
30
0.0
11
87.557415
21
22.480852
31
0.0
39
0.0
210
0.0
220
0.0
230
1.0
0
LINE
5
11A46
100
AcDbEntity
67
0
8
LINES
62
1
6
ByLayer
370
-1
48
1.0
60
0
100
AcDbLine
10
87.557415
20
22.480852
30
0.0
11
90.397399
21
-0.000069
31
0.0
39
0.0
210
0.0
220
0.0
230
1.0
0
LINE
5
11A47
100
AcDbEntity
67
0
8
LINES
62
2
6
ByLayer
370
-1
48
1.0
60
0
100
AcDbLine
10
5.676169
20
90.219016
30
0.0
11
27.934398
21
85.973014
31
0.0
39
0.0
210
0.0
220
0.0
230
1.0
0
LINE
5
11A48
100
AcDbEntity
67
0
8
LINES
62
2
6
ByLayer
370
-1
48
1.0
60
0
100
AcDbLine
10
27.934398
20
85.973014
30
0.0
11
48.437407
21
76.325011
31
0.0
39
0.0
210
0.0
220
0.0
230
1.0
0
LINE
5
11A49
100
AcDbEntity
67
0
8
LINES
62
2
6
ByLayer
370
-1
48
1.0
60
0
100
AcDbLine
10
48.437407
20
76.325011
30
0.0
11
65.896915
21
61.881227
31
0.0
39
0.0
210
0.0
220
0.0
230
1.0
0
LINE
5
11A4A
100
AcDbEntity
67
0
8
LINES
62
3
6
ByLayer
370
-1
48
1.0
60
0
100
AcDbLine
10
-84.04935
20
33.277566
30
0.0
11
-73.132991
21
53.134314
31
0.0
39
0.0
210
0.0
220
0.0
230
1.0
0
LINE
5
11A4B
100
AcDbEntity
67
0
8
LINES
62
3
6
ByLayer
370
-1
48
1.0
60
0
100
AcDbLine
10
-73.132991
20
53.134314
30
0.0
11
-57.621417
21
69.652437
31
0.0
39
0.0
210
0.0
220
0.0
230
1.0
0
LINE
5
11A4C
100
AcDbEntity
67
0
8
LINES
62
3
6
ByLayer
370
-1
48
1.0
60
0
100
AcDbLine
10
-57.621417
20
69.652437
30
0.0
11
-38.489278
21
81.794041
31
0.0
39
0.0
210
0.0
220
0.0
230
1.0
0
LINE
5
11A4D
100
AcDbEntity
67
0
8
LINES
62
3
6
ByLayer
370
-1
48
1.0
60
0
100
AcDbLine
10
-38.489278
20
81.794041
30
0.0
11
-16.938715
21
88.796225
31
0.0
39
0.0
210
0.0
220
0.0
230
1.0
0
LINE
5
11A4E
100
AcDbEntity
67
0
8
LINES
62
3
6
ByLayer
370
-1
48
1.0
60
0
100
AcDbLine
10
-16.938715
20
88.796225
30
0.0
11
5.676169
21
90.219016
31
0.0
39
0.0
210
0.0
220
0.0
230
1.0
0
LINE
5
11A4F
100
AcDbEntity
67
0
8
LINES
62
4
6
ByLayer
370
-1
48
1.0
60
0
100
AcDbLine
10
-84.049401
20
-33.277438
30
0.0
11
-89.684597
21
-11.32973
31
0.0
39
0.0
210
0.0
220
0.0
230
1.0
0
LINE
5
11A50
100
AcDbEntity
67
0
8
LINES
62
4
6
ByLayer
370
-1
48
1.0
60
0
100
AcDbLine
10
-89.684597
20
-11.32973
30
0.0
11
-89.684579
21
11.329867
31
0.0
39
0.0
210
0.0
220
0.0
230
1.0
0
LINE
5
11A51
100
AcDbEntity
67
0
8
LINES
62
4
6
ByLayer
370
-1
48
1.0
60
0
100
AcDbLine
10
-89.684579
20
11.329867
30
0.0
11
-84.04935
21
33.277566
31
0.0
39
0.0
210
0.0
220
0.0
230
1.0
0
LINE
5
11A52
100
AcDbEntity
67
0
8
LINES
62
5
6
ByLayer
370
-1
48
1.0
60
0
100
AcDbLine
10
5.676031
20
-90.219024
30
0.0
11
-16.938851
21
-88.796199
31
0.0
39
0.0
210
0.0
220
0.0
230
1.0
0
LINE
5
11A53
100
AcDbEntity
67
0
8
LINES
62
5
6
ByLayer
370
-1
48
1.0
60
0
100
AcDbLine
10
-16.938851
20
-88.796199
30
0.0
11
-38.489403
21
-81.793982
31
0.0
39
0.0
210
0.0
220
0.0
230
1.0
0
LINE
5
11A54
100
AcDbEntity
67
0
8
LINES
62
5
6
ByLayer
370
-1
48
1.0
60
0
100
AcDbLine
10
-38.489403
20
-81.793982
30
0.0
11
-57.621524
21
-69.652349
31
0.0
39
0.0
210
0.0
220
0.0
230
1.0
0
LINE
5
11A55
100
AcDbEntity
67
0
8
LINES
62
5
6
ByLayer
370
-1
48
1.0
60
0
100
AcDbLine
10
-57.621524
20
-69.652349
30
0.0
11
-73.133072
21
-53.134202
31
0.0
39
0.0
210
0.0
220
0.0
230
1.0
0
LINE
5
11A56
100
AcDbEntity
67
0
8
LINES
62
5
6
ByLayer
370
-1
48
1.0
60
0
100
AcDbLine
10
-73.133072
20
-53.134202
30
0.0
11
-84.049401
21
-33.277438
31
0.0
39
0.0
210
0.0
220
0.0
230
1.0
0
LINE
5
11A57
100
AcDbEntity
67
0
8
LINES
62
6
6
ByLayer
370
-1
48
1.0
60
0
100
AcDbLine
10
87.557381
20
-22.480986
30
0.0
11
79.215811
21
-43.549339
31
0.0
39
0.0
210
0.0
220
0.0
230
1.0
0
LINE
5
11A58
100
AcDbEntity
67
0
8
LINES
62
6
6
ByLayer
370
-1
48
1.0
60
0
100
AcDbLine
10
79.215811
20
-43.549339
30
0.0
11
65.89682
21
-61.881328
31
0.0
39
0.0
210
0.0
220
0.0
230
1.0
0
LINE
5
11A59
100
AcDbEntity
67
0
8
LINES
62
6
6
ByLayer
370
-1
48
1.0
60
0
100
AcDbLine
10
65.89682
20
-61.881328
30
0.0
11
48.43729
21
-76.325085
31
0.0
39
0.0
210
0.0
220
0.0
230
1.0
0
LINE
5
11A5A
100
AcDbEntity
67
0
8
LINES
62
6
6
ByLayer
370
-1
48
1.0
60
0
100
AcDbLine
10
48.43729
20
-76.325085
30
0.0
11
27.934267
21
-85.973056
31
0.0
39
0.0
210
0.0
220
0.0
230
1.0
0
LINE
5
11A5B
100
AcDbEntity
67
0
8
LINES
62
6
6
ByLayer
370
-1
48
1.0
60
0
100
AcDbLine
10
27.934267
20
-85.973056
30
0.0
11
5.676031
21
-90.219024
31
0.0
39
0.0
210
0.0
220
0.0
230
1.0
0
LINE
5
11A5C
100
AcDbEntity
67
0
8
LINES
62
1
6
ByLayer
370
-1
48
1.0
60
0
100
AcDbLine
10
73.244545
20
68.7811
30
0.0
11
88.048597
21
48.405038
31
0.0
39
0.0
210
0.0
220
0.0
230
1.0
0
LINE
5
11A5D
100
AcDbEntity
67
0
8
LINES
62
1
6
ByLayer
370
-1
48
1.0
60
0
100
AcDbLine
10
88.048597
20
48.405038
30
0.0
11
97.320231
21
24.987509
31
0.0
39
0.0
210
0.0
220
0.0
230
1.0
0
LINE
5
11A5E
100
AcDbEntity
67
0
8
LINES
62
1
6
ByLayer
370
-1
48
1.0
60
0
100
AcDbLine
10
97.320231
20
24.987509
30
0.0
11
100.476878
21
-0.000077
31
0.0
39
0.0
210
0.0
220
0.0
230
1.0
0
LINE
5
11A5F
100
AcDbEntity
67
0
8
LINES
62
2
6
ByLayer
370
-1
48
1.0
60
0
100
AcDbLine
10
6.309072
20
100.278605
30
0.0
11
31.049136
21
95.559166
31
0.0
39
0.0
210
0.0
220
0.0
230
1.0
0
LINE
5
11A60
100
AcDbEntity
67
0
8
LINES
62
2
6
ByLayer
370
-1
48
1.0
60
0
100
AcDbLine
10
31.049136
20
95.559166
30
0.0
11
53.838269
21
84.835393
31
0.0
39
0.0
210
0.0
220
0.0
230
1.0
0
LINE
5
11A61
100
AcDbEntity
67
0
8
LINES
62
2
6
ByLayer
370
-1
48
1.0
60
0
100
AcDbLine
10
53.838269
20
84.835393
30
0.0
11
73.244545
21
68.7811
31
0.0
39
0.0
210
0.0
220
0.0
230
1.0
0
LINE
5
11A62
100
AcDbEntity
67
0
8
LINES
62
3
6
ByLayer
370
-1
48
1.0
60
0
100
AcDbLine
10
-93.42101
20
36.988077
30
0.0
11
-81.287457
21
59.058889
31
0.0
39
0.0
210
0.0
220
0.0
230
1.0
0
LINE
5
11A63
100
AcDbEntity
67
0
8
LINES
62
3
6
ByLayer
370
-1
48
1.0
60
0
100
AcDbLine
10
-81.287457
20
59.058889
30
0.0
11
-64.046313
21
77.418814
31
0.0
39
0.0
210
0.0
220
0.0
230
1.0
0
LINE
5
11A64
100
AcDbEntity
67
0
8
LINES
62
3
6
ByLayer
370
-1
48
1.0
60
0
100
AcDbLine
10
-64.046313
20
77.418814
30
0.0
11
-42.780905
21
90.91423
31
0.0
39
0.0
210
0.0
220
0.0
230
1.0
0
LINE
5
11A65
100
AcDbEntity
67
0
8
LINES
62
3
6
ByLayer
370
-1
48
1.0
60
0
100
AcDbLine
10
-42.780905
20
90.91423
30
0.0
11
-18.827414
21
98.697171
31
0.0
39
0.0
210
0.0
220
0.0
230
1.0
0
LINE
5
11A66
100
AcDbEntity
67
0
8
LINES
62
3
6
ByLayer
370
-1
48
1.0
60
0
100
AcDbLine
10
-18.827414
20
98.697171
30
0.0
11
6.309072
21
100.278605
31
0.0
39
0.0
210
0.0
220
0.0
230
1.0
0
LINE
5
11A67
100
AcDbEntity
67
0
8
LINES
62
4
6
ByLayer
370
-1
48
1.0
60
0
100
AcDbLine
10
-93.421067
20
-36.987934
30
0.0
11
-99.684598
21
-12.593016
31
0.0
39
0.0
210
0.0
220
0.0
230
1.0
0
LINE
5
11A68
100
AcDbEntity
67
0
8
LINES
62
4
6
ByLayer
370
-1
48
1.0
60
0
100
AcDbLine
10
-99.684598
20
-12.593016
30
0.0
11
-99.684578
21
12.593168
31
0.0
39
0.0
210
0.0
220
0.0
230
1.0
0
LINE
5
11A69
100
AcDbEntity
67
0
8
LINES
62
4
6
ByLayer
370
-1
48
1.0
60
0
100
AcDbLine
10
-99.684578
20
12.593168
30
0.0
11
-93.42101
21
36.988077
31
0.0
39
0.0
210
0.0
220
0.0
230
1.0
0
LINE
5
11A6A
100
AcDbEntity
67
0
8
LINES
62
5
6
ByLayer
370
-1
48
1.0
60
0
100
AcDbLine
10
6.308919
20
-100.278615
30
0.0
11
-18.827565
21
-98.697142
31
0.0
39
0.0
210
0.0
220
0.0
230
1.0
0
LINE
5
11A6B
100
AcDbEntity
67
0
8
LINES
62
5
6
ByLayer
370
-1
48
1.0
60
0
100
AcDbLine
10
-18.827565
20
-98.697142
30
0.0
11
-42.781044
21
-90.914165
31
0.0
39
0.0
210
0.0
220
0.0
230
1.0
0
LINE
5
11A6C
100
AcDbEntity
67
0
8
LINES
62
5
6
ByLayer
370
-1
48
1.0
60
0
100
AcDbLine
10
-42.781044
20
-90.914165
30
0.0
11
-64.046432
21
-77.418716
31
0.0
39
0.0
210
0.0
220
0.0
230
1.0
0
LINE
5
11A6D
100
AcDbEntity
67
0
8
LINES
62
5
6
ByLayer
370
-1
48
1.0
60
0
100
AcDbLine
10
-64.046432
20
-77.418716
30
0.0
11
-81.287547
21
-59.058765
31
0.0
39
0.0
210
0.0
220
0.0
230
1.0
0
LINE
5
11A6E
100
AcDbEntity
67
0
8
LINES
62
5
6
ByLayer
370
-1
48
1.0
60
0
100
AcDbLine
10
-81.287547
20
-59.058765
30
0.0
11
-93.421067
21
-36.987934
31
0.0
39
0.0
210
0.0
220
0.0
230
1.0
0
LINE
5
11A6F
100
AcDbEntity
67
0
8
LINES
62
6
6
ByLayer
370
-1
48
1.0
60
0
100
AcDbLine
10
97.320193
20
-24.987658
30
0.0
11
88.048523
21
-48.405173
31
0.0
39
0.0
210
0.0
220
0.0
230
1.0
0
LINE
5
11A70
100
AcDbEntity
67
0
8
LINES
62
6
6
ByLayer
370
-1
48
1.0
60
0
100
AcDbLine
10
88.048523
20
-48.405173
30
0.0
11
73.244439
21
-68.781212
31
0.0
39
0.0
210
0.0
220
0.0
230
1.0
0
LINE
5
11A71
100
AcDbEntity
67
0
8
LINES
62
6
6
ByLayer
370
-1
48
1.0
60
0
100
AcDbLine
10
73.244439
20
-68.781212
30
0.0
11
53.838139
21
-84.835475
31
0.0
39
0.0
210
0.0
220
0.0
230
1.0
0
LINE
5
11A72
100
AcDbEntity
67
0
8
LINES
62
6
6
ByLayer
370
-1
48
1.0
60
0
100
AcDbLine
10
53.838139
20
-84.835475
30
0.0
11
31.04899
21
-95.559214
31
0.0
39
0.0
210
0.0
220
0.0
230
1.0
0
LINE
5
11A73
100
AcDbEntity
67
0
8
LINES
62
6
6
ByLayer
370
-1
48
1.0
60
0
100
AcDbLine
10
31.04899
20
-95.559214
30
0.0
11
6.308919
21
-100.278615
31
0.0
39
0.0
210
0.0
220
0.0
230
1.0
0
LINE
5
11A74
100
AcDbEntity
67
0
8
LINES
62
1
6
ByLayer
370
-1
48
1.0
60
0
100
AcDbLine
10
80.592174
20
75.680973
30
0.0
11
96.881316
21
53.260858
31
0.0
39
0.0
210
0.0
220
0.0
230
1.0
0
LINE
5
11A75
100
AcDbEntity
67
0
8
LINES
62
1
6
ByLayer
370
-1
48
1.0
60
0
100
AcDbLine
10
96.881316
20
53.260858
30
0.0
11
107.083048
21
27.494166
31
0.0
39
0.0
210
0.0
220
0.0
230
1.0
0
LINE
5
11A76
100
AcDbEntity
67
0
8
LINES
62
1
6
ByLayer
370
-1
48
1.0
60
0
100
AcDbLine
10
107.083048
20
27.494166
30
0.0
11
110.556358
21
-0.000085
31
0.0
39
0.0
210
0.0
220
0.0
230
1.0
0
LINE
5
11A77
100
AcDbEntity
67
0
8
LINES
62
2
6
ByLayer
370
-1
48
1.0
60
0
100
AcDbLine
10
6.941976
20
110.338195
30
0.0
11
34.163874
21
105.145319
31
0.0
39
0.0
210
0.0
220
0.0
230
1.0
0
LINE
5
11A78
100
AcDbEntity
67
0
8
LINES
62
2
6
ByLayer
370
-1
48
1.0
60
0
100
AcDbLine
10
34.163874
20
105.145319
30
0.0
11
59.23913
21
93.345775
31
0.0
39
0.0
210
0.0
220
0.0
230
1.0
0
LINE
5
11A79
100
AcDbEntity
67
0
8
LINES
62
2
6
ByLayer
370
-1
48
1.0
60
0
100
AcDbLine
10
59.23913
20
93.345775
30
0.0
11
80.592174
21
75.680973
31
0.0
39
0.0
210
0.0
220
0.0
230
1.0
0
LINE
5
11A7A
100
AcDbEntity
67
0
8
LINES
62
3
6
ByLayer
370
-1
48
1.0
60
0
100
AcDbLine
10
-102.792671
20
40.698588
30
0.0
11
-89.441923
21
64.983465
31
0.0
39
0.0
210
0.0
220
0.0
230
1.0
0
LINE
5
11A7B
100
AcDbEntity
67
0
8
LINES
62
3
6
ByLayer
370
-1
48
1.0
60
0
100
AcDbLine
10
-89.441923
20
64.983465
30
0.0
11
-70.47121
21
85.185192
31
0.0
39
0.0
210
0.0
220
0.0
230
1.0
0
LINE
5
11A7C
100
AcDbEntity
67
0
8
LINES
62
3
6
ByLayer
370
-1
48
1.0
60
0
100
AcDbLine
10
-70.47121
20
85.185192
30
0.0
11
-47.072531
21
100.03442
31
0.0
39
0.0
210
0.0
220
0.0
230
1.0
0
LINE
5
11A7D
100
AcDbEntity
67
0
8
LINES
62
3
6
ByLayer
370
-1
48
1.0
60
0
100
AcDbLine
10
-47.072531
20
100.03442
30
0.0
11
-20.716113
21
108.598117
31
0.0
39
0.0
210
0.0
220
0.0
230
1.0
0
LINE
5
11A7E
100
AcDbEntity
67
0
8
LINES
62
3
6
ByLayer
370
-1
48
1.0
60
0
100
AcDbLine
10
-20.716113
20
108.598117
30
0.0
11
6.941976
21
110.338195
31
0.0
39
0.0
210
0.0
220
0.0
230
1.0
0
LINE
5
11A7F
100
AcDbEntity
67
0
8
LINES
62
4
6
ByLayer
370
-1
48
1.0
60
0
100
AcDbLine
10
-102.792733
20
-40.698431
30
0.0
11
-109.684599
21
-13.856302
31
0.0
39
0.0
210
0.0
220
0.0
230
1.0
0
LINE
5
11A80
100
AcDbEntity
67
0
8
LINES
62
4
6
ByLayer
370
-1
48
1.0
60
0
100
AcDbLine
10
-109.684599
20
-13.856302
30
0.0
11
-109.684577
21
13.85647
31
0.0
39
0.0
210
0.0
220
0.0
230
1.0
0
LINE
5
11A81
100
AcDbEntity
67
0
8
LINES
62
4
6
ByLayer
370
-1
48
1.0
60
0
100
AcDbLine
10
-109.684577
20
13.85647
30
0.0
11
-102.792671
21
40.698588
31
0.0
39
0.0
210
0.0
220
0.0
230
1.0
0
LINE
5
11A82
100
AcDbEntity
67
0
8
LINES
62
5
6
ByLayer
370
-1
48
1.0
60
0
100
AcDbLine
10
6.941807
20
-110.338206
30
0.0
11
-20.716279
21
-108.598085
31
0.0
39
0.0
210
0.0
220
0.0
230
1.0
0
LINE
5
11A83
100
AcDbEntity
67
0
8
LINES
62
5
6
ByLayer
370
-1
48
1.0
60
0
100
AcDbLine
10
-20.716279
20
-108.598085
30
0.0
11
-47.072684
21
-100.034347
31
0.0
39
0.0
210
0.0
220
0.0
230
1.0
0
LINE
5
11A84
100
AcDbEntity
67
0
8
LINES
62
5
6
ByLayer
370
-1
48
1.0
60
0
100
AcDbLine
10
-47.072684
20
-100.034347
30
0.0
11
-70.47134
21
-85.185084
31
0.0
39
0.0
210
0.0
220
0.0
230
1.0
0
LINE
5
11A85
100
AcDbEntity
67
0
8
LINES
62
5
6
ByLayer
370
-1
48
1.0
60
0
100
AcDbLine
10
-70.47134
20
-85.185084
30
0.0
11
-89.442022
21
-64.983328
31
0.0
39
0.0
210
0.0
220
0.0
230
1.0
0
LINE
5
11A86
100
AcDbEntity
67
0
8
LINES
62
5
6
ByLayer
370
-1
48
1.0
60
0
100
AcDbLine
10
-89.442022
20
-64.983328
30
0.0
11
-102.792733
21
-40.698431
31
0.0
39
0.0
210
0.0
220
0.0
230
1.0
0
LINE
5
11A87
100
AcDbEntity
67
0
8
LINES
62
6
6
ByLayer
370
-1
48
1.0
60
0
100
AcDbLine
10
107.083006
20
-27.49433
30
0.0
11
96.881234
21
-53.261006
31
0.0
39
0.0
210
0.0
220
0.0
230
1.0
0
LINE
5
11A88
100
AcDbEntity
67
0
8
LINES
62
6
6
ByLayer
370
-1
48
1.0
60
0
100
AcDbLine
10
96.881234
20
-53.261006
30
0.0
11
80.592059
21
-75.681097
31
0.0
39
0.0
210
0.0
220
0.0
230
1.0
0
LINE
5
11A89
100
AcDbEntity
67
0
8
LINES
62
6
6
ByLayer
370
-1
48
1.0
60
0
100
AcDbLine
10
80.592059
20
-75.681097
30
0.0
11
59.238988
21
-93.345866
31
0.0
39
0.0
210
0.0
220
0.0
230
1.0
0
LINE
5
11A8A
100
AcDbEntity
67
0
8
LINES
62
6
6
ByLayer
370
-1
48
1.0
60
0
100
AcDbLine
10
59.238988
20
-93.345866
30
0.0
11
34.163713
21
-105.145371
31
0.0
39
0.0
210
0.0
220
0.0
230
1.0
0
LINE
5
11A8B
100
AcDbEntity
67
0
8
LINES
62
6
6
ByLayer
370
-1
48
1.0
60
0
100
AcDbLine
10
34.163713
20
-105.145371
30
0.0
11
6.941807
21
-110.338206
31
0.0
39
0.0
210
0.0
220
0.0
230
1.0
0
LINE
5
11A8C
100
AcDbEntity
67
0
8
LINES
62
1
6
ByLayer
370
-1
48
1.0
60
0
100
AcDbLine
10
87.939804
20
82.580846
30
0.0
11
105.714035
21
58.116677
31
0.0
39
0.0
210
0.0
220
0.0
230
1.0
0
LINE
5
11A8D
100
AcDbEntity
67
0
8
LINES
62
1
6
ByLayer
370
-1
48
1.0
60
0
100
AcDbLine
10
105.714035
20
58.116677
30
0.0
11
116.845864
21
30.000823
31
0.0
39
0.0
210
0.0
220
0.0
230
1.0
0
LINE
5
11A8E
100
AcDbEntity
67
0
8
LINES
62
1
6
ByLayer
370
-1
48
1.0
60
0
100
AcDbLine
10
116.845864
20
30.000823
30
0.0
11
120.635838
21
-0.000092
31
0.0
39
0.0
210
0.0
220
0.0
230
1.0
0
LINE
5
11A8F
100
AcDbEntity
67
0
8
LINES
62
2
6
ByLayer
370
-1
48
1.0
60
0
100
AcDbLine
10
7.574879
20
120.397785
30
0.0
11
37.278612
21
114.731471
31
0.0
39
0.0
210
0.0
220
0.0
230
1.0
0
LINE
5
11A90
100
AcDbEntity
67
0
8
LINES
62
2
6
ByLayer
370
-1
48
1.0
60
0
100
AcDbLine
10
37.278612
20
114.731471
30
0.0
11
64.639992
21
101.856157
31
0.0
39
0.0
210
0.0
220
0.0
230
1.0
0
LINE
5
11A91
100
AcDbEntity
67
0
8
LINES
62
2
6
ByLayer
370
-1
48
1.0
60
0
100
AcDbLine
10
64.639992
20
101.856157
30
0.0
11
87.939804
21
82.580846
31
0.0
39
0.0
210
0.0
220
0.0
230
1.0
0
LINE
5
11A92
100
AcDbEntity
67
0
8
LINES
62
3
6
ByLayer
370
-1
48
1.0
60
0
100
AcDbLine
10
-112.164331
20
44.4091
30
0.0
11
-97.596389
21
70.908041
31
0.0
39
0.0
210
0.0
220
0.0
230
1.0
0
LINE
5
11A93
100
AcDbEntity
67
0
8
LINES
62
3
6
ByLayer
370
-1
48
1.0
60
0
100
AcDbLine
10
-97.596389
20
70.908041
30
0.0
11
-76.896106
21
92.951569
31
0.0
39
0.0
210
0.0
220
0.0
230
1.0
0
LINE
5
11A94
100
AcDbEntity
67
0
8
LINES
62
3
6
ByLayer
370
-1
48
1.0
60
0
100
AcDbLine
10
-76.896106
20
92.951569
30
0.0
11
-51.364158
21
109.154609
31
0.0
39
0.0
210
0.0
220
0.0
230
1.0
0
LINE
5
11A95
100
AcDbEntity
67
0
8
LINES
62
3
6
ByLayer
370
-1
48
1.0
60
0
100
AcDbLine
10
-51.364158
20
109.154609
30
0.0
11
-22.604811
21
118.499063
31
0.0
39
0.0
210
0.0
220
0.0
230
1.0
0
LINE
5
11A96
100
AcDbEntity
67
0
8
LINES
62
3
6
ByLayer
370
-1
48
1.0
60
0
100
AcDbLine
10
-22.604811
20
118.499063
30
0.0
11
7.574879
21
120.397785
31
0.0
39
0.0
210
0.0
220
0.0
230
1.0
0
LINE
5
11A97
100
AcDbEntity
67
0
8
LINES
62
4
6
ByLayer
370
-1
48
1.0
60
0
100
AcDbLine
10
-112.164399
20
-44.408928
30
0.0
11
-119.6846
21
-15.119588
31
0.0
39
0.0
210
0.0
220
0.0
230
1.0
0
LINE
5
11A98
100
AcDbEntity
67
0
8
LINES
62
4
6
ByLayer
370
-1
48
1.0
60
0
100
AcDbLine
10
-119.6846
20
-15.119588
30
0.0
11
-119.684576
21
15.119771
31
0.0
39
0.0
210
0.0
220
0.0
230
1.0
0
LINE
5
11A99
100
AcDbEntity
67
0
8
LINES
62
4
6
ByLayer
370
-1
48
1.0
60
0
100
AcDbLine
10
-119.684576
20
15.119771
30
0.0
11
-112.164331
21
44.4091
31
0.0
39
0.0
210
0.0
220
0.0
230
1.0
0
LINE
5
11A9A
100
AcDbEntity
67
0
8
LINES
62
5
6
ByLayer
370
-1
48
1.0
60
0
100
AcDbLine
10
7.574695
20
-120.397796
30
0.0
11
-22.604992
21
-118.499028
31
0.0
39
0.0
210
0.0
220
0.0
230
1.0
0
LINE
5
11A9B
100
AcDbEntity
67
0
8
LINES
62
5
6
ByLayer
370
-1
48
1.0
60
0
100
AcDbLine
10
-22.604992
20
-118.499028
30
0.0
11
-51.364325
21
-109.15453
31
0.0
39
0.0
210
0.0
220
0.0
230
1.0
0
LINE
5
11A9C
100
AcDbEntity
67
0
8
LINES
62
5
6
ByLayer
370
-1
48
1.0
60
0
100
AcDbLine
10
-51.364325
20
-109.15453
30
0.0
11
-76.896248
21
-92.951452
31
0.0
39
0.0
210
0.0
220
0.0
230
1.0
0
LINE
5
11A9D
100
AcDbEntity
67
0
8
LINES
62
5
6
ByLayer
370
-1
48
1.0
60
0
100
AcDbLine
10
-76.896248
20
-92.951452
30
0.0
11
-97.596497
21
-70.907892
31
0.0
39
0.0
210
0.0
220
0.0
230
1.0
0
LINE
5
11A9E
100
AcDbEntity
67
0
8
LINES
62
5
6
ByLayer
370
-1
48
1.0
60
0
100
AcDbLine
10
-97.596497
20
-70.907892
30
0.0
11
-112.164399
21
-44.408928
31
0.0
39
0.0
210
0.0
220
0.0
230
1.0
0
LINE
5
11A9F
100
AcDbEntity
67
0
8
LINES
62
6
6
ByLayer
370
-1
48
1.0
60
0
100
AcDbLine
10
116.845818
20
-30.001002
30
0.0
11
105.713946
21
-58.116839
31
0.0
39
0.0
210
0.0
220
0.0
230
1.0
0
LINE
5
11AA0
100
AcDbEntity
67
0
8
LINES
62
6
6
ByLayer
370
-1
48
1.0
60
0
100
AcDbLine
10
105.713946
20
-58.116839
30
0.0
11
87.939678
21
-82.580981
31
0.0
39
0.0
210
0.0
220
0.0
230
1.0
0
LINE
5
11AA1
100
AcDbEntity
67
0
8
LINES
62
6
6
ByLayer
370
-1
48
1.0
60
0
100
AcDbLine
10
87.939678
20
-82.580981
30
0.0
11
64.639836
21
-101.856256
31
0.0
39
0.0
210
0.0
220
0.0
230
1.0
0
LINE
5
11AA2
100
AcDbEntity
67
0
8
LINES
62
6
6
ByLayer
370
-1
48
1.0
60
0
100
AcDbLine
10
64.639836
20
-101.856256
30
0.0
11
37.278436
21
-114.731528
31
0.0
39
0.0
210
0.0
220
0.0
230
1.0
0
LINE
5
11AA3
100
AcDbEntity
67
0
8
LINES
62
6
6
ByLayer
370
-1
48
1.0
60
0
100
AcDbLine
10
37.278436
20
-114.731528
30
0.0
11
7.574695
21
-120.397796
31
0.0
39
0.0
210
0.0
220
0.0
230
1.0
0
LINE
5
11AA4
100
AcDbEntity
67
0
8
LINES
62
1
6
ByLayer
370
-1
48
1.0
60
0
100
AcDbLine
10
95.287434
20
89.480719
30
0.0
11
114.546754
21
62.972497
31
0.0
39
0.0
210
0.0
220
0.0
230
1.0
0
LINE
5
11AA5
100
AcDbEntity
67
0
8
LINES
62
1
6
ByLayer
370
-1
48
1.0
60
0
100
AcDbLine
10
114.546754
20
62.972497
30
0.0
11
126.60868
21
32.507481
31
0.0
39
0.0
210
0.0
220
0.0
230
1.0
0
LINE
5
11AA6
100
AcDbEntity
67
0
8
LINES
62
1
6
ByLayer
370
-1
48
1.0
60
0
100
AcDbLine
10
126.60868
20
32.507481
30
0.0
11
130.715317
21
-0.0001
31
0.0
39
0.0
210
0.0
220
0.0
230
1.0
0
LINE
5
11AA7
100
AcDbEntity
67
0
8
LINES
62
2
6
ByLayer
370
-1
48
1.0
60
0
100
AcDbLine
10
8.207782
20
130.457374
30
0.0
11
40.39335
21
124.317623
31
0.0
39
0.0
210
0.0
220
0.0
230
1.0
0
LINE
5
11AA8
100
AcDbEntity
67
0
8
LINES
62
2
6
ByLayer
370
-1
48
1.0
60
0
100
AcDbLine
10
40.39335
20
124.317623
30
0.0
11
70.040854
21
110.366539
31
0.0
39
0.0
210
0.0
220
0.0
230
1.0
0
LINE
5
11AA9
100
AcDbEntity
67
0
8
LINES
62
2
6
ByLayer
370
-1
48
1.0
60
0
100
AcDbLine
10
70.040854
20
110.366539
30
0.0
11
95.287434
21
89.480719
31
0.0
39
0.0
210
0.0
220
0.0
230
1.0
0
LINE
5
11AAA
100
AcDbEntity
67
0
8
LINES
62
3
6
ByLayer
370
-1
48
1.0
60
0
100
AcDbLine
10
-121.535992
20
48.119611
30
0.0
11
-105.750854
21
76.832617
31
0.0
39
0.0
210
0.0
220
0.0
230
1.0
0
LINE
5
11AAB
100
AcDbEntity
67
0
8
LINES
62
3
6
ByLayer
370
-1
48
1.0
60
0
100
AcDbLine
10
-105.750854
20
76.832617
30
0.0
11
-83.321002
21
100.717947
31
0.0
39
0.0
210
0.0
220
0.0
230
1.0
0
LINE
5
11AAC
100
AcDbEntity
67
0
8
LINES
62
3
6
ByLayer
370
-1
48
1.0
60
0
100
AcDbLine
10
-83.321002
20
100.717947
30
0.0
11
-55.655785
21
118.274798
31
0.0
39
0.0
210
0.0
220
0.0
230
1.0
0
LINE
5
11AAD
100
AcDbEntity
67
0
8
LINES
62
3
6
ByLayer
370
-1
48
1.0
60
0
100
AcDbLine
10
-55.655785
20
118.274798
30
0.0
11
-24.49351
21
128.400008
31
0.0
39
0.0
210
0.0
220
0.0
230
1.0
0
LINE
5
11AAE
100
AcDbEntity
67
0
8
LINES
62
3
6
ByLayer
370
-1
48
1.0
60
0
100
AcDbLine
10
-24.49351
20
128.400008
30
0.0
11
8.207782
21
130.457374
31
0.0
39
0.0
210
0.0
220
0.0
230
1.0
0
LINE
5
11AAF
100
AcDbEntity
67
0
8
LINES
62
4
6
ByLayer
370
-1
48
1.0
60
0
100
AcDbLine
10
-121.536065
20
-48.119425
30
0.0
11
-129.684601
21
-16.382874
31
0.0
39
0.0
210
0.0
220
0.0
230
1.0
0
LINE
5
11AB0
100
AcDbEntity
67
0
8
LINES
62
4
6
ByLayer
370
-1
48
1.0
60
0
100
AcDbLine
10
-129.684601
20
-16.382874
30
0.0
11
-129.684576
21
16.383073
31
0.0
39
0.0
210
0.0
220
0.0
230
1.0
0
LINE
5
11AB1
100
AcDbEntity
67
0
8
LINES
62
4
6
ByLayer
370
-1
48
1.0
60
0
100
AcDbLine
10
-129.684576
20
16.383073
30
0.0
11
-121.535992
21
48.119611
31
0.0
39
0.0
210
0.0
220
0.0
230
1.0
0
LINE
5
11AB2
100
AcDbEntity
67
0
8
LINES
62
5
6
ByLayer
370
-1
48
1.0
60
0
100
AcDbLine
10
8.207583
20
-130.457387
30
0.0
11
-24.493706
21
-128.399971
31
0.0
39
0.0
210
0.0
220
0.0
230
1.0
0
LINE
5
11AB3
100
AcDbEntity
67
0
8
LINES
62
5
6
ByLayer
370
-1
48
1.0
60
0
100
AcDbLine
10
-24.493706
20
-128.399971
30
0.0
11
-55.655966
21
-118.274713
31
0.0
39
0.0
210
0.0
220
0.0
230
1.0
0
LINE
5
11AB4
100
AcDbEntity
67
0
8
LINES
62
5
6
ByLayer
370
-1
48
1.0
60
0
100
AcDbLine
10
-55.655966
20
-118.274713
30
0.0
11
-83.321156
21
-100.717819
31
0.0
39
0.0
210
0.0
220
0.0
230
1.0
0
LINE
5
11AB5
100
AcDbEntity
67
0
8
LINES
62
5
6
ByLayer
370
-1
48
1.0
60
0
100
AcDbLine
10
-83.321156
20
-100.717819
30
0.0
11
-105.750972
21
-76.832455
31
0.0
39
0.0
210
0.0
220
0.0
230
1.0
0
LINE
5
11AB6
100
AcDbEntity
67
0
8
LINES
62
5
6
ByLayer
370
-1
48
1.0
60
0
100
AcDbLine
10
-105.750972
20
-76.832455
30
0.0
11
-121.536065
21
-48.119425
31
0.0
39
0.0
210
0.0
220
0.0
230
1.0
0
LINE
5
11AB7
100
AcDbEntity
67
0
8
LINES
62
6
6
ByLayer
370
-1
48
1.0
60
0
100
AcDbLine
10
126.60863
20
-32.507674
30
0.0
11
114.546658
21
-62.972672
31
0.0
39
0.0
210
0.0
220
0.0
230
1.0
0
LINE
5
11AB8
100
AcDbEntity
67
0
8
LINES
62
6
6
ByLayer
370
-1
48
1.0
60
0
100
AcDbLine
10
114.546658
20
-62.972672
30
0.0
11
95.287297
21
-89.480865
31
0.0
39
0.0
210
0.0
220
0.0
230
1.0
0
LINE
5
11AB9
100
AcDbEntity
67
0
8
LINES
62
6
6
ByLayer
370
-1
48
1.0
60
0
100
AcDbLine
10
95.287297
20
-89.480865
30
0.0
11
70.040685
21
-110.366646
31
0.0
39
0.0
210
0.0
220
0.0
230
1.0
0
LINE
5
11ABA
100
AcDbEntity
67
0
8
LINES
62
6
6
ByLayer
370
-1
48
1.0
60
0
100
AcDbLine
10
70.040685
20
-110.366646
30
0.0
11
40.393159
21
-124.317685
31
0.0
39
0.0
210
0.0
220
0.0
230
1.0
0
LINE
5
11ABB
100
AcDbEntity
67
0
8
LINES
62
6
6
ByLayer
370
-1
48
1.0
60
0
100
AcDbLine
10
40.393159
20
-124.317685
30
0.0
11
8.207583
21
-130.457387
31
0.0
39
0.0
210
0.0
220
0.0
230
1.0
0
LINE
5
11ABC
100
AcDbEntity
67
0
8
LINES
62
1
6
ByLayer
370
-1
48
1.0
60
0
100
AcDbLine
10
102.635064
20
96.380592
30
0.0
11
123.379473
21
67.828316
31
0.0
39
0.0
210
0.0
220
0.0
230
1.0
0
LINE
5
11ABD
100
AcDbEntity
67
0
8
LINES
62
1
6
ByLayer
370
-1
48
1.0
60
0
100
AcDbLine
10
123.379473
20
67.828316
30
0.0
11
136.371496
21
35.014138
31
0.0
39
0.0
210
0.0
220
0.0
230
1.0
0
LINE
5
11ABE
100
AcDbEntity
67
0
8
LINES
62
1
6
ByLayer
370
-1
48
1.0
60
0
100
AcDbLine
10
136.371496
20
35.014138
30
0.0
11
140.794797
21
-0.000108
31
0.0
39
0.0
210
0.0
220
0.0
230
1.0
0
LINE
5
11ABF
100
AcDbEntity
67
0
8
LINES
62
2
6
ByLayer
370
-1
48
1.0
60
0
100
AcDbLine
10
8.840686
20
140.516964
30
0.0
11
43.508087
21
133.903776
31
0.0
39
0.0
210
0.0
220
0.0
230
1.0
0
LINE
5
11AC0
100
AcDbEntity
67
0
8
LINES
62
2
6
ByLayer
370
-1
48
1.0
60
0
100
AcDbLine
10
43.508087
20
133.903776
30
0.0
11
75.441716
21
118.876921
31
0.0
39
0.0
210
0.0
220
0.0
230
1.0
0
LINE
5
11AC1
100
AcDbEntity
67
0
8
LINES
62
2
6
ByLayer
370
-1
48
1.0
60
0
100
AcDbLine
10
75.441716
20
118.876921
30
0.0
11
102.635064
21
96.380592
31
0.0
39
0.0
210
0.0
220
0.0
230
1.0
0
LINE
5
11AC2
100
AcDbEntity
67
0
8
LINES
62
3
6
ByLayer
370
-1
48
1.0
60
0
100
AcDbLine
10
-130.907652
20
51.830122
30
0.0
11
-113.90532
21
82.757192
31
0.0
39
0.0
210
0.0
220
0.0
230
1.0
0
LINE
5
11AC3
100
AcDbEntity
67
0
8
LINES
62
3
6
ByLayer
370
-1
48
1.0
60
0
100
AcDbLine
10
-113.90532
20
82.757192
30
0.0
11
-89.745898
21
108.484324
31
0.0
39
0.0
210
0.0
220
0.0
230
1.0
0
LINE
5
11AC4
100
AcDbEntity
67
0
8
LINES
62
3
6
ByLayer
370
-1
48
1.0
60
0
100
AcDbLine
10
-89.745898
20
108.484324
30
0.0
11
-59.947412
21
127.394987
31
0.0
39
0.0
210
0.0
220
0.0
230
1.0
0
LINE
5
11AC5
100
AcDbEntity
67
0
8
LINES
62
3
6
ByLayer
370
-1
48
1.0
60
0
100
AcDbLine
10
-59.947412
20
127.394987
30
0.0
11
-26.382208
21
138.300954
31
0.0
39
0.0
210
0.0
220
0.0
230
1.0
0
LINE
5
11AC6
100
AcDbEntity
67
0
8
LINES
62
3
6
ByLayer
370
-1
48
1.0
60
0
100
AcDbLine
10
-26.382208
20
138.300954
30
0.0
11
8.840686
21
140.516964
31
0.0
39
0.0
210
0.0
220
0.0
230
1.0
0
LINE
5
11AC7
100
AcDbEntity
67
0
8
LINES
62
4
6
ByLayer
370
-1
48
1.0
60
0
100
AcDbLine
10
-130.907731
20
-51.829922
30
0.0
11
-139.684602
21
-17.64616
31
0.0
39
0.0
210
0.0
220
0.0
230
1.0
0
LINE
5
11AC8
100
AcDbEntity
67
0
8
LINES
62
4
6
ByLayer
370
-1
48
1.0
60
0
100
AcDbLine
10
-139.684602
20
-17.64616
30
0.0
11
-139.684575
21
17.646374
31
0.0
39
0.0
210
0.0
220
0.0
230
1.0
0
LINE
5
11AC9
100
AcDbEntity
67
0
8
LINES
62
4
6
ByLayer
370
-1
48
1.0
60
0
100
AcDbLine
10
-139.684575
20
17.646374
30
0.0
11
-130.907652
21
51.830122
31
0.0
39
0.0
210
0.0
220
0.0
230
1.0
0
LINE
5
11ACA
100
AcDbEntity
67
0
8
LINES
62
5
6
ByLayer
370
-1
48
1.0
60
0
100
AcDbLine
10
8.840471
20
-140.516977
30
0.0
11
-26.38242
21
-138.300914
31
0.0
39
0.0
210
0.0
220
0.0
230
1.0
0
LINE
5
11ACB
100
AcDbEntity
67
0
8
LINES
62
5
6
ByLayer
370
-1
48
1.0
60
0
100
AcDbLine
10
-26.38242
20
-138.300914
30
0.0
11
-59.947606
21
-127.394895
31
0.0
39
0.0
210
0.0
220
0.0
230
1.0
0
LINE
5
11ACC
100
AcDbEntity
67
0
8
LINES
62
5
6
ByLayer
370
-1
48
1.0
60
0
100
AcDbLine
10
-59.947606
20
-127.394895
30
0.0
11
-89.746064
21
-108.484187
31
0.0
39
0.0
210
0.0
220
0.0
230
1.0
0
LINE
5
11ACD
100
AcDbEntity
67
0
8
LINES
62
5
6
ByLayer
370
-1
48
1.0
60
0
100
AcDbLine
10
-89.746064
20
-108.484187
30
0.0
11
-113.905447
21
-82.757018
31
0.0
39
0.0
210
0.0
220
0.0
230
1.0
0
LINE
5
11ACE
100
AcDbEntity
67
0
8
LINES
62
5
6
ByLayer
370
-1
48
1.0
60
0
100
AcDbLine
10
-113.905447
20
-82.757018
30
0.0
11
-130.907731
21
-51.829922
31
0.0
39
0.0
210
0.0
220
0.0
230
1.0
0
LINE
5
11ACF
100
AcDbEntity
67
0
8
LINES
62
6
6
ByLayer
370
-1
48
1.0
60
0
100
AcDbLine
10
136.371443
20
-35.014347
30
0.0
11
123.379369
21
-67.828505
31
0.0
39
0.0
210
0.0
220
0.0
230
1.0
0
LINE
5
11AD0
100
AcDbEntity
67
0
8
LINES
62
6
6
ByLayer
370
-1
48
1.0
60
0
100
AcDbLine
10
123.379369
20
-67.828505
30
0.0
11
102.634916
21
-96.380749
31
0.0
39
0.0
210
0.0
220
0.0
230
1.0
0
LINE
5
11AD1
100
AcDbEntity
67
0
8
LINES
62
6
6
ByLayer
370
-1
48
1.0
60
0
100
AcDbLine
10
102.634916
20
-96.380749
30
0.0
11
75.441534
21
-118.877037
31
0.0
39
0.0
210
0.0
220
0.0
230
1.0
0
LINE
5
11AD2
100
AcDbEntity
67
0
8
LINES
62
6
6
ByLayer
370
-1
48
1.0
60
0
100
AcDbLine
10
75.441534
20
-118.877037
30
0.0
11
43.507883
21
-133.903843
31
0.0
39
0.0
210
0.0
220
0.0
230
1.0
0
LINE
5
11AD3
100
AcDbEntity
67
0
8
LINES
62
6
6
ByLayer
370
-1
48
1.0
60
0
100
AcDbLine
10
43.507883
20
-133.903843
30
0.0
11
8.840471
21
-140.516977
31
0.0
39
0.0
210
0.0
220
0.0
230
1.0
0
LINE
5
11AD4
100
AcDbEntity
67
0
8
0
62
256
6
ByLayer
370
-1
48
1.0
60
0
100
AcDbLine
10
-266.197183
20
-186.85446
30
0.0
11
266.197183
21
-186.85446
31
0.0
39
0.2
210
0.0
220
0.0
230
1.0
0
LINE
5
11AD5
100
AcDbEntity
67
0
8
0
62
256
6
ByLayer
370
-1
48
1.0
60
0
100
AcDbLine
10
266.197183
20
-186.85446
30
0.0
11
266.197183
21
213.14554
31
0.0
39
0.2
210
0.0
220
0.0
230
1.0
0
LINE
5
11AD6
100
AcDbEntity
67
0
8
0
62
256
6
ByLayer
370
-1
48
1.0
60
0
100
AcDbLine
10
266.197183
20
213.14554
30
0.0
11
-266.197183
21
213.14554
31
0.0
39
0.2
210
0.0
220
0.0
230
1.0
0
LINE
5
11AD7
100
AcDbEntity
67
0
8
0
62
256
6
ByLayer
370
-1
48
1.0
60
0
100
AcDbLine
10
-266.197183
20
213.14554
30
0.0
11
-266.197183
21
-186.85446
31
0.0
39
0.2
210
0.0
220
0.0
230
1.0
0
TEXT
5
11AD8
100
AcDbEntity
67
0
8
TEXT
62
10
6
ByLayer
370
-1
48
1.0
60
0
100
AcDbText
1
1X
10
155.650844
20
16.577595
30
0.0
40
7.6
41
1.0
50
0.0
51
0.0
7
ROMANS
11
163.431796
21
20.377595
31
0.0
210
0.0
220
0.0
230
1.0
72
4
100
AcDbText
73
0
0
TEXT
5
11AD9
100
AcDbEntity
67
0
8
TEXT
62
20
6
ByLayer
370
-1
48
1.0
60
0
100
AcDbText
1
2X
10
146.102875
20
56.062849
30
0.0
40
7.6
41
1.0
50
0.0
51
0.0
7
ROMANS
11
153.34097
21
59.862849
31
0.0
210
0.0
220
0.0
230
1.0
72
4
100
AcDbText
73
0
0
TEXT
5
11ADA
100
AcDbEntity
67
0
8
TEXT
62
30
6
ByLayer
370
-1
48
1.0
60
0
100
AcDbText
1
3X
10
126.509488
20
91.798116
30
0.0
40
7.6
41
1.0
50
0.0
51
0.0
7
ROMANS
11
133.747583
21
95.598116
31
0.0
210
0.0
220
0.0
230
1.0
72
4
100
AcDbText
73
0
0
TEXT
5
11ADB
100
AcDbEntity
67
0
8
TEXT
62
40
6
ByLayer
370
-1
48
1.0
60
0
100
AcDbText
1
4X
10
98.644663
20
121.538016
30
0.0
40
7.6
41
1.0
50
0.0
51
0.0
7
ROMANS
11
105.882758
21
125.338016
31
0.0
210
0.0
220
0.0
230
1.0
72
4
100
AcDbText
73
0
0
TEXT
5
11ADC
100
AcDbEntity
67
0
8
TEXT
62
50
6
ByLayer
370
-1
48
1.0
60
0
100
AcDbText
1
5X
10
64.259251
20
143.413882
30
0.0
40
7.6
41
1.0
50
0.0
51
0.0
7
ROMANS
11
71.497346
21
147.213882
31
0.0
210
0.0
220
0.0
230
1.0
72
4
100
AcDbText
73
0
0
TEXT
5
11ADD
100
AcDbEntity
67
0
8
TEXT
62
60
6
ByLayer
370
-1
48
1.0
60
0
100
AcDbText
1
6X
10
25.33286
20
156.051173
30
0.0
40
7.6
41
1.0
50
0.0
51
0.0
7
ROMANS
11
32.751908
21
159.851173
31
0.0
210
0.0
220
0.0
230
1.0
72
4
100
AcDbText
73
0
0
TEXT
5
11ADE
100
AcDbEntity
67
0
8
TEXT
62
70
6
ByLayer
370
-1
48
1.0
60
0
100
AcDbText
1
7X
10
-15.157133
20
158.655842
30
0.0
40
7.6
41
1.0
50
0.0
51
0.0
7
ROMANS
11
-7.919037
21
162.455842
31
0.0
210
0.0
220
0.0
230
1.0
72
4
100
AcDbText
73
0
0
TEXT
5
11ADF
100
AcDbEntity
67
0
8
TEXT
62
80
6
ByLayer
370
-1
48
1.0
60
0
100
AcDbText
1
8X
10
-55.19808
20
151.064228
30
0.0
40
7.6
41
1.0
50
0.0
51
0.0
7
ROMANS
11
-47.959985
21
154.864228
31
0.0
210
0.0
220
0.0
230
1.0
72
4
100
AcDbText
73
0
0
TEXT
5
11AE0
100
AcDbEntity
67
0
8
TEXT
62
90
6
ByLayer
370
-1
48
1.0
60
0
100
AcDbText
1
9X
10
-92.09311
20
133.75334
30
0.0
40
7.6
41
1.0
50
0.0
51
0.0
7
ROMANS
11
-84.855015
21
137.55334
31
0.0
210
0.0
220
0.0
230
1.0
72
4
100
AcDbText
73
0
0
TEXT
5
11AE1
100
AcDbEntity
67
0
8
TEXT
62
100
6
ByLayer
370
-1
48
1.0
60
0
100
AcDbText
1
10X
10
-127.685877
20
107.810884
30
0.0
40
7.6
41
1.0
50
0.0
51
0.0
7
ROMANS
11
-116.285877
21
111.610884
31
0.0
210
0.0
220
0.0
230
1.0
72
4
100
AcDbText
73
0
0
TEXT
5
11AE2
100
AcDbEntity
67
0
8
TEXT
62
110
6
ByLayer
370
-1
48
1.0
60
0
100
AcDbText
1
11X
10
-151.677654
20
74.86692
30
0.0
40
7.6
41
1.0
50
0.0
51
0.0
7
ROMANS
11
-140.277654
21
78.66692
31
0.0
210
0.0
220
0.0
230
1.0
72
4
100
AcDbText
73
0
0
TEXT
5
11AE3
100
AcDbEntity
67
0
8
TEXT
62
120
6
ByLayer
370
-1
48
1.0
60
0
100
AcDbText
1
12X
10
-166.722855
20
36.991439
30
0.0
40
7.6
41
1.0
50
0.0
51
0.0
7
ROMANS
11
-155.322855
21
40.791439
31
0.0
210
0.0
220
0.0
230
1.0
72
4
100
AcDbText
73
0
0
TEXT
5
11AE4
100
AcDbEntity
67
0
8
TEXT
62
130
6
ByLayer
370
-1
48
1.0
60
0
100
AcDbText
1
13X
10
-171.876134
20
-3.435703
30
0.0
40
7.6
41
1.0
50
0.0
51
0.0
7
ROMANS
11
-160.476134
21
0.364297
31
0.0
210
0.0
220
0.0
230
1.0
72
4
100
AcDbText
73
0
0
TEXT
5
11AE5
100
AcDbEntity
67
0
8
TEXT
62
140
6
ByLayer
370
-1
48
1.0
60
0
100
AcDbText
1
14X
10
-166.813692
20
-43.87432
30
0.0
40
7.6
41
1.0
50
0.0
51
0.0
7
ROMANS
11
-155.413692
21
-40.07432
31
0.0
210
0.0
220
0.0
230
1.0
72
4
100
AcDbText
73
0
0
TEXT
5
11AE6
100
AcDbEntity
67
0
8
TEXT
62
150
6
ByLayer
370
-1
48
1.0
60
0
100
AcDbText
1
15X
10
-151.853621
20
-81.783506
30
0.0
40
7.6
41
1.0
50
0.0
51
0.0
7
ROMANS
11
-140.453621
21
-77.983506
31
0.0
210
0.0
220
0.0
230
1.0
72
4
100
AcDbText
73
0
0
TEXT
5
11AE7
100
AcDbEntity
67
0
8
TEXT
62
160
6
ByLayer
370
-1
48
1.0
60
0
100
AcDbText
1
16X
10
-127.935916
20
-114.781286
30
0.0
40
7.6
41
1.0
50
0.0
51
0.0
7
ROMANS
11
-116.535916
21
-110.981286
31
0.0
210
0.0
220
0.0
230
1.0
72
4
100
AcDbText
73
0
0
TEXT
5
11AE8
100
AcDbEntity
67
0
8
TEXT
62
170
6
ByLayer
370
-1
48
1.0
60
0
100
AcDbText
1
17X
10
-96.563416
20
-140.79429
30
0.0
40
7.6
41
1.0
50
0.0
51
0.0
7
ROMANS
11
-85.163416
21
-136.99429
31
0.0
210
0.0
220
0.0
230
1.0
72
4
100
AcDbText
73
0
0
TEXT
5
11AE9
100
AcDbEntity
67
0
8
TEXT
62
180
6
ByLayer
370
-1
48
1.0
60
0
100
AcDbText
1
18X
10
-59.70737
20
-158.188023
30
0.0
40
7.6
41
1.0
50
0.0
51
0.0
7
ROMANS
11
-48.30737
21
-154.388023
31
0.0
210
0.0
220
0.0
230
1.0
72
4
100
AcDbText
73
0
0
TEXT
5
11AEA
100
AcDbEntity
67
0
8
TEXT
62
190
6
ByLayer
370
-1
48
1.0
60
0
100
AcDbText
1
19X
10
-19.683579
20
-165.869575
30
0.0
40
7.6
41
1.0
50
0.0
51
0.0
7
ROMANS
11
-8.283579
21
-162.069575
31
0.0
210
0.0
220
0.0
230
1.0
72
4
100
AcDbText
73
0
0
TEXT
5
11AEB
100
AcDbEntity
67
0
8
TEXT
62
200
6
ByLayer
370
-1
48
1.0
60
0
100
AcDbText
1
20X
10
21.535973
20
-163.356284
30
0.0
40
7.6
41
1.0
50
0.0
51
0.0
7
ROMANS
11
32.393115
21
-159.556284
31
0.0
210
0.0
220
0.0
230
1.0
72
4
100
AcDbText
73
0
0
TEXT
5
11AEC
100
AcDbEntity
67
0
8
TEXT
62
210
6
ByLayer
370
-1
48
1.0
60
0
100
AcDbText
1
21X
10
60.309704
20
-150.806071
30
0.0
40
7.6
41
1.0
50
0.0
51
0.0
7
ROMANS
11
71.166847
21
-147.006071
31
0.0
210
0.0
220
0.0
230
1.0
72
4
100
AcDbText
73
0
0
TEXT
5
11AED
100
AcDbEntity
67
0
8
TEXT
62
220
6
ByLayer
370
-1
48
1.0
60
0
100
AcDbText
1
22X
10
94.744176
20
-129.00751
30
0.0
40
7.6
41
1.0
50
0.0
51
0.0
7
ROMANS
11
105.601319
21
-125.20751
31
0.0
210
0.0
220
0.0
230
1.0
72
4
100
AcDbText
73
0
0
TEXT
5
11AEE
100
AcDbEntity
67
0
8
TEXT
62
230
6
ByLayer
370
-1
48
1.0
60
0
100
AcDbText
1
23X
10
122.675744
20
-99.330287
30
0.0
40
7.6
41
1.0
50
0.0
51
0.0
7
ROMANS
11
133.532887
21
-95.530287
31
0.0
210
0.0
220
0.0
230
1.0
72
4
100
AcDbText
73
0
0
TEXT
5
11AEF
100
AcDbEntity
67
0
8
TEXT
62
240
6
ByLayer
370
-1
48
1.0
60
0
100
AcDbText
1
24X
10
142.349365
20
-63.639129
30
0.0
40
7.6
41
1.0
50
0.0
51
0.0
7
ROMANS
11
153.206508
21
-59.839129
31
0.0
210
0.0
220
0.0
230
1.0
72
4
100
AcDbText
73
0
0
TEXT
5
11AF0
100
AcDbEntity
67
0
8
TEXT
62
250
6
ByLayer
370
-1
48
1.0
60
0
100
AcDbText
1
25X
10
152.528874
20
-24.176644
30
0.0
40
7.6
41
1.0
50
0.0
51
0.0
7
ROMANS
11
163.386017
21
-20.376644
31
0.0
210
0.0
220
0.0
230
1.0
72
4
100
AcDbText
73
0
0
TEXT
5
11AF1
100
AcDbEntity
67
0
8
TEXT
62
256
6
ByLayer
370
-1
48
1.0
60
0
100
AcDbText
1
9
10
130.042212
20
-19.692186
30
0.0
40
7.0
41
1.0
50
352.800044
51
0.0
7
ROMANS
11
133.622573
21
-16.61667
31
0.0
210
0.0
220
0.0
230
1.0
72
4
100
AcDbText
73
0
0
TEXT
5
11AF2
100
AcDbEntity
67
0
8
TEXT
62
256
6
ByLayer
370
-1
48
1.0
60
0
100
AcDbText
1
7
10
119.955712
20
-18.417972
30
0.0
40
7.0
41
1.0
50
352.800044
51
0.0
7
ROMANS
11
123.701425
21
-15.363345
31
0.0
210
0.0
220
0.0
230
1.0
72
4
100
AcDbText
73
0
0
TEXT
5
11AF3
100
AcDbEntity
67
0
8
TEXT
62
256
6
ByLayer
370
-1
48
1.0
60
0
100
AcDbText
1
5
10
110.034564
20
-17.164648
30
0.0
40
7.0
41
1.0
50
352.800044
51
0.0
7
ROMANS
11
113.780277
21
-14.110021
31
0.0
210
0.0
220
0.0
230
1.0
72
4
100
AcDbText
73
0
0
TEXT
5
11AF4
100
AcDbEntity
67
0
8
TEXT
62
256
6
ByLayer
370
-1
48
1.0
60
0
100
AcDbText
1
3
10
100.113416
20
-15.911323
30
0.0
40
7.0
41
1.0
50
352.800044
51
0.0
7
ROMANS
11
103.859129
21
-12.856696
31
0.0
210
0.0
220
0.0
230
1.0
72
4
100
AcDbText
73
0
0
TEXT
5
11AF5
100
AcDbEntity
67
0
8
TEXT
62
256
6
ByLayer
370
-1
48
1.0
60
0
100
AcDbText
1
1
10
90.688325
20
-14.720664
30
0.0
40
7.0
41
1.0
50
352.800044
51
0.0
7
ROMANS
11
93.937981
21
-11.603371
31
0.0
210
0.0
220
0.0
230
1.0
72
4
100
AcDbText
73
0
0
TEXT
5
11AF6
100
AcDbEntity
67
0
8
TEXT
62
256
6
ByLayer
370
-1
48
1.0
60
0
100
AcDbText
1
0
10
80.27112
20
-13.404673
30
0.0
40
7.0
41
1.0
50
352.800044
51
0.0
7
ROMANS
11
84.016833
21
-10.350046
31
0.0
210
0.0
220
0.0
230
1.0
72
4
100
AcDbText
73
0
0
TEXT
5
11AF7
100
AcDbEntity
67
0
8
TEXT
62
256
6
ByLayer
370
-1
48
1.0
60
0
100
AcDbText
1
2
10
70.349972
20
-12.151349
30
0.0
40
7.0
41
1.0
50
352.800044
51
0.0
7
ROMANS
11
74.095685
21
-9.096722
31
0.0
210
0.0
220
0.0
230
1.0
72
4
100
AcDbText
73
0
0
TEXT
5
11AF8
100
AcDbEntity
67
0
8
TEXT
62
256
6
ByLayer
370
-1
48
1.0
60
0
100
AcDbText
1
4
10
60.263472
20
-10.877135
30
0.0
40
7.0
41
1.0
50
352.800044
51
0.0
7
ROMANS
11
64.174537
21
-7.843397
31
0.0
210
0.0
220
0.0
230
1.0
72
4
100
AcDbText
73
0
0
TEXT
5
11AF9
100
AcDbEntity
67
0
8
TEXT
62
256
6
ByLayer
370
-1
48
1.0
60
0
100
AcDbText
1
6
10
50.342324
20
-9.62381
30
0.0
40
7.0
41
1.0
50
352.800044
51
0.0
7
ROMANS
11
54.253389
21
-6.590072
31
0.0
210
0.0
220
0.0
230
1.0
72
4
100
AcDbText
73
0
0
TEXT
5
11AFA
100
AcDbEntity
67
0
8
TEXT
62
256
6
ByLayer
370
-1
48
1.0
60
0
100
AcDbText
1
8
10
40.586528
20
-8.391374
30
0.0
40
7.0
41
1.0
50
352.800044
51
0.0
7
ROMANS
11
44.332241
21
-5.336747
31
0.0
210
0.0
220
0.0
230
1.0
72
4
100
AcDbText
73
0
0
TEXT
5
11AFB
100
AcDbEntity
67
0
8
TEXT
62
250
6
ByLayer
370
-1
48
1.0
60
0
100
AcDbText
1
250
10
187.465626
20
16.942994
30
0.0
40
8.0
41
1.0
50
0.0
51
0.0
7
ROMANS
11
198.894197
21
20.942994
31
0.0
210
0.0
220
0.0
230
1.0
72
4
100
AcDbText
73
0
0
TEXT
5
11AFC
100
AcDbEntity
67
0
8
TEXT
62
251
6
ByLayer
370
-1
48
1.0
60
0
100
AcDbText
1
251
10
188.608483
20
-0.199863
30
0.0
40
8.0
41
1.0
50
0.0
51
0.0
7
ROMANS
11
198.894197
21
3.800137
31
0.0
210
0.0
220
0.0
230
1.0
72
4
100
AcDbText
73
0
0
TEXT
5
11AFD
100
AcDbEntity
67
0
8
TEXT
62
252
6
ByLayer
370
-1
48
1.0
60
0
100
AcDbText
1
252
10
187.465626
20
-17.342721
30
0.0
40
8.0
41
1.0
50
0.0
51
0.0
7
ROMANS
11
198.894197
21
-13.342721
31
0.0
210
0.0
220
0.0
230
1.0
72
4
100
AcDbText
73
0
0
TEXT
5
11AFE
100
AcDbEntity
67
0
8
TEXT
62
253
6
ByLayer
370
-1
48
1.0
60
0
100
AcDbText
1
253
10
187.465626
20
-34.485578
30
0.0
40
8.0
41
1.0
50
0.0
51
0.0
7
ROMANS
11
198.894197
21
-30.485578
31
0.0
210
0.0
220
0.0
230
1.0
72
4
100
AcDbText
73
0
0
TEXT
5
11AFF
100
AcDbEntity
67
0
8
TEXT
62
254
6
ByLayer
370
-1
48
1.0
60
0
100
AcDbText
1
254
10
187.27515
20
-51.628435
30
0.0
40
8.0
41
1.0
50
0.0
51
0.0
7
ROMANS
11
198.894197
21
-47.628435
31
0.0
210
0.0
220
0.0
230
1.0
72
4
100
AcDbText
73
0
0
TEXT
5
11B00
100
AcDbEntity
67
0
8
TEXT
62
255
6
ByLayer
370
-1
48
1.0
60
0
100
AcDbText
1
255
10
187.465626
20
-68.771292
30
0.0
40
8.0
41
1.0
50
0.0
51
0.0
7
ROMANS
11
198.894197
21
-64.771292
31
0.0
210
0.0
220
0.0
230
1.0
72
4
100
AcDbText
73
0
0
SOLID
5
11B01
100
AcDbEntity
67
0
8
SHADES
62
250
6
ByLayer
370
-1
48
1.0
60
0
100
AcDbTrace
10
217.680714
20
13.759376
30
0.0
11
251.966428
21
13.759376
31
0.0
12
217.680714
22
25.187948
32
0.0
13
251.966428
23
25.187948
33
0.0
39
0.1
210
0.0
220
0.0
230
1.0
0
SOLID
5
11B02
100
AcDbEntity
67
0
8
SHADES
62
251
6
ByLayer
370
-1
48
1.0
60
0
100
AcDbTrace
10
217.680714
20
-3.383481
30
0.0
11
251.966428
21
-3.383481
31
0.0
12
217.680714
22
8.04509
32
0.0
13
251.966428
23
8.04509
33
0.0
39
0.1
210
0.0
220
0.0
230
1.0
0
SOLID
5
11B03
100
AcDbEntity
67
0
8
SHADES
62
252
6
ByLayer
370
-1
48
1.0
60
0
100
AcDbTrace
10
217.680714
20
-20.526338
30
0.0
11
251.966428
21
-20.526338
31
0.0
12
217.680714
22
-9.097767
32
0.0
13
251.966428
23
-9.097767
33
0.0
39
0.1
210
0.0
220
0.0
230
1.0
0
SOLID
5
11B04
100
AcDbEntity
67
0
8
SHADES
62
253
6
ByLayer
370
-1
48
1.0
60
0
100
AcDbTrace
10
217.680714
20
-37.669195
30
0.0
11
251.966428
21
-37.669195
31
0.0
12
217.680714
22
-26.240624
32
0.0
13
251.966428
23
-26.240624
33
0.0
39
0.1
210
0.0
220
0.0
230
1.0
0
SOLID
5
11B05
100
AcDbEntity
67
0
8
SHADES
62
254
6
ByLayer
370
-1
48
1.0
60
0
100
AcDbTrace
10
217.680714
20
-54.812052
30
0.0
11
251.966428
21
-54.812052
31
0.0
12
217.680714
22
-43.383481
32
0.0
13
251.966428
23
-43.383481
33
0.0
39
0.1
210
0.0
220
0.0
230
1.0
0
SOLID
5
11B06
100
AcDbEntity
67
0
8
SHADES
62
255
6
ByLayer
370
-1
48
1.0
60
0
100
AcDbTrace
10
217.680714
20
-71.95491
30
0.0
11
251.966428
21
-71.95491
31
0.0
12
217.680714
22
-60.526338
32
0.0
13
251.966428
23
-60.526338
33
0.0
39
0.1
210
0.0
220
0.0
230
1.0
0
TEXT
5
11B07
100
AcDbEntity
67
0
8
TEXT
62
256
6
ByLayer
370
-1
48
1.0
60
0
100
AcDbText
1
Layers:
10
188.14554
20
-120.0
30
0.0
40
7.0
41
1.0
50
0.0
51
0.0
7
ROMANS
11
0.0
21
0.0
31
0.0
210
0.0
220
0.0
230
1.0
72
0
100
AcDbText
73
0
0
LINE
5
11B08
100
AcDbEntity
67
0
8
TEXT
62
256
6
ByLayer
370
-1
48
1.0
60
0
100
AcDbLine
10
189.201878
20
-128.638498
30
0.0
11
227.699531
21
-128.638498
31
0.0
39
0.1
210
0.0
220
0.0
230
1.0
0
TEXT
5
11B09
100
AcDbEntity
67
0
8
TEXT
62
256
6
ByLayer
370
-1
48
1.0
60
0
100
AcDbText
1
Lines
10
188.14554
20
-142.666667
30
0.0
40
7.0
41
1.0
50
0.0
51
0.0
7
ROMANS
11
0.0
21
0.0
31
0.0
210
0.0
220
0.0
230
1.0
72
0
100
AcDbText
73
0
0
TEXT
5
11B0A
100
AcDbEntity
67
0
8
TEXT
62
256
6
ByLayer
370
-1
48
1.0
60
0
100
AcDbText
1
Text
10
188.14554
20
-154.0
30
0.0
40
7.0
41
1.0
50
0.0
51
0.0
7
ROMANS
11
0.0
21
0.0
31
0.0
210
0.0
220
0.0
230
1.0
72
0
100
AcDbText
73
0
0
TEXT
5
11B0B
100
AcDbEntity
67
0
8
TEXT
62
256
6
ByLayer
370
-1
48
1.0
60
0
100
AcDbText
1
Shades
10
188.14554
20
-165.333333
30
0.0
40
7.0
41
1.0
50
0.0
51
0.0
7
ROMANS
11
0.0
21
0.0
31
0.0
210
0.0
220
0.0
230
1.0
72
0
100
AcDbText
73
0
0
ENDSEC
0
SECTION
2
OBJECTS
0
DICTIONARY
5
72474
100
AcDbDictionary
280
0
281
1
3
ACAD_GROUP
350
72475
3
ACAD_LAYOUT
350
72476
3
ACAD_MLINESTYLE
350
72480
0
DICTIONARY
5
72475
100
AcDbDictionary
280
0
281
1
0
DICTIONARY
5
72476
100
AcDbDictionary
280
0
281
1
3
Model
350
72466
3
Layout1
350
72470
0
DICTIONARY
5
72480
100
AcDbDictionary
280
0
281
1
3
STANDARD
350
13
0
MLINESTYLE
5
13
100
AcDbMlineStyle
2
STANDARD
70
0
3

62
0
51
90.0
52
90.0
71
2
49
-0.5
62
256
6
ByLayer
49
0.5
62
256
6
ByLayer
0
ENDSEC
0
EOF
